<svg xmlns="http://www.w3.org/2000/svg" viewBox="0 0 1600 1200" preserveAspectRatio="xMidYMid slice" aria-hidden="true">
<path d="M332.3,371.9 L330.7,370.5 L329.2,368.9 L327.7,367.3 L326.4,365.5 L325.4,363.6 L324.6,361.5 L324.3,359.4 L324.4,357.3 L325.1,355.2 L326.1,353.3 L327.6,351.5 L329.2,349.9 L330.9,348.4 L332.7,347.0 L334.5,345.6 L336.3,344.2 L338.2,342.9 L340.2,341.7 L342.4,340.6 L344.8,339.7 L347.4,339.1 L350.0,338.8 L352.7,338.9 L355.3,339.3 L357.8,339.9 L360.3,340.6 L362.6,341.4 L364.9,342.4 L367.1,343.4 L369.2,344.5 L371.3,345.7 L373.2,347.2 L374.7,348.8 L376.0,350.6 L376.8,352.6 L377.3,354.6 L377.5,356.6 L377.4,358.6 L377.3,360.5 L377.0,362.4 L376.7,364.4 L376.3,366.3 L375.8,368.3 L375.0,370.2 L373.9,372.1 L372.5,373.8 L370.6,375.3 L368.5,376.5 L366.1,377.4 L363.6,378.1 L361.1,378.4 L358.6,378.6 L356.1,378.7 L353.7,378.7 L351.4,378.7 L349.0,378.6 L346.6,378.4 L344.3,378.1 L342.0,377.5 L339.8,376.8 L337.7,375.8 L335.8,374.6 L334.0,373.3 L332.3,371.9 Z" fill="none" stroke="currentColor" stroke-width="1.1" vector-effect="non-scaling-stroke"/>
<path d="M406.2,385.3 L402.5,389.2 L398.2,392.7 L393.4,395.7 L388.3,398.2 L383.1,400.5 L377.7,402.4 L372.3,404.2 L366.7,405.8 L361.0,407.3 L355.1,408.5 L348.9,409.4 L342.5,409.7 L336.1,409.4 L329.8,408.4 L323.8,406.5 L318.2,403.9 L313.3,400.7 L309.1,396.9 L305.5,392.8 L302.6,388.6 L300.1,384.3 L297.9,380.0 L295.9,375.7 L294.1,371.3 L292.5,366.9 L291.2,362.3 L290.4,357.6 L290.2,352.8 L290.7,348.0 L292.1,343.3 L294.4,338.8 L297.5,334.5 L301.3,330.6 L305.6,327.2 L310.3,324.1 L315.3,321.4 L320.4,318.9 L325.8,316.7 L331.3,314.8 L336.9,313.1 L342.8,311.6 L348.9,310.6 L355.2,310.0 L361.5,310.0 L367.9,310.6 L374.1,311.8 L380.0,313.8 L385.6,316.3 L390.6,319.4 L395.1,322.9 L398.9,326.8 L402.2,331.0 L404.9,335.3 L407.2,339.6 L409.2,344.1 L410.7,348.5 L412.0,353.1 L412.9,357.7 L413.4,362.4 L413.4,367.1 L412.8,371.9 L411.4,376.6 L409.2,381.1 L406.2,385.3 Z" fill="none" stroke="currentColor" stroke-width="1.1" vector-effect="non-scaling-stroke"/>
<path d="M271.9,292.9 L281.6,288.1 L291.9,284.2 L302.4,281.1 L312.9,278.4 L323.4,275.7 L333.9,273.1 L344.8,270.5 L356.2,268.1 L368.1,266.5 L380.4,266.1 L392.7,267.3 L404.4,270.4 L415.1,275.3 L424.3,281.8 L431.8,289.4 L437.9,297.6 L442.7,306.0 L446.8,314.3 L450.6,322.3 L454.5,330.1 L458.5,338.0 L462.4,346.0 L465.8,354.4 L468.0,363.2 L468.7,372.2 L467.4,381.2 L464.1,389.9 L459.0,398.1 L452.4,405.5 L444.8,412.2 L436.7,418.2 L428.3,423.9 L419.7,429.2 L411.0,434.5 L402.0,439.5 L392.4,444.4 L382.1,448.7 L371.2,452.2 L359.6,454.7 L347.7,455.9 L335.5,455.8 L323.4,454.4 L311.7,451.8 L300.5,448.0 L290.0,443.2 L280.3,437.6 L271.6,431.1 L264.1,423.9 L257.7,416.1 L252.6,407.9 L248.8,399.4 L246.2,390.8 L244.4,382.3 L243.3,373.8 L242.5,365.4 L242.1,357.0 L242.0,348.5 L242.4,339.8 L243.6,331.1 L246.1,322.3 L250.1,313.8 L255.8,305.9 L263.1,298.9 L271.9,292.9 Z" fill="none" stroke="currentColor" stroke-width="1.1" vector-effect="non-scaling-stroke"/>
<path d="M451.8,446.2 L440.1,453.1 L427.5,458.8 L414.3,463.4 L400.7,466.9 L386.9,469.7 L372.9,471.7 L358.8,473.0 L344.5,473.6 L330.1,473.3 L315.7,471.9 L301.6,469.1 L287.9,465.0 L275.1,459.5 L263.3,452.8 L252.7,445.1 L243.2,436.6 L234.8,427.5 L227.2,418.1 L220.4,408.3 L214.4,398.1 L209.3,387.6 L205.4,376.7 L203.0,365.4 L202.3,354.0 L203.5,342.5 L206.6,331.3 L211.5,320.5 L217.9,310.2 L225.4,300.5 L233.9,291.3 L243.1,282.7 L253.0,274.4 L263.7,266.7 L275.2,259.6 L287.7,253.4 L301.2,248.4 L315.4,244.8 L330.1,242.9 L344.9,242.6 L359.7,243.8 L374.0,246.3 L387.8,249.7 L401.1,253.8 L414.0,258.3 L426.7,263.3 L439.1,268.8 L451.2,275.0 L462.8,282.1 L473.3,290.2 L482.5,299.3 L489.8,309.5 L495.2,320.3 L498.6,331.6 L500.1,343.1 L500.1,354.6 L498.8,365.9 L496.6,377.0 L493.5,387.9 L489.6,398.7 L484.7,409.2 L478.6,419.5 L471.1,429.2 L462.1,438.2 L451.8,446.2 Z" fill="none" stroke="currentColor" stroke-width="1.1" vector-effect="non-scaling-stroke"/>
<path d="M205.4,305.1 L212.0,293.7 L219.8,282.6 L228.8,271.9 L238.9,261.5 L250.3,251.8 L263.1,242.9 L277.4,235.1 L292.9,228.9 L309.5,224.4 L326.7,221.8 L344.3,221.1 L361.7,222.3 L378.7,225.0 L395.1,228.9 L410.9,233.8 L426.2,239.4 L440.9,245.8 L455.1,252.8 L468.6,260.8 L481.1,269.7 L492.4,279.8 L501.8,290.8 L509.2,302.9 L514.2,315.5 L517.0,328.5 L517.5,341.6 L516.3,354.4 L513.5,366.9 L509.7,378.9 L504.9,390.6 L499.5,401.9 L493.2,412.8 L486.0,423.4 L477.8,433.6 L468.4,443.2 L457.9,452.2 L446.2,460.3 L433.5,467.5 L420.0,473.8 L405.7,479.2 L390.8,483.8 L375.3,487.4 L359.3,490.0 L342.8,491.5 L326.0,491.5 L309.3,490.0 L292.9,486.7 L277.2,481.6 L262.6,474.8 L249.5,466.5 L237.9,457.1 L228.0,446.7 L219.5,435.8 L212.3,424.5 L206.2,413.0 L201.2,401.3 L197.2,389.5 L194.2,377.5 L192.5,365.4 L192.2,353.2 L193.3,340.9 L195.9,328.8 L200.0,316.8 L205.4,305.1 Z" fill="none" stroke="currentColor" stroke-width="1.1" vector-effect="non-scaling-stroke"/>
<path d="M141.7,326.9 L142.6,309.9 L145.0,292.6 L149.8,275.1 L157.9,258.2 L169.7,242.6 L185.1,229.1 L203.6,218.1 L224.3,210.0 L246.1,204.4 L268.2,200.9 L289.9,198.7 L311.1,197.3 L331.9,196.2 L352.6,195.3 L373.5,194.9 L394.6,195.6 L415.7,197.8 L436.5,202.1 L456.4,208.7 L474.8,217.6 L491.5,228.2 L506.6,240.1 L520.3,252.9 L533.1,266.2 L545.4,280.0 L557.3,294.2 L568.6,309.3 L578.5,325.4 L586.2,342.6 L590.6,360.5 L590.8,378.9 L586.7,397.0 L578.3,414.1 L566.3,429.8 L551.8,443.9 L535.9,456.5 L519.6,468.0 L503.5,478.9 L487.6,489.7 L471.7,500.6 L455.1,511.6 L437.4,522.2 L418.1,531.8 L397.1,539.6 L374.7,545.1 L351.3,547.9 L327.6,547.9 L304.0,545.2 L281.2,540.1 L259.3,533.1 L238.6,524.4 L219.1,514.1 L201.2,502.5 L185.1,489.4 L171.2,475.0 L160.0,459.4 L151.6,443.0 L146.0,426.0 L142.9,409.0 L141.5,392.2 L141.2,375.7 L141.2,359.5 L141.4,343.3 L141.7,326.9 Z" fill="none" stroke="currentColor" stroke-width="1.1" vector-effect="non-scaling-stroke"/>
<path d="M401.0,158.6 L426.5,162.1 L451.2,168.4 L474.5,177.4 L495.7,189.0 L514.5,202.7 L530.8,218.0 L544.5,234.5 L556.0,251.6 L565.6,269.0 L573.6,286.6 L580.1,304.3 L585.3,322.1 L588.9,340.1 L590.6,358.3 L590.0,376.6 L586.9,394.8 L581.1,412.5 L572.6,429.5 L561.6,445.5 L548.4,460.4 L533.3,474.0 L516.9,486.4 L499.4,497.6 L481.0,507.7 L461.8,516.8 L441.8,524.9 L421.0,531.9 L399.4,537.5 L377.0,541.7 L354.1,544.1 L330.8,544.7 L307.5,543.2 L284.4,539.6 L262.0,533.9 L240.5,526.2 L220.4,516.7 L201.8,505.4 L184.9,492.7 L169.9,478.7 L156.8,463.7 L145.6,447.9 L136.2,431.5 L128.6,414.6 L122.6,397.2 L118.3,379.6 L115.5,361.6 L114.4,343.4 L115.4,325.0 L118.6,306.5 L124.2,288.3 L132.6,270.5 L143.7,253.5 L157.5,237.7 L173.6,223.3 L191.7,210.4 L211.5,199.1 L232.4,189.2 L254.4,180.7 L277.1,173.4 L300.5,167.2 L324.8,162.4 L349.7,159.1 L375.2,157.7 L401.0,158.6 Z" fill="none" stroke="currentColor" stroke-width="1.1" vector-effect="non-scaling-stroke"/>
<path d="M610.0,459.7 L599.2,480.4 L587.8,501.6 L574.9,523.4 L559.5,545.3 L540.8,566.3 L518.1,585.3 L491.4,601.2 L461.3,612.7 L428.9,619.4 L395.4,620.9 L362.2,617.9 L330.3,611.2 L300.2,602.1 L271.8,591.8 L244.6,581.4 L217.9,571.2 L190.9,561.3 L163.4,551.0 L135.7,539.5 L108.5,525.9 L83.4,509.6 L61.8,490.1 L45.3,467.9 L34.8,443.5 L30.7,418.0 L32.5,392.4 L39.2,367.6 L49.3,344.1 L61.2,322.1 L73.5,301.4 L85.5,281.3 L96.8,261.4 L108.0,241.2 L119.8,220.5 L133.2,199.6 L149.2,179.0 L168.5,159.5 L191.3,142.0 L217.4,127.2 L246.4,115.8 L277.3,108.1 L309.4,104.0 L341.8,103.3 L374.0,105.7 L405.4,110.6 L435.9,117.6 L465.3,126.4 L493.7,136.9 L521.0,148.8 L547.2,162.3 L571.8,177.6 L594.6,194.6 L614.9,213.6 L632.2,234.3 L645.7,256.7 L655.1,280.2 L660.0,304.4 L660.5,328.8 L657.1,352.6 L650.5,375.7 L641.7,397.7 L631.5,418.8 L620.8,439.3 L610.0,459.7 Z" fill="none" stroke="currentColor" stroke-width="1.1" vector-effect="non-scaling-stroke"/>
<path d="M711.5,508.7 L682.6,531.1 L651.9,550.8 L620.8,568.3 L589.8,584.6 L559.1,600.1 L528.1,615.1 L496.3,629.3 L463.0,642.1 L427.9,652.9 L391.2,660.9 L353.2,665.3 L314.6,665.9 L276.1,662.7 L238.3,655.8 L201.7,645.6 L166.8,632.3 L133.9,616.3 L103.4,597.8 L75.8,576.8 L51.3,553.7 L30.5,528.7 L13.4,502.2 L-0.1,474.8 L-10.4,446.7 L-18.3,418.4 L-24.3,389.8 L-28.9,360.9 L-32.3,331.4 L-33.7,301.1 L-32.4,270.1 L-26.9,238.7 L-16.2,207.7 L0.8,178.2 L24.3,151.6 L53.8,128.9 L88.1,110.8 L125.6,97.6 L164.7,88.7 L203.8,83.4 L242.0,80.5 L279.1,78.9 L315.2,78.0 L350.9,77.6 L386.5,78.0 L422.3,79.9 L458.1,84.1 L493.4,91.4 L527.4,102.1 L559.4,116.2 L589.1,133.2 L616.5,152.4 L641.8,173.3 L665.8,195.3 L688.8,218.5 L711.0,243.0 L731.9,269.1 L750.4,297.2 L765.0,327.2 L774.0,359.0 L776.0,391.5 L770.4,423.8 L757.0,454.7 L736.9,483.2 L711.5,508.7 Z" fill="none" stroke="currentColor" stroke-width="1.1" vector-effect="non-scaling-stroke"/>
<path d="M1093.8,269.8 L1093.6,267.7 L1093.6,265.6 L1093.9,263.6 L1094.3,261.6 L1094.8,259.7 L1095.4,257.8 L1096.1,255.9 L1097.0,254.0 L1098.2,252.2 L1099.7,250.5 L1101.5,249.0 L1103.6,247.8 L1105.9,246.9 L1108.4,246.2 L1110.8,245.8 L1113.3,245.5 L1115.7,245.3 L1118.1,245.1 L1120.5,245.0 L1122.9,245.0 L1125.3,245.1 L1127.7,245.4 L1130.1,246.0 L1132.4,246.8 L1134.4,247.8 L1136.3,249.1 L1138.1,250.4 L1139.6,251.9 L1141.1,253.5 L1142.5,255.1 L1143.8,256.7 L1145.0,258.5 L1146.1,260.4 L1146.9,262.3 L1147.3,264.4 L1147.2,266.5 L1146.8,268.6 L1145.9,270.5 L1144.6,272.4 L1143.1,274.1 L1141.5,275.7 L1139.8,277.2 L1138.1,278.7 L1136.3,280.1 L1134.3,281.4 L1132.2,282.6 L1129.9,283.7 L1127.4,284.4 L1124.8,284.8 L1122.1,284.8 L1119.5,284.6 L1117.0,284.0 L1114.6,283.3 L1112.3,282.5 L1110.1,281.7 L1107.9,280.9 L1105.7,280.0 L1103.4,279.2 L1101.2,278.1 L1099.1,276.9 L1097.2,275.4 L1095.6,273.7 L1094.5,271.8 L1093.8,269.8 Z" fill="none" stroke="currentColor" stroke-width="1.1" vector-effect="non-scaling-stroke"/>
<path d="M1080.9,223.6 L1086.3,220.9 L1091.8,218.5 L1097.6,216.5 L1103.7,214.8 L1109.9,213.7 L1116.3,213.1 L1122.7,213.0 L1129.1,213.5 L1135.4,214.4 L1141.5,215.9 L1147.5,217.7 L1153.2,220.0 L1158.7,222.5 L1164.0,225.5 L1168.8,228.9 L1173.3,232.7 L1177.2,236.8 L1180.4,241.2 L1183.1,245.9 L1185.2,250.8 L1186.7,255.8 L1187.7,261.0 L1188.2,266.2 L1188.3,271.5 L1187.9,276.8 L1186.8,282.2 L1185.1,287.5 L1182.5,292.7 L1179.0,297.5 L1174.6,302.0 L1169.4,305.8 L1163.6,309.1 L1157.3,311.7 L1150.8,313.7 L1144.1,315.1 L1137.3,316.2 L1130.6,316.9 L1123.9,317.3 L1117.2,317.4 L1110.5,317.1 L1103.8,316.3 L1097.2,315.1 L1090.8,313.2 L1084.8,310.7 L1079.2,307.7 L1074.0,304.2 L1069.4,300.4 L1065.2,296.3 L1061.4,291.9 L1057.9,287.4 L1054.9,282.7 L1052.2,277.7 L1050.2,272.5 L1049.0,267.2 L1048.6,261.7 L1049.2,256.3 L1050.9,251.0 L1053.5,245.9 L1057.0,241.2 L1061.1,237.0 L1065.7,233.1 L1070.6,229.6 L1075.7,226.5 L1080.9,223.6 Z" fill="none" stroke="currentColor" stroke-width="1.1" vector-effect="non-scaling-stroke"/>
<path d="M1024.2,282.3 L1024.4,274.7 L1025.8,267.3 L1028.0,260.1 L1030.6,253.3 L1033.3,246.7 L1036.1,240.2 L1038.9,233.7 L1042.2,227.2 L1046.1,220.8 L1050.9,214.7 L1056.8,209.1 L1063.6,204.1 L1071.2,199.8 L1079.4,196.2 L1088.0,193.2 L1097.0,190.8 L1106.1,188.7 L1115.6,187.0 L1125.4,185.9 L1135.4,185.5 L1145.5,186.1 L1155.5,187.8 L1164.9,190.9 L1173.4,195.2 L1181.0,200.5 L1187.3,206.6 L1192.5,213.2 L1196.8,220.0 L1200.5,226.8 L1203.6,233.5 L1206.3,240.3 L1208.6,247.0 L1210.4,253.9 L1211.3,260.8 L1211.2,267.8 L1210.0,274.8 L1207.7,281.5 L1204.5,287.9 L1200.6,294.1 L1196.2,300.0 L1191.6,305.8 L1186.7,311.6 L1181.5,317.4 L1175.7,323.2 L1169.0,328.5 L1161.4,333.2 L1152.9,336.8 L1143.6,339.1 L1133.9,339.8 L1124.3,339.0 L1115.0,337.1 L1106.2,334.2 L1098.0,331.1 L1090.2,327.9 L1082.6,325.0 L1074.7,322.3 L1066.5,319.7 L1058.1,316.8 L1049.6,313.3 L1041.6,308.9 L1034.7,303.4 L1029.3,297.0 L1025.8,289.9 L1024.2,282.3 Z" fill="none" stroke="currentColor" stroke-width="1.1" vector-effect="non-scaling-stroke"/>
<path d="M1012.2,332.7 L1006.2,323.1 L1000.8,313.5 L995.7,303.9 L991.1,294.3 L987.2,284.4 L984.3,274.2 L983.2,263.8 L984.1,253.3 L987.2,243.2 L992.4,233.6 L999.2,224.7 L1007.0,216.6 L1015.2,209.1 L1023.4,201.9 L1031.5,194.7 L1039.6,187.3 L1048.2,179.8 L1057.6,172.5 L1068.2,165.8 L1080.0,160.3 L1092.9,156.5 L1106.5,154.6 L1120.3,154.7 L1133.9,156.6 L1146.9,159.7 L1159.3,163.7 L1171.2,168.1 L1182.9,172.7 L1194.5,177.4 L1205.9,182.7 L1217.1,188.6 L1227.4,195.6 L1236.3,203.7 L1243.3,212.9 L1248.0,222.9 L1250.4,233.4 L1250.9,243.9 L1250.0,254.2 L1248.4,264.2 L1246.6,273.9 L1244.9,283.6 L1243.3,293.4 L1241.5,303.5 L1238.8,313.8 L1234.6,324.0 L1228.7,333.9 L1220.7,342.8 L1210.7,350.6 L1199.3,357.0 L1186.8,362.0 L1173.8,365.8 L1160.5,368.8 L1147.1,371.4 L1133.5,373.5 L1119.7,375.3 L1105.5,376.4 L1091.0,376.4 L1076.5,374.9 L1062.5,371.7 L1049.4,366.5 L1037.7,359.7 L1027.6,351.4 L1019.2,342.3 L1012.2,332.7 Z" fill="none" stroke="currentColor" stroke-width="1.1" vector-effect="non-scaling-stroke"/>
<path d="M1252.4,145.3 L1271.0,152.8 L1288.6,162.3 L1303.6,174.2 L1314.7,188.4 L1321.2,204.3 L1323.0,220.9 L1320.7,237.5 L1315.8,253.4 L1309.7,268.3 L1303.9,282.3 L1299.2,296.0 L1295.6,309.9 L1292.5,324.3 L1288.8,339.4 L1283.3,354.5 L1274.9,369.2 L1263.2,382.4 L1248.3,393.4 L1230.8,401.9 L1211.7,407.6 L1191.8,411.1 L1171.9,412.9 L1152.4,413.7 L1133.3,414.0 L1114.4,413.9 L1095.5,413.4 L1076.5,412.0 L1057.6,409.1 L1039.2,404.5 L1021.7,398.0 L1005.5,389.7 L990.7,379.9 L977.3,369.0 L964.9,357.5 L953.2,345.6 L942.0,333.1 L931.5,320.0 L922.1,306.0 L914.8,291.0 L910.5,275.3 L909.8,259.3 L913.1,243.4 L920.2,228.3 L930.2,214.4 L942.0,201.7 L954.3,190.0 L966.3,178.8 L977.5,167.3 L988.3,155.1 L999.3,142.3 L1011.5,129.1 L1025.9,116.6 L1042.8,105.8 L1062.1,98.0 L1083.2,93.9 L1104.9,93.9 L1126.2,97.4 L1146.3,103.6 L1164.9,111.3 L1182.2,119.2 L1199.1,126.5 L1216.1,133.0 L1233.9,139.1 L1252.4,145.3 Z" fill="none" stroke="currentColor" stroke-width="1.1" vector-effect="non-scaling-stroke"/>
<path d="M1210.7,405.5 L1193.7,414.2 L1175.1,420.9 L1155.2,425.1 L1134.8,426.5 L1114.4,425.4 L1094.4,422.1 L1075.3,417.2 L1057.0,411.4 L1039.3,405.0 L1021.9,398.2 L1004.6,391.0 L987.6,383.0 L971.3,373.8 L956.2,363.1 L943.2,350.8 L932.9,336.9 L925.8,321.9 L921.9,306.3 L920.7,290.5 L921.7,275.0 L923.9,259.8 L926.9,245.0 L930.2,230.3 L933.9,215.6 L938.4,200.7 L944.2,185.8 L952.0,171.2 L962.1,157.2 L974.8,144.4 L989.9,133.3 L1006.9,123.9 L1025.4,116.3 L1044.6,110.4 L1064.4,105.7 L1084.6,102.1 L1105.0,99.3 L1125.8,97.6 L1147.0,97.2 L1168.3,98.5 L1189.3,101.9 L1209.5,107.7 L1228.4,115.8 L1245.4,126.0 L1260.3,137.8 L1273.2,150.9 L1284.2,164.6 L1293.8,178.7 L1302.2,193.0 L1309.6,207.4 L1315.9,222.2 L1320.7,237.3 L1323.5,252.7 L1323.9,268.3 L1321.4,283.8 L1316.2,298.8 L1308.6,313.0 L1299.0,326.4 L1288.3,338.8 L1276.8,350.6 L1265.0,362.1 L1252.8,373.4 L1239.9,384.6 L1226.1,395.4 L1210.7,405.5 Z" fill="none" stroke="currentColor" stroke-width="1.1" vector-effect="non-scaling-stroke"/>
<path d="M921.9,350.3 L913.3,334.3 L906.8,317.8 L902.2,301.1 L899.3,284.2 L898.1,267.2 L898.4,250.2 L900.1,233.1 L903.0,216.0 L907.5,198.9 L913.6,181.7 L921.7,164.7 L932.0,148.1 L944.9,132.4 L960.4,117.9 L978.6,105.3 L999.1,95.1 L1021.4,87.5 L1044.9,82.9 L1068.9,81.2 L1092.7,82.1 L1115.8,85.2 L1137.8,89.9 L1158.8,95.6 L1178.9,101.8 L1198.4,108.3 L1217.8,114.8 L1237.3,121.5 L1257.0,128.8 L1276.8,137.1 L1296.2,146.9 L1314.6,158.5 L1331.2,172.0 L1345.1,187.5 L1355.6,204.5 L1362.3,222.8 L1364.9,241.6 L1363.7,260.5 L1359.0,278.9 L1351.4,296.5 L1341.6,313.0 L1330.3,328.4 L1317.8,342.9 L1304.7,356.5 L1290.9,369.3 L1276.4,381.6 L1261.2,393.3 L1245.0,404.3 L1227.7,414.4 L1209.1,423.4 L1189.3,431.1 L1168.4,437.2 L1146.6,441.5 L1124.2,443.8 L1101.5,444.1 L1078.9,442.4 L1056.6,438.7 L1034.9,433.0 L1014.2,425.5 L994.6,416.3 L976.5,405.6 L960.0,393.5 L945.3,380.1 L932.6,365.6 L921.9,350.3 Z" fill="none" stroke="currentColor" stroke-width="1.1" vector-effect="non-scaling-stroke"/>
<path d="M961.8,17.3 L992.9,4.9 L1026.6,-1.8 L1061.7,-2.3 L1096.2,3.2 L1128.7,13.6 L1158.3,26.9 L1185.0,41.0 L1209.8,53.9 L1234.2,64.5 L1259.9,72.5 L1288.1,78.9 L1319.0,85.0 L1351.7,92.9 L1384.1,104.1 L1413.8,119.7 L1438.1,139.9 L1455.0,164.0 L1463.7,190.6 L1464.6,218.1 L1459.0,245.2 L1449.0,271.0 L1436.8,295.1 L1424.1,317.9 L1411.6,339.8 L1399.3,361.3 L1386.5,382.5 L1371.9,403.2 L1354.7,422.7 L1334.1,440.3 L1310.2,455.1 L1283.6,466.7 L1255.2,474.9 L1226.1,480.3 L1197.0,483.4 L1168.4,485.1 L1140.2,485.8 L1112.3,485.9 L1084.3,485.1 L1056.2,483.0 L1028.1,479.0 L1000.6,472.5 L974.2,463.5 L949.3,452.0 L926.2,438.3 L904.8,423.0 L884.7,406.5 L865.6,388.9 L847.4,370.3 L830.2,350.5 L814.8,329.2 L802.2,306.3 L793.5,282.1 L789.6,257.0 L791.0,231.7 L797.4,206.8 L808.0,182.9 L821.6,160.1 L837.2,138.3 L853.7,116.9 L871.2,95.7 L889.8,74.4 L910.6,53.6 L934.4,34.1 L961.8,17.3 Z" fill="none" stroke="currentColor" stroke-width="1.1" vector-effect="non-scaling-stroke"/>
<path d="M857.0,415.0 L834.9,396.3 L816.1,375.1 L801.1,352.0 L789.7,327.6 L781.5,302.2 L776.0,276.3 L772.9,249.8 L772.1,222.8 L774.5,195.5 L780.8,168.3 L792.2,142.0 L809.2,117.6 L831.9,96.1 L859.4,78.5 L890.4,65.1 L922.9,55.3 L955.3,48.0 L986.4,41.7 L1015.9,34.5 L1044.5,25.4 L1073.6,14.0 L1104.6,1.0 L1138.6,-11.8 L1175.7,-22.1 L1214.9,-27.2 L1254.1,-25.1 L1290.7,-15.0 L1322.1,3.0 L1346.8,27.2 L1364.0,55.4 L1374.9,85.0 L1381.5,113.8 L1386.6,140.3 L1392.7,164.3 L1401.8,186.2 L1414.2,207.4 L1428.9,229.1 L1443.9,252.5 L1456.4,277.8 L1463.8,304.7 L1464.2,332.2 L1457.0,359.1 L1442.3,384.0 L1421.7,406.1 L1396.8,425.3 L1369.6,441.7 L1341.4,455.8 L1312.9,468.3 L1284.3,479.5 L1255.4,489.4 L1226.0,497.6 L1195.9,503.7 L1165.1,507.0 L1134.3,507.4 L1103.8,504.9 L1074.1,499.9 L1045.4,493.1 L1017.5,485.1 L990.1,476.4 L962.8,467.0 L935.4,456.8 L908.2,445.0 L881.8,431.3 L857.0,415.0 Z" fill="none" stroke="currentColor" stroke-width="1.1" vector-effect="non-scaling-stroke"/>
<path d="M933.3,493.3 L906.2,477.1 L881.7,458.7 L860.1,438.4 L841.4,416.6 L825.8,393.6 L812.9,369.8 L802.6,345.4 L794.5,320.7 L788.3,295.6 L784.0,270.1 L781.7,244.2 L782.0,217.9 L785.8,191.5 L793.6,165.4 L806.0,140.3 L823.2,117.0 L844.7,95.9 L869.6,77.6 L896.8,61.6 L925.2,47.6 L953.9,34.5 L982.6,21.4 L1011.8,7.4 L1042.3,-7.7 L1075.1,-23.3 L1111.0,-38.2 L1150.3,-50.5 L1192.2,-58.2 L1235.3,-59.3 L1277.2,-52.6 L1315.4,-37.8 L1347.7,-15.7 L1372.7,12.1 L1390.0,43.4 L1400.4,75.8 L1405.8,107.5 L1408.4,137.0 L1410.6,163.9 L1414.1,188.6 L1419.5,211.9 L1426.7,234.8 L1434.4,258.3 L1440.8,282.8 L1444.1,308.2 L1442.7,334.0 L1436.0,359.4 L1423.7,383.6 L1406.4,405.9 L1385.3,425.9 L1361.5,443.8 L1335.8,459.7 L1309.1,474.0 L1281.6,487.1 L1253.2,499.1 L1223.7,509.9 L1193.0,519.1 L1161.0,526.2 L1127.9,530.7 L1094.2,532.3 L1060.2,530.7 L1026.6,525.9 L993.9,517.9 L962.7,507.0 L933.3,493.3 Z" fill="none" stroke="currentColor" stroke-width="1.1" vector-effect="non-scaling-stroke"/>
<path d="M1318.7,907.3 L1316.3,907.8 L1313.8,908.2 L1311.2,908.3 L1308.7,908.2 L1306.1,907.9 L1303.7,907.3 L1301.3,906.6 L1299.0,905.7 L1296.9,904.6 L1294.9,903.3 L1293.1,901.9 L1291.5,900.3 L1290.1,898.7 L1289.0,896.9 L1288.1,895.1 L1287.4,893.2 L1286.9,891.3 L1286.6,889.3 L1286.5,887.4 L1286.6,885.4 L1286.9,883.5 L1287.4,881.5 L1288.1,879.6 L1289.0,877.7 L1290.2,875.9 L1291.7,874.2 L1293.4,872.6 L1295.4,871.2 L1297.6,870.1 L1300.0,869.2 L1302.5,868.5 L1305.1,868.0 L1307.7,867.8 L1310.2,867.9 L1312.8,868.0 L1315.2,868.4 L1317.7,868.9 L1320.0,869.5 L1322.3,870.2 L1324.5,871.0 L1326.7,871.9 L1328.8,873.0 L1330.8,874.2 L1332.7,875.6 L1334.4,877.1 L1335.9,878.7 L1337.2,880.6 L1338.1,882.5 L1338.7,884.5 L1339.0,886.6 L1338.9,888.6 L1338.5,890.7 L1337.8,892.6 L1336.8,894.5 L1335.6,896.3 L1334.2,897.9 L1332.7,899.5 L1331.0,900.9 L1329.2,902.3 L1327.4,903.5 L1325.4,904.7 L1323.3,905.7 L1321.0,906.6 L1318.7,907.3 Z" fill="none" stroke="currentColor" stroke-width="1.1" vector-effect="non-scaling-stroke"/>
<path d="M1250.0,891.6 L1249.1,886.9 L1249.1,882.0 L1250.1,877.2 L1252.2,872.7 L1255.1,868.4 L1258.8,864.6 L1263.0,861.1 L1267.4,858.1 L1272.0,855.3 L1276.7,852.8 L1281.4,850.4 L1286.1,848.1 L1291.1,845.9 L1296.3,844.1 L1301.8,842.6 L1307.5,841.5 L1313.4,841.0 L1319.3,841.1 L1325.2,841.7 L1331.0,842.9 L1336.6,844.6 L1341.9,846.7 L1346.9,849.2 L1351.5,852.2 L1355.7,855.4 L1359.4,859.0 L1362.6,862.9 L1365.2,867.1 L1367.2,871.3 L1368.8,875.7 L1370.0,880.1 L1370.9,884.5 L1371.6,889.1 L1371.9,893.7 L1371.9,898.4 L1371.4,903.2 L1370.2,908.1 L1368.2,912.8 L1365.3,917.2 L1361.5,921.2 L1356.9,924.6 L1351.6,927.5 L1346.0,929.7 L1340.2,931.5 L1334.3,932.9 L1328.4,934.1 L1322.6,935.1 L1316.6,936.0 L1310.5,936.7 L1304.3,937.1 L1298.0,937.0 L1291.7,936.2 L1285.6,934.6 L1279.9,932.3 L1274.9,929.2 L1270.5,925.6 L1266.7,921.7 L1263.6,917.6 L1260.8,913.4 L1258.2,909.2 L1255.8,905.0 L1253.6,900.7 L1251.6,896.2 L1250.0,891.6 Z" fill="none" stroke="currentColor" stroke-width="1.1" vector-effect="non-scaling-stroke"/>
<path d="M1195.8,900.2 L1197.2,891.2 L1199.8,882.6 L1203.4,874.3 L1207.5,866.5 L1211.8,858.9 L1216.4,851.6 L1221.3,844.4 L1226.7,837.3 L1232.7,830.5 L1239.6,824.0 L1247.3,818.1 L1256.0,813.0 L1265.5,808.7 L1275.7,805.5 L1286.3,803.2 L1297.1,801.9 L1308.0,801.5 L1318.8,802.0 L1329.6,803.2 L1340.1,805.1 L1350.3,807.8 L1360.2,811.1 L1369.7,815.0 L1378.8,819.6 L1387.3,824.9 L1395.2,830.7 L1402.3,837.2 L1408.6,844.2 L1413.9,851.7 L1418.1,859.6 L1421.1,867.9 L1422.8,876.3 L1423.1,884.9 L1422.3,893.3 L1420.4,901.7 L1417.6,909.8 L1414.1,917.7 L1410.1,925.4 L1405.5,933.0 L1400.5,940.6 L1394.8,948.1 L1388.2,955.3 L1380.5,962.1 L1371.7,968.1 L1361.8,973.0 L1350.9,976.5 L1339.4,978.3 L1327.7,978.6 L1316.1,977.4 L1305.1,975.1 L1294.6,972.0 L1284.7,968.6 L1275.2,965.1 L1265.8,961.7 L1256.3,958.3 L1246.6,954.9 L1236.8,951.1 L1227.0,946.5 L1217.9,941.0 L1209.8,934.4 L1203.3,926.8 L1198.7,918.3 L1196.3,909.4 L1195.8,900.2 Z" fill="none" stroke="currentColor" stroke-width="1.1" vector-effect="non-scaling-stroke"/>
<path d="M1442.7,827.0 L1449.0,837.5 L1453.6,848.5 L1456.7,859.8 L1458.5,871.1 L1459.6,882.4 L1460.0,893.7 L1460.0,905.2 L1459.2,916.8 L1457.2,928.6 L1453.6,940.3 L1447.8,951.6 L1439.7,961.9 L1429.3,971.0 L1417.0,978.5 L1403.6,984.4 L1389.5,989.0 L1375.4,992.7 L1361.5,996.1 L1347.8,999.6 L1333.9,1003.5 L1319.4,1007.5 L1304.2,1011.2 L1288.0,1013.9 L1271.2,1014.7 L1254.5,1013.1 L1238.8,1008.6 L1224.7,1001.4 L1213.1,991.9 L1203.9,980.9 L1197.0,969.2 L1191.8,957.5 L1187.3,946.2 L1182.9,935.6 L1178.0,925.3 L1172.7,915.2 L1167.2,904.7 L1162.4,893.7 L1159.1,882.1 L1158.1,870.1 L1159.9,858.2 L1164.6,846.8 L1171.9,836.2 L1181.1,826.7 L1191.6,818.3 L1202.7,810.6 L1214.0,803.6 L1225.4,796.9 L1237.1,790.4 L1249.1,784.2 L1261.9,778.6 L1275.5,774.0 L1289.8,770.6 L1304.6,768.8 L1319.6,768.7 L1334.5,770.1 L1349.1,772.9 L1363.1,776.7 L1376.7,781.4 L1389.8,786.9 L1402.3,793.1 L1414.2,800.2 L1425.0,808.2 L1434.7,817.1 L1442.7,827.0 Z" fill="none" stroke="currentColor" stroke-width="1.1" vector-effect="non-scaling-stroke"/>
<path d="M1472.6,806.5 L1481.4,819.5 L1487.9,833.2 L1492.1,847.3 L1494.2,861.6 L1494.4,875.8 L1493.2,889.8 L1490.7,903.5 L1487.3,917.0 L1483.0,930.3 L1477.5,943.4 L1470.7,956.2 L1462.4,968.5 L1452.3,980.2 L1440.5,990.8 L1427.1,1000.3 L1412.4,1008.5 L1396.7,1015.4 L1380.2,1021.2 L1363.2,1025.9 L1345.7,1029.7 L1327.9,1032.4 L1309.6,1034.2 L1291.1,1034.6 L1272.4,1033.6 L1254.0,1030.8 L1236.1,1026.0 L1219.2,1019.4 L1203.7,1011.0 L1189.9,1001.1 L1177.7,990.1 L1167.1,978.4 L1157.9,966.1 L1149.9,953.5 L1143.0,940.7 L1137.2,927.5 L1132.6,914.0 L1129.5,900.2 L1128.1,886.2 L1128.8,872.1 L1131.7,858.2 L1136.5,844.6 L1143.3,831.5 L1151.6,819.1 L1161.1,807.2 L1171.7,795.9 L1183.3,785.0 L1195.9,774.7 L1209.5,765.1 L1224.4,756.3 L1240.6,748.6 L1258.0,742.6 L1276.3,738.3 L1295.3,736.1 L1314.5,735.8 L1333.5,737.5 L1352.0,740.7 L1370.0,745.3 L1387.3,751.1 L1404.0,757.8 L1419.9,765.4 L1435.0,774.0 L1449.1,783.7 L1461.8,794.6 L1472.6,806.5 Z" fill="none" stroke="currentColor" stroke-width="1.1" vector-effect="non-scaling-stroke"/>
<path d="M1368.9,707.5 L1390.8,713.9 L1411.8,721.6 L1432.0,730.4 L1451.2,740.3 L1469.3,751.5 L1485.8,764.1 L1500.1,778.2 L1511.5,793.8 L1519.8,810.5 L1524.8,827.8 L1527.2,845.2 L1527.6,862.3 L1527.0,879.1 L1526.1,895.5 L1525.5,912.0 L1525.0,928.9 L1523.9,946.4 L1521.4,964.4 L1516.2,982.6 L1507.6,1000.2 L1495.1,1016.4 L1478.9,1030.5 L1459.7,1042.0 L1438.3,1050.8 L1415.8,1057.4 L1393.0,1062.2 L1370.2,1066.0 L1347.4,1069.2 L1324.6,1072.0 L1301.3,1074.2 L1277.4,1075.3 L1253.2,1074.3 L1229.2,1070.8 L1206.3,1064.2 L1185.2,1054.6 L1166.6,1042.3 L1150.6,1028.1 L1137.1,1012.7 L1125.5,996.8 L1115.1,980.9 L1105.4,965.1 L1096.0,949.1 L1087.4,932.7 L1080.2,915.6 L1075.5,897.8 L1074.2,879.7 L1077.0,861.6 L1084.0,844.2 L1094.7,828.2 L1108.3,813.6 L1123.4,800.7 L1139.1,788.9 L1154.6,777.7 L1169.7,766.5 L1184.6,755.1 L1199.9,743.4 L1216.3,731.8 L1234.4,721.1 L1254.5,712.0 L1276.3,705.3 L1299.3,701.5 L1322.8,700.8 L1346.2,703.0 L1368.9,707.5 Z" fill="none" stroke="currentColor" stroke-width="1.1" vector-effect="non-scaling-stroke"/>
<path d="M1069.8,896.6 L1070.5,878.0 L1071.5,859.5 L1073.1,840.6 L1075.7,821.3 L1080.5,801.8 L1088.5,782.6 L1100.5,764.7 L1116.8,749.0 L1136.9,736.2 L1160.0,726.9 L1184.8,721.1 L1210.0,718.2 L1234.7,717.4 L1258.2,717.6 L1280.5,718.2 L1302.1,718.5 L1323.5,718.6 L1345.0,719.0 L1366.7,720.3 L1388.5,723.2 L1409.8,728.3 L1430.1,735.7 L1448.9,745.1 L1466.4,756.2 L1482.6,768.3 L1498.1,781.2 L1513.4,794.6 L1528.8,808.8 L1544.1,824.0 L1558.4,840.6 L1570.6,858.9 L1579.3,878.5 L1583.2,899.2 L1581.6,920.0 L1574.4,940.1 L1562.3,958.7 L1546.5,975.4 L1528.5,990.1 L1509.5,1003.1 L1490.5,1015.2 L1472.0,1026.7 L1453.7,1038.2 L1435.0,1049.4 L1415.3,1060.0 L1394.2,1069.3 L1371.6,1076.5 L1347.7,1080.8 L1323.3,1082.1 L1299.0,1080.3 L1275.3,1076.0 L1252.6,1070.0 L1230.9,1062.8 L1209.7,1055.1 L1188.8,1046.9 L1168.1,1038.1 L1147.8,1028.3 L1128.4,1016.8 L1110.8,1003.5 L1095.9,988.2 L1084.4,971.1 L1076.5,952.9 L1072.0,934.2 L1070.1,915.3 L1069.8,896.6 Z" fill="none" stroke="currentColor" stroke-width="1.1" vector-effect="non-scaling-stroke"/>
<path d="M519.4,966.6 L518.9,964.7 L518.6,962.7 L518.4,960.7 L518.4,958.8 L518.5,956.8 L518.7,954.8 L519.2,952.8 L519.9,950.8 L520.9,948.9 L522.3,947.1 L524.0,945.5 L526.1,944.2 L528.4,943.2 L530.9,942.5 L533.4,942.0 L535.9,941.7 L538.4,941.5 L540.8,941.4 L543.1,941.4 L545.5,941.4 L547.8,941.5 L550.1,941.8 L552.5,942.2 L554.7,942.8 L556.9,943.7 L558.9,944.7 L560.8,945.9 L562.6,947.2 L564.2,948.6 L565.8,950.1 L567.3,951.7 L568.7,953.4 L569.9,955.2 L570.9,957.1 L571.6,959.2 L571.9,961.3 L571.7,963.5 L571.0,965.5 L569.9,967.5 L568.4,969.3 L566.8,970.9 L564.9,972.4 L563.0,973.7 L561.0,975.0 L559.0,976.2 L556.9,977.3 L554.8,978.4 L552.5,979.3 L550.1,980.0 L547.6,980.5 L545.0,980.8 L542.4,980.8 L539.8,980.5 L537.2,980.0 L534.8,979.3 L532.4,978.5 L530.2,977.5 L528.0,976.4 L526.0,975.1 L524.2,973.7 L522.6,972.1 L521.3,970.3 L520.2,968.5 L519.4,966.6 Z" fill="none" stroke="currentColor" stroke-width="1.1" vector-effect="non-scaling-stroke"/>
<path d="M564.3,1005.6 L558.6,1007.1 L552.6,1008.0 L546.5,1008.3 L540.4,1008.1 L534.4,1007.4 L528.6,1006.3 L522.9,1004.7 L517.4,1002.9 L512.1,1000.7 L507.0,998.2 L502.1,995.4 L497.7,992.2 L493.6,988.6 L490.1,984.7 L487.2,980.5 L484.9,976.0 L483.4,971.4 L482.5,966.7 L482.3,961.9 L482.6,957.2 L483.3,952.5 L484.3,947.9 L485.8,943.3 L487.6,938.7 L489.8,934.2 L492.6,929.7 L496.0,925.5 L500.0,921.5 L504.8,918.0 L510.1,915.0 L516.0,912.7 L522.2,911.1 L528.6,910.2 L535.1,910.1 L541.4,910.5 L547.6,911.5 L553.5,912.7 L559.2,914.3 L564.8,916.0 L570.2,917.8 L575.5,919.8 L580.8,922.0 L586.1,924.4 L591.2,927.2 L596.0,930.5 L600.3,934.2 L603.9,938.4 L606.8,943.0 L608.7,947.8 L609.6,952.9 L609.5,957.9 L608.5,962.9 L606.8,967.7 L604.5,972.3 L601.7,976.6 L598.6,980.6 L595.3,984.5 L591.8,988.2 L588.0,991.7 L584.0,995.0 L579.7,998.2 L574.9,1001.1 L569.8,1003.5 L564.3,1005.6 Z" fill="none" stroke="currentColor" stroke-width="1.1" vector-effect="non-scaling-stroke"/>
<path d="M576.0,882.7 L585.2,886.1 L594.4,889.4 L603.9,892.6 L613.7,896.1 L623.6,900.1 L633.1,905.0 L641.8,910.9 L649.1,918.0 L654.5,926.0 L657.8,934.8 L659.1,943.8 L658.5,952.8 L656.5,961.5 L653.5,969.9 L649.8,977.9 L645.8,985.6 L641.4,993.0 L636.5,1000.2 L631.1,1007.1 L624.9,1013.6 L617.8,1019.6 L609.9,1024.9 L601.2,1029.4 L592.0,1033.1 L582.4,1036.0 L572.6,1038.4 L562.6,1040.1 L552.4,1041.4 L542.2,1042.1 L531.8,1042.2 L521.3,1041.5 L511.0,1039.9 L500.9,1037.4 L491.3,1033.8 L482.4,1029.2 L474.4,1023.9 L467.1,1017.9 L460.7,1011.5 L454.9,1004.7 L449.6,997.7 L445.0,990.4 L440.9,982.9 L437.7,975.0 L435.4,966.9 L434.3,958.5 L434.5,950.1 L435.9,941.7 L438.6,933.5 L442.3,925.5 L446.9,917.8 L452.1,910.3 L458.0,903.0 L464.6,895.9 L472.1,889.2 L480.5,883.0 L490.0,877.8 L500.4,873.7 L511.6,871.1 L523.2,870.1 L534.7,870.7 L545.9,872.7 L556.6,875.6 L566.5,879.1 L576.0,882.7 Z" fill="none" stroke="currentColor" stroke-width="1.1" vector-effect="non-scaling-stroke"/>
<path d="M609.9,1066.6 L597.0,1072.9 L582.9,1077.5 L568.0,1080.1 L552.7,1080.8 L537.6,1079.7 L522.9,1077.1 L508.7,1073.4 L495.2,1069.0 L482.1,1064.1 L469.3,1058.8 L456.9,1053.0 L444.8,1046.6 L433.4,1039.3 L423.1,1031.0 L414.4,1021.6 L407.6,1011.3 L403.2,1000.2 L401.1,988.8 L401.1,977.4 L402.9,966.2 L405.7,955.5 L409.3,945.2 L413.0,935.2 L416.9,925.3 L420.8,915.4 L425.2,905.4 L430.3,895.3 L436.7,885.3 L444.7,875.8 L454.4,867.2 L465.7,859.8 L478.6,854.1 L492.5,850.2 L506.9,848.0 L521.5,847.6 L535.9,848.5 L549.9,850.5 L563.3,853.4 L576.1,856.7 L588.6,860.4 L600.9,864.4 L613.0,868.7 L625.1,873.4 L637.1,878.7 L648.9,884.7 L660.1,891.8 L670.4,899.9 L679.3,909.1 L686.4,919.3 L691.3,930.3 L693.8,941.8 L693.9,953.4 L691.7,964.8 L687.7,975.8 L682.3,986.2 L675.9,996.0 L669.2,1005.3 L662.3,1014.4 L655.2,1023.4 L647.9,1032.4 L640.1,1041.5 L631.4,1050.5 L621.3,1059.0 L609.9,1066.6 Z" fill="none" stroke="currentColor" stroke-width="1.1" vector-effect="non-scaling-stroke"/>
<path d="M706.0,916.1 L707.1,929.4 L707.4,942.3 L707.6,954.9 L708.4,967.5 L709.7,980.4 L711.0,993.9 L711.6,1008.2 L710.4,1022.9 L706.3,1037.5 L698.7,1051.2 L687.5,1063.4 L673.2,1073.3 L656.6,1080.8 L638.8,1086.0 L620.7,1089.6 L602.9,1092.2 L585.5,1094.7 L568.5,1097.5 L551.2,1100.6 L533.2,1103.6 L514.5,1105.7 L495.2,1106.1 L476.1,1103.8 L457.9,1098.6 L441.7,1090.4 L427.9,1079.7 L416.8,1067.4 L407.9,1054.4 L400.4,1041.4 L393.5,1028.9 L386.5,1016.7 L378.9,1004.7 L371.1,992.4 L363.9,979.5 L358.5,965.8 L355.9,951.4 L357.1,937.0 L362.3,923.1 L371.2,910.4 L383.0,899.1 L396.3,889.5 L410.2,881.1 L423.7,873.4 L436.5,865.7 L448.6,857.7 L460.5,849.1 L473.1,840.1 L486.7,831.4 L501.9,823.6 L518.6,817.5 L536.5,813.6 L555.1,812.1 L573.7,813.1 L592.0,816.3 L609.6,821.2 L626.3,827.5 L642.1,835.1 L656.7,843.7 L670.1,853.5 L681.8,864.4 L691.4,876.4 L698.6,889.3 L703.3,902.6 L706.0,916.1 Z" fill="none" stroke="currentColor" stroke-width="1.1" vector-effect="non-scaling-stroke"/>
<path d="M695.9,1115.1 L673.9,1123.7 L651.4,1130.8 L628.7,1136.6 L605.8,1141.4 L582.7,1145.3 L559.3,1148.1 L535.5,1149.7 L511.5,1149.7 L487.3,1147.7 L463.6,1143.5 L440.6,1137.0 L419.0,1128.1 L399.0,1117.1 L381.0,1104.4 L364.9,1090.3 L350.7,1075.2 L338.0,1059.4 L326.8,1043.1 L316.7,1026.3 L307.8,1008.9 L300.4,991.0 L294.8,972.3 L291.5,953.1 L291.1,933.6 L293.8,914.1 L300.0,894.9 L309.6,876.7 L322.5,859.7 L338.1,844.4 L356.0,830.8 L375.6,819.1 L396.5,809.3 L418.1,801.3 L440.3,795.0 L462.7,790.3 L485.1,787.1 L507.5,785.3 L529.8,784.9 L551.8,785.8 L573.5,788.0 L594.9,791.3 L615.9,795.9 L636.6,801.6 L656.7,808.5 L676.4,816.6 L695.4,825.9 L713.6,836.7 L730.8,848.7 L746.7,862.2 L761.1,876.9 L773.8,893.0 L784.4,910.2 L792.9,928.4 L798.8,947.4 L801.9,967.0 L802.2,986.9 L799.2,1006.9 L792.9,1026.4 L783.4,1045.1 L770.7,1062.6 L755.1,1078.5 L737.1,1092.6 L717.2,1104.8 L695.9,1115.1 Z" fill="none" stroke="currentColor" stroke-width="1.1" vector-effect="non-scaling-stroke"/>
<path d="M787.2,977.0 L781.0,995.1 L773.0,1012.5 L763.9,1029.3 L754.1,1045.8 L743.6,1062.1 L732.3,1078.4 L719.6,1094.6 L705.0,1110.4 L688.1,1125.1 L668.6,1138.0 L646.5,1148.5 L622.5,1155.7 L597.2,1159.5 L571.5,1159.8 L546.2,1157.0 L521.9,1151.8 L498.9,1145.1 L477.1,1137.5 L456.1,1129.7 L435.3,1122.0 L414.5,1114.1 L393.5,1105.6 L372.5,1096.1 L352.4,1084.8 L333.9,1071.5 L318.3,1056.1 L306.4,1038.7 L298.8,1019.8 L295.6,1000.3 L296.6,980.7 L301.0,961.6 L307.7,943.5 L316.0,926.2 L325.0,909.8 L334.2,893.9 L343.7,878.2 L353.8,862.7 L364.9,847.4 L377.8,832.6 L392.7,818.8 L410.0,806.5 L429.6,796.4 L450.9,789.0 L473.5,784.3 L496.6,782.4 L519.7,783.0 L542.1,785.6 L563.6,789.7 L584.2,794.7 L604.2,800.3 L623.7,806.2 L643.1,812.3 L662.6,818.9 L682.3,826.2 L702.1,834.5 L721.4,844.4 L739.7,856.1 L756.3,869.6 L770.2,885.1 L781.0,902.2 L788.0,920.4 L791.3,939.3 L790.8,958.3 L787.2,977.0 Z" fill="none" stroke="currentColor" stroke-width="1.1" vector-effect="non-scaling-stroke"/>
<path d="M715.5,702.1 L745.1,718.8 L771.1,738.6 L793.2,760.7 L811.3,784.5 L825.5,809.3 L836.3,834.5 L844.3,859.6 L850.1,884.3 L854.5,908.7 L857.9,932.8 L860.3,956.9 L861.7,981.3 L861.3,1006.1 L858.4,1031.1 L852.2,1056.1 L841.9,1080.5 L827.2,1103.7 L808.0,1124.8 L785.0,1143.4 L758.8,1159.1 L730.5,1172.0 L701.0,1182.5 L671.0,1191.0 L640.8,1198.3 L610.4,1204.5 L579.6,1209.9 L548.0,1214.2 L515.7,1216.8 L482.7,1217.0 L449.6,1214.0 L417.2,1207.3 L386.5,1196.8 L358.3,1182.6 L333.2,1165.4 L311.4,1146.0 L292.4,1125.1 L275.9,1103.5 L261.0,1081.5 L247.3,1059.2 L234.6,1036.5 L223.2,1013.0 L213.6,988.6 L207.0,963.3 L204.3,937.2 L206.2,911.0 L213.1,885.2 L225.1,860.6 L241.4,837.6 L261.3,816.6 L283.6,797.5 L307.5,780.1 L332.4,763.9 L358.0,748.6 L384.5,734.0 L412.0,719.9 L441.1,706.7 L472.0,694.8 L504.9,685.1 L539.5,678.1 L575.5,674.7 L611.9,675.2 L648.1,679.9 L682.9,689.0 L715.5,702.1 Z" fill="none" stroke="currentColor" stroke-width="1.1" vector-effect="non-scaling-stroke"/>
<path d="M270.8,1078.9 L251.5,1059.4 L234.0,1038.1 L218.9,1015.2 L207.1,990.7 L199.4,964.8 L196.6,938.2 L199.1,911.5 L206.8,885.3 L219.4,860.4 L236.1,837.1 L256.2,815.8 L278.7,796.3 L303.1,778.7 L328.7,762.8 L355.6,748.4 L383.5,735.6 L412.6,724.6 L442.8,715.6 L473.9,708.9 L505.8,704.9 L538.1,703.7 L570.3,705.2 L602.0,709.2 L632.9,715.6 L663.0,724.1 L691.9,734.4 L719.8,746.6 L746.2,760.6 L771.0,776.4 L793.8,794.1 L814.2,813.6 L831.7,834.8 L846.1,857.4 L857.2,881.1 L865.3,905.5 L870.4,930.3 L872.8,955.4 L872.6,980.6 L869.8,1005.8 L864.1,1030.9 L855.2,1055.5 L842.8,1079.2 L826.5,1101.6 L806.3,1121.9 L782.6,1139.5 L755.9,1154.2 L727.1,1165.6 L697.0,1173.9 L666.6,1179.5 L636.3,1182.9 L606.7,1184.6 L577.7,1185.1 L549.2,1184.6 L521.0,1183.1 L493.0,1180.5 L465.3,1176.4 L437.8,1170.6 L410.9,1162.9 L384.8,1153.3 L359.8,1141.7 L335.9,1128.3 L313.1,1113.3 L291.4,1096.9 L270.8,1078.9 Z" fill="none" stroke="currentColor" stroke-width="1.1" vector-effect="non-scaling-stroke"/>
<path d="M130.8,1135.5 L115.3,1101.6 L110.4,1065.5 L114.4,1029.4 L124.4,994.8 L136.5,962.5 L147.6,932.0 L155.7,902.2 L160.8,871.9 L164.9,840.2 L171.0,807.4 L182.3,774.7 L201.3,744.1 L228.7,717.9 L263.7,697.9 L304.1,684.6 L346.7,677.4 L389.0,674.4 L429.3,673.1 L467.3,671.0 L504.0,666.6 L541.0,660.0 L579.7,652.5 L620.7,646.4 L663.2,644.6 L705.5,649.1 L745.0,661.1 L779.7,680.1 L808.5,704.6 L831.6,732.1 L850.8,760.5 L868.6,787.9 L887.6,814.0 L909.2,839.4 L933.4,865.3 L958.3,893.1 L980.5,923.8 L996.5,957.2 L1003.0,992.4 L998.4,1027.6 L983.0,1061.0 L959.0,1091.1 L929.8,1117.8 L898.8,1141.8 L868.7,1164.6 L840.8,1187.9 L814.5,1213.0 L788.0,1240.1 L758.8,1267.7 L725.1,1293.6 L685.9,1314.9 L642.0,1329.0 L595.0,1334.2 L547.7,1330.5 L502.3,1319.4 L460.0,1303.4 L420.9,1285.6 L384.0,1268.2 L347.2,1252.6 L309.3,1238.7 L269.6,1225.0 L229.2,1209.5 L190.4,1190.0 L156.6,1165.4 L130.8,1135.5 Z" fill="none" stroke="currentColor" stroke-width="1.1" vector-effect="non-scaling-stroke"/>
<path d="M706.0,1242.7 L665.0,1242.7 L626.1,1241.0 L589.2,1239.0 L553.8,1237.4 L519.0,1236.2 L484.0,1234.8 L448.7,1231.9 L413.3,1226.7 L378.5,1218.4 L345.1,1206.6 L313.5,1191.8 L283.7,1174.5 L255.2,1155.5 L227.3,1135.1 L199.4,1113.4 L171.3,1089.9 L143.9,1064.2 L118.6,1035.6 L97.8,1004.0 L83.7,969.9 L78.2,934.3 L82.4,898.7 L96.0,864.4 L117.6,832.9 L145.1,804.6 L176.0,779.4 L208.0,756.7 L239.7,735.4 L270.8,714.5 L301.8,693.5 L333.8,672.6 L367.8,652.6 L404.9,634.8 L445.0,620.8 L487.5,611.7 L531.5,608.2 L575.7,610.2 L618.9,616.9 L660.6,627.4 L700.5,640.6 L738.9,655.7 L775.9,672.4 L811.5,690.9 L845.2,711.7 L875.9,735.3 L902.4,761.8 L923.5,791.1 L938.5,822.5 L947.5,855.0 L951.4,887.6 L951.7,919.8 L949.9,951.3 L947.5,982.3 L945.0,1013.3 L941.9,1044.9 L936.9,1077.1 L928.2,1109.7 L913.9,1141.5 L892.7,1170.9 L864.4,1196.5 L829.6,1216.7 L790.2,1230.9 L748.2,1239.2 L706.0,1242.7 Z" fill="none" stroke="currentColor" stroke-width="1.1" vector-effect="non-scaling-stroke"/>
<path d="M821.0,581.0 L823.5,580.6 L826.1,580.3 L828.7,580.2 L831.2,580.2 L833.7,580.3 L836.1,580.5 L838.6,580.8 L841.0,581.4 L843.3,582.1 L845.6,583.0 L847.6,584.1 L849.5,585.4 L851.3,586.8 L853.0,588.3 L854.5,589.9 L855.9,591.6 L857.1,593.4 L858.1,595.3 L858.8,597.3 L859.1,599.3 L858.9,601.4 L858.3,603.4 L857.4,605.3 L856.1,607.1 L854.6,608.7 L853.1,610.2 L851.5,611.7 L850.0,613.1 L848.4,614.6 L846.8,616.1 L845.0,617.6 L843.0,618.9 L840.7,620.0 L838.2,620.7 L835.6,621.1 L832.9,621.0 L830.3,620.7 L827.7,620.1 L825.4,619.3 L823.1,618.4 L820.9,617.6 L818.7,616.7 L816.4,615.8 L814.2,614.8 L812.1,613.6 L810.1,612.2 L808.5,610.6 L807.3,608.7 L806.6,606.7 L806.4,604.7 L806.5,602.6 L806.8,600.6 L807.3,598.7 L807.7,596.9 L808.2,595.0 L808.7,593.1 L809.2,591.2 L809.9,589.3 L811.0,587.4 L812.3,585.6 L814.1,584.0 L816.1,582.7 L818.5,581.7 L821.0,581.0 Z" fill="none" stroke="currentColor" stroke-width="1.1" vector-effect="non-scaling-stroke"/>
<path d="M890.9,612.5 L888.5,616.8 L885.6,620.8 L882.6,624.7 L879.3,628.5 L875.9,632.3 L872.3,636.1 L868.3,639.8 L863.7,643.2 L858.5,646.0 L852.7,648.1 L846.5,649.2 L840.1,649.2 L833.8,648.2 L827.9,646.5 L822.4,644.4 L817.3,642.2 L812.5,640.1 L807.6,638.3 L802.4,636.8 L797.0,635.4 L791.2,633.8 L785.3,631.7 L779.8,629.0 L774.9,625.5 L771.2,621.3 L768.7,616.6 L767.7,611.5 L767.8,606.4 L768.8,601.4 L770.3,596.7 L772.1,592.1 L773.9,587.7 L775.8,583.3 L777.7,578.9 L780.0,574.6 L782.7,570.3 L786.1,566.3 L790.3,562.6 L795.0,559.5 L800.3,556.9 L806.0,554.8 L811.8,553.2 L817.8,551.9 L823.9,550.8 L830.1,550.1 L836.4,549.7 L842.9,549.7 L849.3,550.2 L855.6,551.5 L861.6,553.5 L867.1,556.3 L872.0,559.6 L876.2,563.4 L879.8,567.5 L882.9,571.8 L885.6,576.1 L888.0,580.4 L890.2,584.8 L892.0,589.3 L893.2,593.9 L893.9,598.6 L893.7,603.3 L892.7,608.0 L890.9,612.5 Z" fill="none" stroke="currentColor" stroke-width="1.1" vector-effect="non-scaling-stroke"/>
<path d="M928.9,587.2 L928.5,594.8 L927.8,602.2 L926.9,609.5 L925.8,616.8 L924.5,624.2 L922.7,631.8 L920.1,639.3 L916.3,646.7 L911.1,653.7 L904.4,659.9 L896.6,665.2 L887.8,669.4 L878.4,672.7 L868.7,675.1 L858.8,677.0 L849.0,678.3 L839.1,679.4 L829.0,680.0 L818.9,680.1 L808.6,679.5 L798.5,677.9 L788.7,675.2 L779.6,671.4 L771.2,666.7 L763.9,661.1 L757.4,654.9 L751.7,648.4 L746.6,641.8 L741.9,635.0 L737.7,628.0 L734.0,620.8 L731.1,613.3 L729.2,605.6 L728.6,597.7 L729.7,589.8 L732.3,582.2 L736.4,575.0 L741.5,568.3 L747.4,562.2 L753.6,556.5 L760.0,551.1 L766.4,545.8 L773.0,540.5 L779.9,535.2 L787.4,530.1 L795.7,525.6 L804.8,521.9 L814.5,519.2 L824.7,517.9 L835.1,517.8 L845.3,518.9 L855.2,520.9 L864.8,523.6 L874.0,526.9 L882.9,530.6 L891.5,534.7 L899.7,539.4 L907.3,544.6 L914.0,550.5 L919.7,557.1 L924.0,564.3 L926.9,571.8 L928.4,579.5 L928.9,587.2 Z" fill="none" stroke="currentColor" stroke-width="1.1" vector-effect="non-scaling-stroke"/>
<path d="M834.1,710.8 L820.1,711.1 L805.9,710.7 L791.8,709.2 L777.9,706.3 L764.6,701.9 L752.3,696.1 L741.1,689.0 L731.1,681.0 L722.2,672.4 L714.2,663.4 L706.7,654.1 L699.8,644.5 L693.5,634.5 L688.1,624.1 L684.2,613.1 L682.1,601.7 L682.2,590.2 L684.5,578.9 L688.9,567.9 L694.9,557.5 L701.9,547.7 L709.6,538.2 L717.6,528.9 L726.0,519.7 L735.1,510.6 L745.2,501.9 L756.8,494.1 L769.9,487.8 L784.4,483.8 L799.7,482.4 L815.1,483.7 L829.9,487.3 L843.5,492.5 L855.9,498.5 L867.2,504.3 L878.2,509.3 L889.4,513.2 L901.6,516.1 L915.0,518.7 L929.5,521.7 L944.3,525.9 L958.4,532.0 L970.7,540.1 L980.2,550.1 L986.2,561.6 L988.6,573.8 L988.0,586.2 L985.1,598.2 L980.7,609.7 L975.8,620.6 L970.7,631.1 L965.7,641.4 L960.4,651.6 L954.3,661.7 L947.1,671.5 L938.3,680.5 L927.9,688.4 L916.0,695.0 L903.1,700.1 L889.5,703.9 L875.7,706.6 L861.8,708.5 L848.0,709.9 L834.1,710.8 Z" fill="none" stroke="currentColor" stroke-width="1.1" vector-effect="non-scaling-stroke"/>
<path d="M664.5,644.7 L660.3,631.6 L658.5,618.1 L658.9,604.8 L661.1,591.6 L664.7,578.8 L669.5,566.4 L675.3,554.3 L682.0,542.7 L689.6,531.3 L698.3,520.4 L708.2,510.0 L719.4,500.3 L731.8,491.5 L745.4,483.6 L760.1,477.0 L775.7,471.6 L791.9,467.4 L808.7,464.7 L825.8,463.2 L843.1,463.1 L860.3,464.4 L877.2,467.1 L893.7,471.2 L909.5,476.7 L924.4,483.4 L938.3,491.4 L951.0,500.4 L962.4,510.4 L972.4,521.1 L981.0,532.5 L988.2,544.5 L993.7,556.8 L997.7,569.5 L1000.1,582.4 L1000.8,595.4 L999.9,608.3 L997.5,621.0 L993.6,633.4 L988.4,645.6 L982.1,657.4 L974.8,668.9 L966.3,680.0 L956.7,690.6 L945.8,700.7 L933.6,710.0 L920.0,718.2 L905.1,725.0 L889.1,730.2 L872.3,733.5 L855.2,734.9 L838.1,734.5 L821.3,732.6 L805.0,729.4 L789.3,725.4 L774.2,720.7 L759.4,715.6 L744.8,710.0 L730.5,703.7 L716.5,696.7 L703.1,688.6 L690.8,679.4 L679.9,668.9 L671.1,657.2 L664.5,644.7 Z" fill="none" stroke="currentColor" stroke-width="1.1" vector-effect="non-scaling-stroke"/>
<path d="M767.2,746.7 L749.2,740.9 L731.7,734.2 L714.7,726.5 L698.4,717.8 L683.0,707.9 L669.1,696.6 L657.0,684.0 L647.1,670.3 L639.6,655.7 L634.3,640.6 L631.0,625.2 L629.2,609.7 L628.6,594.1 L628.9,578.4 L629.9,562.5 L632.0,546.3 L635.6,529.8 L641.3,513.3 L649.6,497.1 L661.0,482.0 L675.3,468.4 L692.5,456.9 L711.9,447.9 L732.9,441.5 L754.7,437.6 L776.6,435.9 L798.2,436.0 L819.3,437.5 L839.6,440.1 L859.3,443.4 L878.5,447.5 L897.2,452.2 L915.6,457.8 L933.6,464.2 L951.1,471.5 L968.2,479.9 L984.7,489.4 L1000.5,500.0 L1015.3,511.9 L1028.7,525.2 L1040.2,539.7 L1049.3,555.4 L1055.3,572.0 L1057.9,589.2 L1056.7,606.5 L1051.8,623.3 L1043.6,639.3 L1032.8,653.9 L1020.1,667.3 L1006.3,679.3 L992.1,690.3 L977.8,700.6 L963.4,710.4 L948.9,719.9 L933.9,729.1 L918.0,737.6 L901.0,745.0 L882.9,750.9 L863.9,755.0 L844.3,757.1 L824.5,757.0 L804.9,755.1 L785.8,751.6 L767.2,746.7 Z" fill="none" stroke="currentColor" stroke-width="1.1" vector-effect="non-scaling-stroke"/>
<path d="M997.9,751.1 L981.3,766.6 L962.1,780.6 L940.0,791.8 L915.4,799.1 L889.1,801.6 L862.6,799.2 L837.2,792.5 L813.9,782.8 L793.0,771.8 L774.1,761.2 L756.0,752.2 L737.3,745.6 L716.7,740.9 L693.8,737.2 L668.7,732.9 L642.6,726.6 L617.5,717.0 L595.6,703.7 L578.7,686.8 L568.1,667.2 L564.0,646.2 L565.6,624.9 L571.4,604.3 L579.8,584.8 L589.1,566.5 L598.4,548.9 L607.3,531.7 L616.2,514.6 L626.1,497.5 L637.7,480.9 L651.9,465.3 L668.9,451.5 L688.4,439.9 L710.0,430.7 L732.8,423.8 L756.1,418.8 L779.6,415.1 L803.2,412.4 L826.9,410.5 L850.8,409.5 L875.1,409.9 L899.5,412.3 L923.4,417.0 L946.2,424.4 L967.4,434.5 L986.4,446.8 L1003.2,460.7 L1018.0,475.7 L1031.4,491.3 L1043.6,507.2 L1055.0,523.6 L1065.3,540.6 L1074.2,558.2 L1080.7,576.7 L1084.2,595.8 L1084.0,615.2 L1080.0,634.2 L1072.8,652.6 L1062.9,670.2 L1051.3,686.8 L1038.9,703.0 L1026.1,718.9 L1012.6,735.0 L997.9,751.1 Z" fill="none" stroke="currentColor" stroke-width="1.1" vector-effect="non-scaling-stroke"/>
<path d="M884.6,846.0 L853.2,846.1 L822.3,843.5 L792.2,838.6 L763.2,831.9 L735.0,824.0 L707.5,815.1 L680.4,805.5 L653.6,794.9 L627.0,782.9 L601.3,769.1 L577.0,753.1 L555.0,734.8 L536.1,714.3 L520.8,691.8 L509.3,667.9 L501.7,642.9 L497.7,617.5 L496.9,591.8 L499.2,566.2 L504.4,540.8 L512.8,515.9 L524.7,491.9 L540.4,469.1 L559.8,448.4 L583.0,430.2 L609.1,414.9 L637.4,402.9 L667.0,393.7 L696.8,387.1 L726.4,382.2 L755.4,378.5 L784.0,375.4 L812.5,372.8 L841.2,370.9 L870.3,370.2 L899.8,371.4 L929.3,375.3 L958.0,382.1 L985.3,392.1 L1010.6,405.0 L1033.5,420.2 L1054.2,437.2 L1073.1,455.2 L1090.7,474.1 L1107.5,493.6 L1123.7,514.0 L1139.0,535.4 L1152.6,558.3 L1163.5,582.7 L1170.6,608.2 L1172.9,634.6 L1169.9,661.0 L1161.4,686.8 L1147.9,711.2 L1130.2,733.8 L1109.2,754.4 L1085.7,773.0 L1060.5,789.7 L1033.8,804.5 L1006.0,817.5 L977.0,828.4 L946.9,837.0 L916.0,842.9 L884.6,846.0 Z" fill="none" stroke="currentColor" stroke-width="1.1" vector-effect="non-scaling-stroke"/>
<path d="M626.3,779.8 L607.8,761.0 L592.0,741.1 L578.7,720.5 L567.3,699.6 L557.5,678.5 L549.1,657.1 L542.0,635.3 L536.4,613.1 L532.8,590.3 L531.6,567.1 L533.3,543.6 L538.4,520.1 L547.1,497.0 L559.5,474.8 L575.4,454.0 L594.6,434.8 L616.6,417.5 L641.0,402.4 L667.3,389.4 L695.1,378.6 L723.9,370.0 L753.6,363.7 L783.8,359.5 L814.3,357.5 L844.8,357.6 L875.2,360.0 L905.1,364.7 L934.3,371.5 L962.5,380.5 L989.4,391.5 L1014.8,404.6 L1038.5,419.5 L1060.2,436.1 L1079.8,454.3 L1097.1,473.9 L1111.9,494.7 L1124.1,516.5 L1133.5,539.1 L1139.9,562.5 L1143.3,586.2 L1143.3,610.0 L1139.9,633.7 L1133.1,656.9 L1122.9,679.2 L1109.4,700.3 L1093.1,719.9 L1074.3,737.9 L1053.4,754.1 L1031.1,768.7 L1007.6,781.7 L983.2,793.4 L958.1,803.9 L932.3,813.4 L905.6,821.9 L877.9,829.1 L849.1,834.8 L819.4,838.4 L788.9,839.4 L758.2,837.5 L728.1,832.2 L699.2,823.6 L672.2,811.7 L647.8,796.9 L626.3,779.8 Z" fill="none" stroke="currentColor" stroke-width="1.1" vector-effect="non-scaling-stroke"/>
<path d="M1196.0,528.6 L1209.8,556.0 L1218.1,584.9 L1219.5,614.5 L1213.2,643.8 L1199.8,671.5 L1180.7,697.0 L1158.4,720.1 L1135.0,741.3 L1112.3,761.8 L1090.7,782.5 L1069.7,804.1 L1047.5,826.2 L1022.5,847.4 L993.5,865.7 L960.2,878.6 L923.6,884.1 L885.9,881.4 L849.4,870.9 L816.3,854.6 L787.5,835.6 L762.5,817.2 L739.5,802.3 L715.6,792.4 L688.2,787.5 L655.6,785.9 L617.6,784.9 L576.1,781.3 L534.4,772.6 L496.4,757.2 L466.2,735.3 L446.1,708.0 L437.0,677.5 L437.7,645.9 L445.5,615.1 L456.9,585.9 L469.1,558.3 L480.1,531.5 L489.4,504.7 L498.0,477.1 L508.1,448.9 L521.9,421.0 L540.9,394.7 L566.1,371.6 L596.7,353.1 L631.4,339.6 L668.4,330.9 L705.8,325.9 L742.7,323.1 L778.6,321.3 L814.0,319.7 L849.4,318.3 L885.3,317.9 L921.7,319.6 L957.9,324.7 L992.8,334.1 L1025.2,348.0 L1054.3,365.8 L1079.7,386.4 L1102.0,408.7 L1122.3,431.7 L1141.5,455.0 L1160.5,478.5 L1179.0,502.8 L1196.0,528.6 Z" fill="none" stroke="currentColor" stroke-width="1.1" vector-effect="non-scaling-stroke"/>
<path d="M1190.3,412.4 L1223.8,435.8 L1249.2,464.4 L1264.8,496.8 L1270.3,531.2 L1266.5,565.9 L1255.6,599.3 L1240.0,630.6 L1222.1,659.8 L1203.6,687.2 L1185.3,713.4 L1167.1,738.9 L1148.1,763.9 L1127.3,788.2 L1103.7,811.0 L1076.8,831.6 L1046.6,849.3 L1013.6,863.6 L978.7,874.4 L942.6,882.0 L906.0,886.8 L869.3,889.2 L832.8,889.7 L796.4,888.2 L760.2,884.7 L724.4,878.9 L689.3,870.5 L655.3,859.3 L622.8,845.4 L592.3,828.9 L563.7,810.2 L537.2,789.5 L512.7,767.2 L490.3,743.2 L470.2,717.6 L453.1,690.4 L439.8,661.6 L430.9,631.5 L427.1,600.7 L428.5,569.7 L434.8,539.1 L445.0,509.2 L458.4,480.0 L473.9,451.5 L491.1,423.2 L510.1,394.8 L531.5,366.6 L556.4,339.2 L585.6,313.8 L619.9,292.1 L658.8,275.8 L701.3,266.6 L745.6,265.0 L789.5,270.7 L831.1,282.6 L869.2,298.4 L903.7,315.6 L935.4,331.9 L966.2,345.7 L998.0,356.5 L1032.4,364.9 L1070.1,372.7 L1110.4,381.9 L1151.4,394.6 L1190.3,412.4 Z" fill="none" stroke="currentColor" stroke-width="1.1" vector-effect="non-scaling-stroke"/>
</svg>