<svg xmlns="http://www.w3.org/2000/svg" viewBox="0 0 800 500" preserveAspectRatio="xMidYMid slice">
  <defs><linearGradient id="bg" x1="0" y1="0" x2="1" y2="1"><stop offset="0" stop-color="#1a2540"/><stop offset="1" stop-color="#4a5e8a"/></linearGradient></defs>
  <rect width="800" height="500" fill="url(#bg)"/>
  <line x1="116" y1="229" x2="66" y2="71" stroke="#d7e6ff" stroke-width="1" opacity="0.30"/>
<line x1="116" y1="229" x2="130" y2="340" stroke="#d7e6ff" stroke-width="1" opacity="0.30"/>
<line x1="116" y1="229" x2="202" y2="92" stroke="#d7e6ff" stroke-width="1" opacity="0.30"/>
<line x1="116" y1="229" x2="132" y2="258" stroke="#d7e6ff" stroke-width="1" opacity="0.30"/>
<line x1="116" y1="229" x2="201" y2="337" stroke="#d7e6ff" stroke-width="1" opacity="0.30"/>
<line x1="712" y1="379" x2="734" y2="294" stroke="#d7e6ff" stroke-width="1" opacity="0.30"/>
<line x1="712" y1="379" x2="682" y2="235" stroke="#d7e6ff" stroke-width="1" opacity="0.30"/>
<line x1="66" y1="71" x2="202" y2="92" stroke="#d7e6ff" stroke-width="1" opacity="0.30"/>
<line x1="130" y1="340" x2="132" y2="258" stroke="#d7e6ff" stroke-width="1" opacity="0.30"/>
<line x1="130" y1="340" x2="201" y2="337" stroke="#d7e6ff" stroke-width="1" opacity="0.30"/>
<line x1="202" y1="92" x2="132" y2="258" stroke="#d7e6ff" stroke-width="1" opacity="0.30"/>
<line x1="202" y1="92" x2="328" y2="71" stroke="#d7e6ff" stroke-width="1" opacity="0.30"/>
<line x1="482" y1="251" x2="476" y2="302" stroke="#d7e6ff" stroke-width="1" opacity="0.30"/>
<line x1="482" y1="251" x2="494" y2="215" stroke="#d7e6ff" stroke-width="1" opacity="0.30"/>
<line x1="734" y1="294" x2="682" y2="235" stroke="#d7e6ff" stroke-width="1" opacity="0.30"/>
<line x1="476" y1="302" x2="494" y2="215" stroke="#d7e6ff" stroke-width="1" opacity="0.30"/>
<line x1="132" y1="258" x2="201" y2="337" stroke="#d7e6ff" stroke-width="1" opacity="0.30"/>
<line x1="494" y1="215" x2="682" y2="235" stroke="#d7e6ff" stroke-width="1" opacity="0.30"/>
  <circle cx="116" cy="229" r="6" fill="#d7e6ff" opacity="0.9"/>
<circle cx="712" cy="379" r="6" fill="#d7e6ff" opacity="0.9"/>
<circle cx="66" cy="71" r="4" fill="#d7e6ff" opacity="0.9"/>
<circle cx="130" cy="340" r="4" fill="#d7e6ff" opacity="0.9"/>
<circle cx="202" cy="92" r="7" fill="#d7e6ff" opacity="0.9"/>
<circle cx="482" cy="251" r="4" fill="#d7e6ff" opacity="0.9"/>
<circle cx="734" cy="294" r="4" fill="#d7e6ff" opacity="0.9"/>
<circle cx="476" cy="302" r="5" fill="#d7e6ff" opacity="0.9"/>
<circle cx="132" cy="258" r="6" fill="#d7e6ff" opacity="0.9"/>
<circle cx="328" cy="71" r="7" fill="#d7e6ff" opacity="0.9"/>
<circle cx="494" cy="215" r="4" fill="#d7e6ff" opacity="0.9"/>
<circle cx="682" cy="235" r="5" fill="#d7e6ff" opacity="0.9"/>
<circle cx="201" cy="337" r="4" fill="#d7e6ff" opacity="0.9"/>
  <text x="34" y="470" font-family="ui-monospace,Menlo,Consolas,monospace" font-size="22" fill="#ffffff" opacity="0.85">&lt;/&gt; Jupyter Notebook</text>
</svg>