<svg xmlns="http://www.w3.org/2000/svg" viewBox="0 0 800 500" preserveAspectRatio="xMidYMid slice">
  <defs><linearGradient id="bg" x1="0" y1="0" x2="1" y2="1"><stop offset="0" stop-color="#0e2a3a"/><stop offset="1" stop-color="#1f6f7a"/></linearGradient></defs>
  <rect width="800" height="500" fill="url(#bg)"/>
  <line x1="99" y1="207" x2="193" y2="265" stroke="#7fe3d0" stroke-width="1" opacity="0.30"/>
<line x1="472" y1="392" x2="411" y2="254" stroke="#7fe3d0" stroke-width="1" opacity="0.30"/>
<line x1="472" y1="392" x2="596" y2="326" stroke="#7fe3d0" stroke-width="1" opacity="0.30"/>
<line x1="472" y1="392" x2="626" y2="318" stroke="#7fe3d0" stroke-width="1" opacity="0.30"/>
<line x1="472" y1="392" x2="619" y2="274" stroke="#7fe3d0" stroke-width="1" opacity="0.30"/>
<line x1="711" y1="162" x2="626" y2="318" stroke="#7fe3d0" stroke-width="1" opacity="0.30"/>
<line x1="711" y1="162" x2="683" y2="99" stroke="#7fe3d0" stroke-width="1" opacity="0.30"/>
<line x1="711" y1="162" x2="619" y2="274" stroke="#7fe3d0" stroke-width="1" opacity="0.30"/>
<line x1="711" y1="162" x2="662" y2="199" stroke="#7fe3d0" stroke-width="1" opacity="0.30"/>
<line x1="411" y1="254" x2="502" y2="196" stroke="#7fe3d0" stroke-width="1" opacity="0.30"/>
<line x1="411" y1="254" x2="466" y2="173" stroke="#7fe3d0" stroke-width="1" opacity="0.30"/>
<line x1="596" y1="326" x2="502" y2="196" stroke="#7fe3d0" stroke-width="1" opacity="0.30"/>
<line x1="596" y1="326" x2="626" y2="318" stroke="#7fe3d0" stroke-width="1" opacity="0.30"/>
<line x1="596" y1="326" x2="619" y2="274" stroke="#7fe3d0" stroke-width="1" opacity="0.30"/>
<line x1="596" y1="326" x2="662" y2="199" stroke="#7fe3d0" stroke-width="1" opacity="0.30"/>
<line x1="502" y1="196" x2="626" y2="318" stroke="#7fe3d0" stroke-width="1" opacity="0.30"/>
<line x1="502" y1="196" x2="619" y2="274" stroke="#7fe3d0" stroke-width="1" opacity="0.30"/>
<line x1="502" y1="196" x2="662" y2="199" stroke="#7fe3d0" stroke-width="1" opacity="0.30"/>
<line x1="502" y1="196" x2="466" y2="173" stroke="#7fe3d0" stroke-width="1" opacity="0.30"/>
<line x1="626" y1="318" x2="619" y2="274" stroke="#7fe3d0" stroke-width="1" opacity="0.30"/>
<line x1="626" y1="318" x2="662" y2="199" stroke="#7fe3d0" stroke-width="1" opacity="0.30"/>
<line x1="683" y1="99" x2="619" y2="274" stroke="#7fe3d0" stroke-width="1" opacity="0.30"/>
<line x1="683" y1="99" x2="662" y2="199" stroke="#7fe3d0" stroke-width="1" opacity="0.30"/>
<line x1="619" y1="274" x2="662" y2="199" stroke="#7fe3d0" stroke-width="1" opacity="0.30"/>
<line x1="619" y1="274" x2="466" y2="173" stroke="#7fe3d0" stroke-width="1" opacity="0.30"/>
<line x1="315" y1="86" x2="466" y2="173" stroke="#7fe3d0" stroke-width="1" opacity="0.30"/>
  <circle cx="99" cy="207" r="4" fill="#7fe3d0" opacity="0.9"/>
<circle cx="472" cy="392" r="3" fill="#7fe3d0" opacity="0.9"/>
<circle cx="711" cy="162" r="6" fill="#7fe3d0" opacity="0.9"/>
<circle cx="411" cy="254" r="6" fill="#7fe3d0" opacity="0.9"/>
<circle cx="596" cy="326" r="6" fill="#7fe3d0" opacity="0.9"/>
<circle cx="502" cy="196" r="5" fill="#7fe3d0" opacity="0.9"/>
<circle cx="626" cy="318" r="6" fill="#7fe3d0" opacity="0.9"/>
<circle cx="683" cy="99" r="5" fill="#7fe3d0" opacity="0.9"/>
<circle cx="193" cy="265" r="5" fill="#7fe3d0" opacity="0.9"/>
<circle cx="619" cy="274" r="4" fill="#7fe3d0" opacity="0.9"/>
<circle cx="662" cy="199" r="6" fill="#7fe3d0" opacity="0.9"/>
<circle cx="315" cy="86" r="6" fill="#7fe3d0" opacity="0.9"/>
<circle cx="466" cy="173" r="6" fill="#7fe3d0" opacity="0.9"/>
  <text x="34" y="470" font-family="ui-monospace,Menlo,Consolas,monospace" font-size="22" fill="#ffffff" opacity="0.85">&lt;/&gt; JavaScript</text>
</svg>