<svg xmlns="http://www.w3.org/2000/svg" viewBox="0 0 800 500" preserveAspectRatio="xMidYMid slice">
  <defs><linearGradient id="bg" x1="0" y1="0" x2="1" y2="1"><stop offset="0" stop-color="#0e1b3a"/><stop offset="1" stop-color="#2a1b52"/></linearGradient></defs>
  <rect width="800" height="500" fill="url(#bg)"/>
  <line x1="68" y1="325" x2="149" y2="381" stroke="#5eead4" stroke-width="1" opacity="0.30"/>
<line x1="68" y1="325" x2="156" y2="322" stroke="#5eead4" stroke-width="1" opacity="0.30"/>
<line x1="454" y1="290" x2="615" y2="270" stroke="#5eead4" stroke-width="1" opacity="0.30"/>
<line x1="454" y1="290" x2="374" y2="224" stroke="#5eead4" stroke-width="1" opacity="0.30"/>
<line x1="454" y1="290" x2="461" y2="359" stroke="#5eead4" stroke-width="1" opacity="0.30"/>
<line x1="173" y1="111" x2="121" y2="105" stroke="#5eead4" stroke-width="1" opacity="0.30"/>
<line x1="173" y1="111" x2="230" y2="215" stroke="#5eead4" stroke-width="1" opacity="0.30"/>
<line x1="173" y1="111" x2="163" y2="76" stroke="#5eead4" stroke-width="1" opacity="0.30"/>
<line x1="615" y1="270" x2="703" y2="229" stroke="#5eead4" stroke-width="1" opacity="0.30"/>
<line x1="615" y1="270" x2="719" y2="223" stroke="#5eead4" stroke-width="1" opacity="0.30"/>
<line x1="615" y1="270" x2="461" y2="359" stroke="#5eead4" stroke-width="1" opacity="0.30"/>
<line x1="374" y1="224" x2="461" y2="359" stroke="#5eead4" stroke-width="1" opacity="0.30"/>
<line x1="374" y1="224" x2="230" y2="215" stroke="#5eead4" stroke-width="1" opacity="0.30"/>
<line x1="703" y1="229" x2="719" y2="223" stroke="#5eead4" stroke-width="1" opacity="0.30"/>
<line x1="121" y1="105" x2="230" y2="215" stroke="#5eead4" stroke-width="1" opacity="0.30"/>
<line x1="121" y1="105" x2="163" y2="76" stroke="#5eead4" stroke-width="1" opacity="0.30"/>
<line x1="149" y1="381" x2="230" y2="215" stroke="#5eead4" stroke-width="1" opacity="0.30"/>
<line x1="149" y1="381" x2="156" y2="322" stroke="#5eead4" stroke-width="1" opacity="0.30"/>
<line x1="230" y1="215" x2="163" y2="76" stroke="#5eead4" stroke-width="1" opacity="0.30"/>
<line x1="230" y1="215" x2="156" y2="322" stroke="#5eead4" stroke-width="1" opacity="0.30"/>
  <circle cx="68" cy="325" r="4" fill="#5eead4" opacity="0.9"/>
<circle cx="454" cy="290" r="5" fill="#5eead4" opacity="0.9"/>
<circle cx="173" cy="111" r="7" fill="#5eead4" opacity="0.9"/>
<circle cx="615" cy="270" r="5" fill="#5eead4" opacity="0.9"/>
<circle cx="374" cy="224" r="5" fill="#5eead4" opacity="0.9"/>
<circle cx="703" cy="229" r="4" fill="#5eead4" opacity="0.9"/>
<circle cx="121" cy="105" r="4" fill="#5eead4" opacity="0.9"/>
<circle cx="149" cy="381" r="6" fill="#5eead4" opacity="0.9"/>
<circle cx="719" cy="223" r="5" fill="#5eead4" opacity="0.9"/>
<circle cx="461" cy="359" r="5" fill="#5eead4" opacity="0.9"/>
<circle cx="230" cy="215" r="5" fill="#5eead4" opacity="0.9"/>
<circle cx="163" cy="76" r="4" fill="#5eead4" opacity="0.9"/>
<circle cx="156" cy="322" r="6" fill="#5eead4" opacity="0.9"/>
  <text x="34" y="470" font-family="ui-monospace,Menlo,Consolas,monospace" font-size="22" fill="#ffffff" opacity="0.85">&lt;/&gt; Jupyter Notebook</text>
</svg>