<svg xmlns="http://www.w3.org/2000/svg" viewBox="0 0 800 500" preserveAspectRatio="xMidYMid slice">
  <defs><linearGradient id="bg" x1="0" y1="0" x2="1" y2="1"><stop offset="0" stop-color="#101a36"/><stop offset="1" stop-color="#3a2467"/></linearGradient></defs>
  <rect width="800" height="500" fill="url(#bg)"/>
  <line x1="81" y1="330" x2="202" y2="366" stroke="#ff9e6d" stroke-width="1" opacity="0.30"/>
<line x1="81" y1="330" x2="129" y2="289" stroke="#ff9e6d" stroke-width="1" opacity="0.30"/>
<line x1="81" y1="330" x2="245" y2="268" stroke="#ff9e6d" stroke-width="1" opacity="0.30"/>
<line x1="414" y1="126" x2="291" y2="92" stroke="#ff9e6d" stroke-width="1" opacity="0.30"/>
<line x1="414" y1="126" x2="521" y2="262" stroke="#ff9e6d" stroke-width="1" opacity="0.30"/>
<line x1="414" y1="126" x2="368" y2="287" stroke="#ff9e6d" stroke-width="1" opacity="0.30"/>
<line x1="423" y1="343" x2="521" y2="262" stroke="#ff9e6d" stroke-width="1" opacity="0.30"/>
<line x1="423" y1="343" x2="575" y2="247" stroke="#ff9e6d" stroke-width="1" opacity="0.30"/>
<line x1="423" y1="343" x2="488" y2="339" stroke="#ff9e6d" stroke-width="1" opacity="0.30"/>
<line x1="423" y1="343" x2="328" y2="312" stroke="#ff9e6d" stroke-width="1" opacity="0.30"/>
<line x1="423" y1="343" x2="368" y2="287" stroke="#ff9e6d" stroke-width="1" opacity="0.30"/>
<line x1="291" y1="92" x2="245" y2="268" stroke="#ff9e6d" stroke-width="1" opacity="0.30"/>
<line x1="521" y1="262" x2="652" y2="394" stroke="#ff9e6d" stroke-width="1" opacity="0.30"/>
<line x1="521" y1="262" x2="575" y2="247" stroke="#ff9e6d" stroke-width="1" opacity="0.30"/>
<line x1="521" y1="262" x2="488" y2="339" stroke="#ff9e6d" stroke-width="1" opacity="0.30"/>
<line x1="521" y1="262" x2="368" y2="287" stroke="#ff9e6d" stroke-width="1" opacity="0.30"/>
<line x1="202" y1="366" x2="129" y2="289" stroke="#ff9e6d" stroke-width="1" opacity="0.30"/>
<line x1="202" y1="366" x2="245" y2="268" stroke="#ff9e6d" stroke-width="1" opacity="0.30"/>
<line x1="202" y1="366" x2="328" y2="312" stroke="#ff9e6d" stroke-width="1" opacity="0.30"/>
<line x1="202" y1="366" x2="368" y2="287" stroke="#ff9e6d" stroke-width="1" opacity="0.30"/>
<line x1="129" y1="289" x2="245" y2="268" stroke="#ff9e6d" stroke-width="1" opacity="0.30"/>
<line x1="652" y1="394" x2="575" y2="247" stroke="#ff9e6d" stroke-width="1" opacity="0.30"/>
<line x1="652" y1="394" x2="488" y2="339" stroke="#ff9e6d" stroke-width="1" opacity="0.30"/>
<line x1="245" y1="268" x2="328" y2="312" stroke="#ff9e6d" stroke-width="1" opacity="0.30"/>
<line x1="245" y1="268" x2="368" y2="287" stroke="#ff9e6d" stroke-width="1" opacity="0.30"/>
<line x1="575" y1="247" x2="488" y2="339" stroke="#ff9e6d" stroke-width="1" opacity="0.30"/>
<line x1="488" y1="339" x2="328" y2="312" stroke="#ff9e6d" stroke-width="1" opacity="0.30"/>
<line x1="488" y1="339" x2="368" y2="287" stroke="#ff9e6d" stroke-width="1" opacity="0.30"/>
<line x1="328" y1="312" x2="368" y2="287" stroke="#ff9e6d" stroke-width="1" opacity="0.30"/>
  <circle cx="81" cy="330" r="7" fill="#ff9e6d" opacity="0.9"/>
<circle cx="414" cy="126" r="5" fill="#ff9e6d" opacity="0.9"/>
<circle cx="423" cy="343" r="3" fill="#ff9e6d" opacity="0.9"/>
<circle cx="291" cy="92" r="6" fill="#ff9e6d" opacity="0.9"/>
<circle cx="521" cy="262" r="3" fill="#ff9e6d" opacity="0.9"/>
<circle cx="202" cy="366" r="6" fill="#ff9e6d" opacity="0.9"/>
<circle cx="129" cy="289" r="3" fill="#ff9e6d" opacity="0.9"/>
<circle cx="652" cy="394" r="4" fill="#ff9e6d" opacity="0.9"/>
<circle cx="245" cy="268" r="5" fill="#ff9e6d" opacity="0.9"/>
<circle cx="575" cy="247" r="3" fill="#ff9e6d" opacity="0.9"/>
<circle cx="488" cy="339" r="3" fill="#ff9e6d" opacity="0.9"/>
<circle cx="328" cy="312" r="5" fill="#ff9e6d" opacity="0.9"/>
<circle cx="368" cy="287" r="7" fill="#ff9e6d" opacity="0.9"/>
  <text x="34" y="470" font-family="ui-monospace,Menlo,Consolas,monospace" font-size="22" fill="#ffffff" opacity="0.85">&lt;/&gt; Python</text>
</svg>