<svg xmlns="http://www.w3.org/2000/svg" viewBox="0 0 800 500" preserveAspectRatio="xMidYMid slice">
  <defs><linearGradient id="bg" x1="0" y1="0" x2="1" y2="1"><stop offset="0" stop-color="#160f38"/><stop offset="1" stop-color="#43306f"/></linearGradient></defs>
  <rect width="800" height="500" fill="url(#bg)"/>
  <line x1="568" y1="283" x2="467" y2="197" stroke="#ff6b9d" stroke-width="1" opacity="0.30"/>
<line x1="568" y1="283" x2="635" y2="373" stroke="#ff6b9d" stroke-width="1" opacity="0.30"/>
<line x1="568" y1="283" x2="633" y2="255" stroke="#ff6b9d" stroke-width="1" opacity="0.30"/>
<line x1="568" y1="283" x2="542" y2="345" stroke="#ff6b9d" stroke-width="1" opacity="0.30"/>
<line x1="568" y1="283" x2="451" y2="165" stroke="#ff6b9d" stroke-width="1" opacity="0.30"/>
<line x1="568" y1="283" x2="587" y2="189" stroke="#ff6b9d" stroke-width="1" opacity="0.30"/>
<line x1="568" y1="283" x2="559" y2="333" stroke="#ff6b9d" stroke-width="1" opacity="0.30"/>
<line x1="290" y1="80" x2="373" y2="129" stroke="#ff6b9d" stroke-width="1" opacity="0.30"/>
<line x1="290" y1="80" x2="345" y2="179" stroke="#ff6b9d" stroke-width="1" opacity="0.30"/>
<line x1="290" y1="80" x2="371" y2="229" stroke="#ff6b9d" stroke-width="1" opacity="0.30"/>
<line x1="290" y1="80" x2="451" y2="165" stroke="#ff6b9d" stroke-width="1" opacity="0.30"/>
<line x1="290" y1="80" x2="280" y2="104" stroke="#ff6b9d" stroke-width="1" opacity="0.30"/>
<line x1="467" y1="197" x2="373" y2="129" stroke="#ff6b9d" stroke-width="1" opacity="0.30"/>
<line x1="467" y1="197" x2="345" y2="179" stroke="#ff6b9d" stroke-width="1" opacity="0.30"/>
<line x1="467" y1="197" x2="633" y2="255" stroke="#ff6b9d" stroke-width="1" opacity="0.30"/>
<line x1="467" y1="197" x2="371" y2="229" stroke="#ff6b9d" stroke-width="1" opacity="0.30"/>
<line x1="467" y1="197" x2="542" y2="345" stroke="#ff6b9d" stroke-width="1" opacity="0.30"/>
<line x1="467" y1="197" x2="451" y2="165" stroke="#ff6b9d" stroke-width="1" opacity="0.30"/>
<line x1="467" y1="197" x2="587" y2="189" stroke="#ff6b9d" stroke-width="1" opacity="0.30"/>
<line x1="467" y1="197" x2="559" y2="333" stroke="#ff6b9d" stroke-width="1" opacity="0.30"/>
<line x1="373" y1="129" x2="345" y2="179" stroke="#ff6b9d" stroke-width="1" opacity="0.30"/>
<line x1="373" y1="129" x2="371" y2="229" stroke="#ff6b9d" stroke-width="1" opacity="0.30"/>
<line x1="373" y1="129" x2="451" y2="165" stroke="#ff6b9d" stroke-width="1" opacity="0.30"/>
<line x1="373" y1="129" x2="280" y2="104" stroke="#ff6b9d" stroke-width="1" opacity="0.30"/>
<line x1="345" y1="179" x2="371" y2="229" stroke="#ff6b9d" stroke-width="1" opacity="0.30"/>
<line x1="345" y1="179" x2="451" y2="165" stroke="#ff6b9d" stroke-width="1" opacity="0.30"/>
<line x1="345" y1="179" x2="280" y2="104" stroke="#ff6b9d" stroke-width="1" opacity="0.30"/>
<line x1="635" y1="373" x2="633" y2="255" stroke="#ff6b9d" stroke-width="1" opacity="0.30"/>
<line x1="635" y1="373" x2="542" y2="345" stroke="#ff6b9d" stroke-width="1" opacity="0.30"/>
<line x1="635" y1="373" x2="559" y2="333" stroke="#ff6b9d" stroke-width="1" opacity="0.30"/>
<line x1="633" y1="255" x2="542" y2="345" stroke="#ff6b9d" stroke-width="1" opacity="0.30"/>
<line x1="633" y1="255" x2="587" y2="189" stroke="#ff6b9d" stroke-width="1" opacity="0.30"/>
<line x1="633" y1="255" x2="559" y2="333" stroke="#ff6b9d" stroke-width="1" opacity="0.30"/>
<line x1="371" y1="229" x2="451" y2="165" stroke="#ff6b9d" stroke-width="1" opacity="0.30"/>
<line x1="371" y1="229" x2="280" y2="104" stroke="#ff6b9d" stroke-width="1" opacity="0.30"/>
<line x1="542" y1="345" x2="587" y2="189" stroke="#ff6b9d" stroke-width="1" opacity="0.30"/>
<line x1="542" y1="345" x2="559" y2="333" stroke="#ff6b9d" stroke-width="1" opacity="0.30"/>
<line x1="451" y1="165" x2="587" y2="189" stroke="#ff6b9d" stroke-width="1" opacity="0.30"/>
<line x1="451" y1="165" x2="280" y2="104" stroke="#ff6b9d" stroke-width="1" opacity="0.30"/>
<line x1="587" y1="189" x2="559" y2="333" stroke="#ff6b9d" stroke-width="1" opacity="0.30"/>
  <circle cx="568" cy="283" r="4" fill="#ff6b9d" opacity="0.9"/>
<circle cx="290" cy="80" r="3" fill="#ff6b9d" opacity="0.9"/>
<circle cx="467" cy="197" r="6" fill="#ff6b9d" opacity="0.9"/>
<circle cx="373" cy="129" r="7" fill="#ff6b9d" opacity="0.9"/>
<circle cx="345" cy="179" r="4" fill="#ff6b9d" opacity="0.9"/>
<circle cx="635" cy="373" r="7" fill="#ff6b9d" opacity="0.9"/>
<circle cx="633" cy="255" r="4" fill="#ff6b9d" opacity="0.9"/>
<circle cx="371" cy="229" r="3" fill="#ff6b9d" opacity="0.9"/>
<circle cx="542" cy="345" r="5" fill="#ff6b9d" opacity="0.9"/>
<circle cx="451" cy="165" r="7" fill="#ff6b9d" opacity="0.9"/>
<circle cx="587" cy="189" r="6" fill="#ff6b9d" opacity="0.9"/>
<circle cx="559" cy="333" r="7" fill="#ff6b9d" opacity="0.9"/>
<circle cx="280" cy="104" r="5" fill="#ff6b9d" opacity="0.9"/>
  <text x="34" y="470" font-family="ui-monospace,Menlo,Consolas,monospace" font-size="22" fill="#ffffff" opacity="0.85">&lt;/&gt; Jupyter Notebook</text>
</svg>