<svg xmlns="http://www.w3.org/2000/svg" viewBox="0 0 800 500" preserveAspectRatio="xMidYMid slice">
  <defs><linearGradient id="bg" x1="0" y1="0" x2="1" y2="1"><stop offset="0" stop-color="#0e2a3a"/><stop offset="1" stop-color="#1f6f7a"/></linearGradient></defs>
  <rect width="800" height="500" fill="url(#bg)"/>
  <line x1="513" y1="98" x2="459" y2="178" stroke="#7fe3d0" stroke-width="1" opacity="0.30"/>
<line x1="513" y1="98" x2="515" y2="229" stroke="#7fe3d0" stroke-width="1" opacity="0.30"/>
<line x1="513" y1="98" x2="663" y2="197" stroke="#7fe3d0" stroke-width="1" opacity="0.30"/>
<line x1="513" y1="98" x2="468" y2="251" stroke="#7fe3d0" stroke-width="1" opacity="0.30"/>
<line x1="513" y1="98" x2="616" y2="184" stroke="#7fe3d0" stroke-width="1" opacity="0.30"/>
<line x1="696" y1="153" x2="663" y2="197" stroke="#7fe3d0" stroke-width="1" opacity="0.30"/>
<line x1="696" y1="153" x2="616" y2="184" stroke="#7fe3d0" stroke-width="1" opacity="0.30"/>
<line x1="696" y1="153" x2="727" y2="197" stroke="#7fe3d0" stroke-width="1" opacity="0.30"/>
<line x1="213" y1="144" x2="356" y2="239" stroke="#7fe3d0" stroke-width="1" opacity="0.30"/>
<line x1="213" y1="144" x2="186" y2="134" stroke="#7fe3d0" stroke-width="1" opacity="0.30"/>
<line x1="370" y1="290" x2="459" y2="178" stroke="#7fe3d0" stroke-width="1" opacity="0.30"/>
<line x1="370" y1="290" x2="356" y2="239" stroke="#7fe3d0" stroke-width="1" opacity="0.30"/>
<line x1="370" y1="290" x2="515" y2="229" stroke="#7fe3d0" stroke-width="1" opacity="0.30"/>
<line x1="370" y1="290" x2="468" y2="251" stroke="#7fe3d0" stroke-width="1" opacity="0.30"/>
<line x1="459" y1="178" x2="356" y2="239" stroke="#7fe3d0" stroke-width="1" opacity="0.30"/>
<line x1="459" y1="178" x2="515" y2="229" stroke="#7fe3d0" stroke-width="1" opacity="0.30"/>
<line x1="459" y1="178" x2="468" y2="251" stroke="#7fe3d0" stroke-width="1" opacity="0.30"/>
<line x1="459" y1="178" x2="616" y2="184" stroke="#7fe3d0" stroke-width="1" opacity="0.30"/>
<line x1="356" y1="239" x2="515" y2="229" stroke="#7fe3d0" stroke-width="1" opacity="0.30"/>
<line x1="356" y1="239" x2="468" y2="251" stroke="#7fe3d0" stroke-width="1" opacity="0.30"/>
<line x1="515" y1="229" x2="663" y2="197" stroke="#7fe3d0" stroke-width="1" opacity="0.30"/>
<line x1="515" y1="229" x2="468" y2="251" stroke="#7fe3d0" stroke-width="1" opacity="0.30"/>
<line x1="515" y1="229" x2="616" y2="184" stroke="#7fe3d0" stroke-width="1" opacity="0.30"/>
<line x1="663" y1="197" x2="616" y2="184" stroke="#7fe3d0" stroke-width="1" opacity="0.30"/>
<line x1="663" y1="197" x2="727" y2="197" stroke="#7fe3d0" stroke-width="1" opacity="0.30"/>
<line x1="468" y1="251" x2="616" y2="184" stroke="#7fe3d0" stroke-width="1" opacity="0.30"/>
<line x1="616" y1="184" x2="727" y2="197" stroke="#7fe3d0" stroke-width="1" opacity="0.30"/>
  <circle cx="513" cy="98" r="4" fill="#7fe3d0" opacity="0.9"/>
<circle cx="696" cy="153" r="6" fill="#7fe3d0" opacity="0.9"/>
<circle cx="213" cy="144" r="6" fill="#7fe3d0" opacity="0.9"/>
<circle cx="370" cy="290" r="5" fill="#7fe3d0" opacity="0.9"/>
<circle cx="459" cy="178" r="4" fill="#7fe3d0" opacity="0.9"/>
<circle cx="356" cy="239" r="4" fill="#7fe3d0" opacity="0.9"/>
<circle cx="515" cy="229" r="6" fill="#7fe3d0" opacity="0.9"/>
<circle cx="99" cy="401" r="3" fill="#7fe3d0" opacity="0.9"/>
<circle cx="663" cy="197" r="5" fill="#7fe3d0" opacity="0.9"/>
<circle cx="186" cy="134" r="4" fill="#7fe3d0" opacity="0.9"/>
<circle cx="468" cy="251" r="5" fill="#7fe3d0" opacity="0.9"/>
<circle cx="616" cy="184" r="5" fill="#7fe3d0" opacity="0.9"/>
<circle cx="727" cy="197" r="5" fill="#7fe3d0" opacity="0.9"/>
  <text x="34" y="470" font-family="ui-monospace,Menlo,Consolas,monospace" font-size="22" fill="#ffffff" opacity="0.85">&lt;/&gt; JavaScript</text>
</svg>