<svg xmlns="http://www.w3.org/2000/svg" viewBox="0 0 800 500" preserveAspectRatio="xMidYMid slice">
  <defs><linearGradient id="bg" x1="0" y1="0" x2="1" y2="1"><stop offset="0" stop-color="#101a36"/><stop offset="1" stop-color="#3a2467"/></linearGradient></defs>
  <rect width="800" height="500" fill="url(#bg)"/>
  <line x1="476" y1="164" x2="607" y2="280" stroke="#ff9e6d" stroke-width="1" opacity="0.30"/>
<line x1="476" y1="164" x2="627" y2="82" stroke="#ff9e6d" stroke-width="1" opacity="0.30"/>
<line x1="476" y1="164" x2="465" y2="237" stroke="#ff9e6d" stroke-width="1" opacity="0.30"/>
<line x1="476" y1="164" x2="489" y2="140" stroke="#ff9e6d" stroke-width="1" opacity="0.30"/>
<line x1="476" y1="164" x2="368" y2="207" stroke="#ff9e6d" stroke-width="1" opacity="0.30"/>
<line x1="476" y1="164" x2="493" y2="326" stroke="#ff9e6d" stroke-width="1" opacity="0.30"/>
<line x1="476" y1="164" x2="382" y2="225" stroke="#ff9e6d" stroke-width="1" opacity="0.30"/>
<line x1="638" y1="339" x2="607" y2="280" stroke="#ff9e6d" stroke-width="1" opacity="0.30"/>
<line x1="638" y1="339" x2="493" y2="326" stroke="#ff9e6d" stroke-width="1" opacity="0.30"/>
<line x1="607" y1="280" x2="465" y2="237" stroke="#ff9e6d" stroke-width="1" opacity="0.30"/>
<line x1="607" y1="280" x2="489" y2="140" stroke="#ff9e6d" stroke-width="1" opacity="0.30"/>
<line x1="607" y1="280" x2="493" y2="326" stroke="#ff9e6d" stroke-width="1" opacity="0.30"/>
<line x1="627" y1="82" x2="489" y2="140" stroke="#ff9e6d" stroke-width="1" opacity="0.30"/>
<line x1="465" y1="237" x2="489" y2="140" stroke="#ff9e6d" stroke-width="1" opacity="0.30"/>
<line x1="465" y1="237" x2="368" y2="207" stroke="#ff9e6d" stroke-width="1" opacity="0.30"/>
<line x1="465" y1="237" x2="493" y2="326" stroke="#ff9e6d" stroke-width="1" opacity="0.30"/>
<line x1="465" y1="237" x2="382" y2="225" stroke="#ff9e6d" stroke-width="1" opacity="0.30"/>
<line x1="82" y1="73" x2="179" y2="148" stroke="#ff9e6d" stroke-width="1" opacity="0.30"/>
<line x1="82" y1="73" x2="243" y2="82" stroke="#ff9e6d" stroke-width="1" opacity="0.30"/>
<line x1="179" y1="148" x2="243" y2="82" stroke="#ff9e6d" stroke-width="1" opacity="0.30"/>
<line x1="243" y1="82" x2="368" y2="207" stroke="#ff9e6d" stroke-width="1" opacity="0.30"/>
<line x1="489" y1="140" x2="368" y2="207" stroke="#ff9e6d" stroke-width="1" opacity="0.30"/>
<line x1="489" y1="140" x2="493" y2="326" stroke="#ff9e6d" stroke-width="1" opacity="0.30"/>
<line x1="489" y1="140" x2="382" y2="225" stroke="#ff9e6d" stroke-width="1" opacity="0.30"/>
<line x1="368" y1="207" x2="493" y2="326" stroke="#ff9e6d" stroke-width="1" opacity="0.30"/>
<line x1="368" y1="207" x2="382" y2="225" stroke="#ff9e6d" stroke-width="1" opacity="0.30"/>
<line x1="493" y1="326" x2="382" y2="225" stroke="#ff9e6d" stroke-width="1" opacity="0.30"/>
  <circle cx="476" cy="164" r="6" fill="#ff9e6d" opacity="0.9"/>
<circle cx="96" cy="373" r="4" fill="#ff9e6d" opacity="0.9"/>
<circle cx="638" cy="339" r="5" fill="#ff9e6d" opacity="0.9"/>
<circle cx="607" cy="280" r="5" fill="#ff9e6d" opacity="0.9"/>
<circle cx="627" cy="82" r="7" fill="#ff9e6d" opacity="0.9"/>
<circle cx="465" cy="237" r="7" fill="#ff9e6d" opacity="0.9"/>
<circle cx="82" cy="73" r="5" fill="#ff9e6d" opacity="0.9"/>
<circle cx="179" cy="148" r="4" fill="#ff9e6d" opacity="0.9"/>
<circle cx="243" cy="82" r="6" fill="#ff9e6d" opacity="0.9"/>
<circle cx="489" cy="140" r="4" fill="#ff9e6d" opacity="0.9"/>
<circle cx="368" cy="207" r="5" fill="#ff9e6d" opacity="0.9"/>
<circle cx="493" cy="326" r="4" fill="#ff9e6d" opacity="0.9"/>
<circle cx="382" cy="225" r="4" fill="#ff9e6d" opacity="0.9"/>
  <text x="34" y="470" font-family="ui-monospace,Menlo,Consolas,monospace" font-size="22" fill="#ffffff" opacity="0.85">&lt;/&gt; Python</text>
</svg>