<svg xmlns="http://www.w3.org/2000/svg" viewBox="0 0 800 500" preserveAspectRatio="xMidYMid slice">
  <defs><linearGradient id="bg" x1="0" y1="0" x2="1" y2="1"><stop offset="0" stop-color="#160f38"/><stop offset="1" stop-color="#43306f"/></linearGradient></defs>
  <rect width="800" height="500" fill="url(#bg)"/>
  <line x1="625" y1="407" x2="625" y2="404" stroke="#ff6b9d" stroke-width="1" opacity="0.30"/>
<line x1="625" y1="407" x2="562" y2="305" stroke="#ff6b9d" stroke-width="1" opacity="0.30"/>
<line x1="658" y1="157" x2="562" y2="305" stroke="#ff6b9d" stroke-width="1" opacity="0.30"/>
<line x1="658" y1="157" x2="527" y2="161" stroke="#ff6b9d" stroke-width="1" opacity="0.30"/>
<line x1="658" y1="157" x2="563" y2="162" stroke="#ff6b9d" stroke-width="1" opacity="0.30"/>
<line x1="442" y1="247" x2="381" y2="113" stroke="#ff6b9d" stroke-width="1" opacity="0.30"/>
<line x1="442" y1="247" x2="562" y2="305" stroke="#ff6b9d" stroke-width="1" opacity="0.30"/>
<line x1="442" y1="247" x2="527" y2="161" stroke="#ff6b9d" stroke-width="1" opacity="0.30"/>
<line x1="442" y1="247" x2="563" y2="162" stroke="#ff6b9d" stroke-width="1" opacity="0.30"/>
<line x1="442" y1="247" x2="447" y2="166" stroke="#ff6b9d" stroke-width="1" opacity="0.30"/>
<line x1="625" y1="404" x2="562" y2="305" stroke="#ff6b9d" stroke-width="1" opacity="0.30"/>
<line x1="381" y1="113" x2="527" y2="161" stroke="#ff6b9d" stroke-width="1" opacity="0.30"/>
<line x1="381" y1="113" x2="203" y2="150" stroke="#ff6b9d" stroke-width="1" opacity="0.30"/>
<line x1="381" y1="113" x2="563" y2="162" stroke="#ff6b9d" stroke-width="1" opacity="0.30"/>
<line x1="381" y1="113" x2="447" y2="166" stroke="#ff6b9d" stroke-width="1" opacity="0.30"/>
<line x1="562" y1="305" x2="527" y2="161" stroke="#ff6b9d" stroke-width="1" opacity="0.30"/>
<line x1="562" y1="305" x2="563" y2="162" stroke="#ff6b9d" stroke-width="1" opacity="0.30"/>
<line x1="562" y1="305" x2="447" y2="166" stroke="#ff6b9d" stroke-width="1" opacity="0.30"/>
<line x1="527" y1="161" x2="563" y2="162" stroke="#ff6b9d" stroke-width="1" opacity="0.30"/>
<line x1="527" y1="161" x2="447" y2="166" stroke="#ff6b9d" stroke-width="1" opacity="0.30"/>
<line x1="205" y1="343" x2="89" y2="322" stroke="#ff6b9d" stroke-width="1" opacity="0.30"/>
<line x1="205" y1="343" x2="186" y2="397" stroke="#ff6b9d" stroke-width="1" opacity="0.30"/>
<line x1="563" y1="162" x2="447" y2="166" stroke="#ff6b9d" stroke-width="1" opacity="0.30"/>
<line x1="89" y1="322" x2="186" y2="397" stroke="#ff6b9d" stroke-width="1" opacity="0.30"/>
  <circle cx="625" cy="407" r="6" fill="#ff6b9d" opacity="0.9"/>
<circle cx="658" cy="157" r="7" fill="#ff6b9d" opacity="0.9"/>
<circle cx="442" cy="247" r="5" fill="#ff6b9d" opacity="0.9"/>
<circle cx="625" cy="404" r="5" fill="#ff6b9d" opacity="0.9"/>
<circle cx="381" cy="113" r="6" fill="#ff6b9d" opacity="0.9"/>
<circle cx="562" cy="305" r="5" fill="#ff6b9d" opacity="0.9"/>
<circle cx="527" cy="161" r="4" fill="#ff6b9d" opacity="0.9"/>
<circle cx="203" cy="150" r="4" fill="#ff6b9d" opacity="0.9"/>
<circle cx="205" cy="343" r="6" fill="#ff6b9d" opacity="0.9"/>
<circle cx="563" cy="162" r="4" fill="#ff6b9d" opacity="0.9"/>
<circle cx="89" cy="322" r="7" fill="#ff6b9d" opacity="0.9"/>
<circle cx="447" cy="166" r="6" fill="#ff6b9d" opacity="0.9"/>
<circle cx="186" cy="397" r="5" fill="#ff6b9d" opacity="0.9"/>
  <text x="34" y="470" font-family="ui-monospace,Menlo,Consolas,monospace" font-size="22" fill="#ffffff" opacity="0.85">&lt;/&gt; Python</text>
</svg>