<svg xmlns="http://www.w3.org/2000/svg" viewBox="0 0 800 500" preserveAspectRatio="xMidYMid slice">
  <defs><linearGradient id="bg" x1="0" y1="0" x2="1" y2="1"><stop offset="0" stop-color="#0e2a3a"/><stop offset="1" stop-color="#1f6f7a"/></linearGradient></defs>
  <rect width="800" height="500" fill="url(#bg)"/>
  <line x1="615" y1="324" x2="602" y2="372" stroke="#7fe3d0" stroke-width="1" opacity="0.30"/>
<line x1="615" y1="324" x2="582" y2="235" stroke="#7fe3d0" stroke-width="1" opacity="0.30"/>
<line x1="615" y1="324" x2="602" y2="240" stroke="#7fe3d0" stroke-width="1" opacity="0.30"/>
<line x1="615" y1="324" x2="686" y2="390" stroke="#7fe3d0" stroke-width="1" opacity="0.30"/>
<line x1="615" y1="324" x2="680" y2="403" stroke="#7fe3d0" stroke-width="1" opacity="0.30"/>
<line x1="615" y1="324" x2="627" y2="409" stroke="#7fe3d0" stroke-width="1" opacity="0.30"/>
<line x1="287" y1="141" x2="309" y2="137" stroke="#7fe3d0" stroke-width="1" opacity="0.30"/>
<line x1="287" y1="141" x2="280" y2="254" stroke="#7fe3d0" stroke-width="1" opacity="0.30"/>
<line x1="287" y1="141" x2="255" y2="218" stroke="#7fe3d0" stroke-width="1" opacity="0.30"/>
<line x1="287" y1="141" x2="161" y2="88" stroke="#7fe3d0" stroke-width="1" opacity="0.30"/>
<line x1="602" y1="372" x2="582" y2="235" stroke="#7fe3d0" stroke-width="1" opacity="0.30"/>
<line x1="602" y1="372" x2="602" y2="240" stroke="#7fe3d0" stroke-width="1" opacity="0.30"/>
<line x1="602" y1="372" x2="686" y2="390" stroke="#7fe3d0" stroke-width="1" opacity="0.30"/>
<line x1="602" y1="372" x2="680" y2="403" stroke="#7fe3d0" stroke-width="1" opacity="0.30"/>
<line x1="602" y1="372" x2="627" y2="409" stroke="#7fe3d0" stroke-width="1" opacity="0.30"/>
<line x1="582" y1="235" x2="602" y2="240" stroke="#7fe3d0" stroke-width="1" opacity="0.30"/>
<line x1="582" y1="235" x2="686" y2="390" stroke="#7fe3d0" stroke-width="1" opacity="0.30"/>
<line x1="582" y1="235" x2="627" y2="409" stroke="#7fe3d0" stroke-width="1" opacity="0.30"/>
<line x1="602" y1="240" x2="686" y2="390" stroke="#7fe3d0" stroke-width="1" opacity="0.30"/>
<line x1="602" y1="240" x2="680" y2="403" stroke="#7fe3d0" stroke-width="1" opacity="0.30"/>
<line x1="602" y1="240" x2="627" y2="409" stroke="#7fe3d0" stroke-width="1" opacity="0.30"/>
<line x1="309" y1="137" x2="280" y2="254" stroke="#7fe3d0" stroke-width="1" opacity="0.30"/>
<line x1="309" y1="137" x2="255" y2="218" stroke="#7fe3d0" stroke-width="1" opacity="0.30"/>
<line x1="309" y1="137" x2="161" y2="88" stroke="#7fe3d0" stroke-width="1" opacity="0.30"/>
<line x1="686" y1="390" x2="680" y2="403" stroke="#7fe3d0" stroke-width="1" opacity="0.30"/>
<line x1="686" y1="390" x2="627" y2="409" stroke="#7fe3d0" stroke-width="1" opacity="0.30"/>
<line x1="280" y1="254" x2="255" y2="218" stroke="#7fe3d0" stroke-width="1" opacity="0.30"/>
<line x1="680" y1="403" x2="627" y2="409" stroke="#7fe3d0" stroke-width="1" opacity="0.30"/>
<line x1="255" y1="218" x2="161" y2="88" stroke="#7fe3d0" stroke-width="1" opacity="0.30"/>
  <circle cx="615" cy="324" r="6" fill="#7fe3d0" opacity="0.9"/>
<circle cx="492" cy="61" r="7" fill="#7fe3d0" opacity="0.9"/>
<circle cx="287" cy="141" r="6" fill="#7fe3d0" opacity="0.9"/>
<circle cx="602" cy="372" r="4" fill="#7fe3d0" opacity="0.9"/>
<circle cx="582" cy="235" r="6" fill="#7fe3d0" opacity="0.9"/>
<circle cx="602" cy="240" r="5" fill="#7fe3d0" opacity="0.9"/>
<circle cx="309" cy="137" r="6" fill="#7fe3d0" opacity="0.9"/>
<circle cx="686" cy="390" r="5" fill="#7fe3d0" opacity="0.9"/>
<circle cx="280" cy="254" r="4" fill="#7fe3d0" opacity="0.9"/>
<circle cx="680" cy="403" r="5" fill="#7fe3d0" opacity="0.9"/>
<circle cx="255" cy="218" r="4" fill="#7fe3d0" opacity="0.9"/>
<circle cx="161" cy="88" r="4" fill="#7fe3d0" opacity="0.9"/>
<circle cx="627" cy="409" r="4" fill="#7fe3d0" opacity="0.9"/>
  <text x="34" y="470" font-family="ui-monospace,Menlo,Consolas,monospace" font-size="22" fill="#ffffff" opacity="0.85">&lt;/&gt; Python</text>
</svg>