<svg xmlns="http://www.w3.org/2000/svg" viewBox="0 0 800 500" preserveAspectRatio="xMidYMid slice">
  <defs><linearGradient id="bg" x1="0" y1="0" x2="1" y2="1"><stop offset="0" stop-color="#101a36"/><stop offset="1" stop-color="#3a2467"/></linearGradient></defs>
  <rect width="800" height="500" fill="url(#bg)"/>
  <line x1="65" y1="286" x2="216" y2="343" stroke="#ff9e6d" stroke-width="1" opacity="0.30"/>
<line x1="311" y1="349" x2="278" y2="171" stroke="#ff9e6d" stroke-width="1" opacity="0.30"/>
<line x1="311" y1="349" x2="271" y2="341" stroke="#ff9e6d" stroke-width="1" opacity="0.30"/>
<line x1="311" y1="349" x2="216" y2="343" stroke="#ff9e6d" stroke-width="1" opacity="0.30"/>
<line x1="702" y1="119" x2="538" y2="202" stroke="#ff9e6d" stroke-width="1" opacity="0.30"/>
<line x1="702" y1="119" x2="616" y2="213" stroke="#ff9e6d" stroke-width="1" opacity="0.30"/>
<line x1="702" y1="119" x2="549" y2="75" stroke="#ff9e6d" stroke-width="1" opacity="0.30"/>
<line x1="702" y1="119" x2="624" y2="90" stroke="#ff9e6d" stroke-width="1" opacity="0.30"/>
<line x1="702" y1="119" x2="701" y2="98" stroke="#ff9e6d" stroke-width="1" opacity="0.30"/>
<line x1="538" y1="202" x2="616" y2="213" stroke="#ff9e6d" stroke-width="1" opacity="0.30"/>
<line x1="538" y1="202" x2="501" y2="310" stroke="#ff9e6d" stroke-width="1" opacity="0.30"/>
<line x1="538" y1="202" x2="549" y2="75" stroke="#ff9e6d" stroke-width="1" opacity="0.30"/>
<line x1="538" y1="202" x2="624" y2="90" stroke="#ff9e6d" stroke-width="1" opacity="0.30"/>
<line x1="616" y1="213" x2="501" y2="310" stroke="#ff9e6d" stroke-width="1" opacity="0.30"/>
<line x1="616" y1="213" x2="549" y2="75" stroke="#ff9e6d" stroke-width="1" opacity="0.30"/>
<line x1="616" y1="213" x2="624" y2="90" stroke="#ff9e6d" stroke-width="1" opacity="0.30"/>
<line x1="616" y1="213" x2="701" y2="98" stroke="#ff9e6d" stroke-width="1" opacity="0.30"/>
<line x1="278" y1="171" x2="271" y2="341" stroke="#ff9e6d" stroke-width="1" opacity="0.30"/>
<line x1="278" y1="171" x2="216" y2="343" stroke="#ff9e6d" stroke-width="1" opacity="0.30"/>
<line x1="271" y1="341" x2="216" y2="343" stroke="#ff9e6d" stroke-width="1" opacity="0.30"/>
<line x1="549" y1="75" x2="624" y2="90" stroke="#ff9e6d" stroke-width="1" opacity="0.30"/>
<line x1="549" y1="75" x2="701" y2="98" stroke="#ff9e6d" stroke-width="1" opacity="0.30"/>
<line x1="624" y1="90" x2="701" y2="98" stroke="#ff9e6d" stroke-width="1" opacity="0.30"/>
  <circle cx="65" cy="286" r="6" fill="#ff9e6d" opacity="0.9"/>
<circle cx="311" cy="349" r="4" fill="#ff9e6d" opacity="0.9"/>
<circle cx="717" cy="383" r="5" fill="#ff9e6d" opacity="0.9"/>
<circle cx="702" cy="119" r="3" fill="#ff9e6d" opacity="0.9"/>
<circle cx="538" cy="202" r="5" fill="#ff9e6d" opacity="0.9"/>
<circle cx="616" cy="213" r="5" fill="#ff9e6d" opacity="0.9"/>
<circle cx="278" cy="171" r="4" fill="#ff9e6d" opacity="0.9"/>
<circle cx="271" cy="341" r="4" fill="#ff9e6d" opacity="0.9"/>
<circle cx="216" cy="343" r="6" fill="#ff9e6d" opacity="0.9"/>
<circle cx="501" cy="310" r="4" fill="#ff9e6d" opacity="0.9"/>
<circle cx="549" cy="75" r="3" fill="#ff9e6d" opacity="0.9"/>
<circle cx="624" cy="90" r="6" fill="#ff9e6d" opacity="0.9"/>
<circle cx="701" cy="98" r="5" fill="#ff9e6d" opacity="0.9"/>
  <text x="34" y="470" font-family="ui-monospace,Menlo,Consolas,monospace" font-size="22" fill="#ffffff" opacity="0.85">&lt;/&gt; Python</text>
</svg>