<svg xmlns="http://www.w3.org/2000/svg" viewBox="0 0 800 500" preserveAspectRatio="xMidYMid slice">
  <defs><linearGradient id="bg" x1="0" y1="0" x2="1" y2="1"><stop offset="0" stop-color="#101a36"/><stop offset="1" stop-color="#3a2467"/></linearGradient></defs>
  <rect width="800" height="500" fill="url(#bg)"/>
  <line x1="605" y1="201" x2="569" y2="219" stroke="#ff9e6d" stroke-width="1" opacity="0.30"/>
<line x1="605" y1="201" x2="505" y2="266" stroke="#ff9e6d" stroke-width="1" opacity="0.30"/>
<line x1="605" y1="201" x2="546" y2="318" stroke="#ff9e6d" stroke-width="1" opacity="0.30"/>
<line x1="88" y1="265" x2="201" y2="272" stroke="#ff9e6d" stroke-width="1" opacity="0.30"/>
<line x1="88" y1="265" x2="124" y2="386" stroke="#ff9e6d" stroke-width="1" opacity="0.30"/>
<line x1="88" y1="265" x2="251" y2="346" stroke="#ff9e6d" stroke-width="1" opacity="0.30"/>
<line x1="88" y1="265" x2="116" y2="401" stroke="#ff9e6d" stroke-width="1" opacity="0.30"/>
<line x1="88" y1="265" x2="242" y2="212" stroke="#ff9e6d" stroke-width="1" opacity="0.30"/>
<line x1="201" y1="272" x2="124" y2="386" stroke="#ff9e6d" stroke-width="1" opacity="0.30"/>
<line x1="201" y1="272" x2="288" y2="135" stroke="#ff9e6d" stroke-width="1" opacity="0.30"/>
<line x1="201" y1="272" x2="251" y2="346" stroke="#ff9e6d" stroke-width="1" opacity="0.30"/>
<line x1="201" y1="272" x2="116" y2="401" stroke="#ff9e6d" stroke-width="1" opacity="0.30"/>
<line x1="201" y1="272" x2="242" y2="212" stroke="#ff9e6d" stroke-width="1" opacity="0.30"/>
<line x1="201" y1="272" x2="256" y2="162" stroke="#ff9e6d" stroke-width="1" opacity="0.30"/>
<line x1="124" y1="386" x2="251" y2="346" stroke="#ff9e6d" stroke-width="1" opacity="0.30"/>
<line x1="124" y1="386" x2="116" y2="401" stroke="#ff9e6d" stroke-width="1" opacity="0.30"/>
<line x1="288" y1="135" x2="242" y2="212" stroke="#ff9e6d" stroke-width="1" opacity="0.30"/>
<line x1="288" y1="135" x2="256" y2="162" stroke="#ff9e6d" stroke-width="1" opacity="0.30"/>
<line x1="288" y1="135" x2="440" y2="74" stroke="#ff9e6d" stroke-width="1" opacity="0.30"/>
<line x1="251" y1="346" x2="116" y2="401" stroke="#ff9e6d" stroke-width="1" opacity="0.30"/>
<line x1="251" y1="346" x2="242" y2="212" stroke="#ff9e6d" stroke-width="1" opacity="0.30"/>
<line x1="251" y1="346" x2="256" y2="162" stroke="#ff9e6d" stroke-width="1" opacity="0.30"/>
<line x1="242" y1="212" x2="256" y2="162" stroke="#ff9e6d" stroke-width="1" opacity="0.30"/>
<line x1="569" y1="219" x2="505" y2="266" stroke="#ff9e6d" stroke-width="1" opacity="0.30"/>
<line x1="569" y1="219" x2="546" y2="318" stroke="#ff9e6d" stroke-width="1" opacity="0.30"/>
<line x1="505" y1="266" x2="546" y2="318" stroke="#ff9e6d" stroke-width="1" opacity="0.30"/>
  <circle cx="605" cy="201" r="4" fill="#ff9e6d" opacity="0.9"/>
<circle cx="88" cy="265" r="5" fill="#ff9e6d" opacity="0.9"/>
<circle cx="201" cy="272" r="4" fill="#ff9e6d" opacity="0.9"/>
<circle cx="124" cy="386" r="6" fill="#ff9e6d" opacity="0.9"/>
<circle cx="288" cy="135" r="7" fill="#ff9e6d" opacity="0.9"/>
<circle cx="251" cy="346" r="4" fill="#ff9e6d" opacity="0.9"/>
<circle cx="116" cy="401" r="5" fill="#ff9e6d" opacity="0.9"/>
<circle cx="242" cy="212" r="7" fill="#ff9e6d" opacity="0.9"/>
<circle cx="569" cy="219" r="7" fill="#ff9e6d" opacity="0.9"/>
<circle cx="505" cy="266" r="5" fill="#ff9e6d" opacity="0.9"/>
<circle cx="256" cy="162" r="4" fill="#ff9e6d" opacity="0.9"/>
<circle cx="440" cy="74" r="6" fill="#ff9e6d" opacity="0.9"/>
<circle cx="546" cy="318" r="5" fill="#ff9e6d" opacity="0.9"/>
  <text x="34" y="470" font-family="ui-monospace,Menlo,Consolas,monospace" font-size="22" fill="#ffffff" opacity="0.85">&lt;/&gt; Jupyter Notebook</text>
</svg>