<svg xmlns="http://www.w3.org/2000/svg" viewBox="0 0 800 500" preserveAspectRatio="xMidYMid slice">
  <defs><linearGradient id="bg" x1="0" y1="0" x2="1" y2="1"><stop offset="0" stop-color="#160f38"/><stop offset="1" stop-color="#43306f"/></linearGradient></defs>
  <rect width="800" height="500" fill="url(#bg)"/>
  <line x1="159" y1="370" x2="121" y2="353" stroke="#ff6b9d" stroke-width="1" opacity="0.30"/>
<line x1="159" y1="370" x2="176" y2="317" stroke="#ff6b9d" stroke-width="1" opacity="0.30"/>
<line x1="253" y1="192" x2="388" y2="102" stroke="#ff6b9d" stroke-width="1" opacity="0.30"/>
<line x1="253" y1="192" x2="176" y2="317" stroke="#ff6b9d" stroke-width="1" opacity="0.30"/>
<line x1="388" y1="102" x2="461" y2="99" stroke="#ff6b9d" stroke-width="1" opacity="0.30"/>
<line x1="388" y1="102" x2="484" y2="252" stroke="#ff6b9d" stroke-width="1" opacity="0.30"/>
<line x1="580" y1="315" x2="693" y2="182" stroke="#ff6b9d" stroke-width="1" opacity="0.30"/>
<line x1="580" y1="315" x2="537" y2="359" stroke="#ff6b9d" stroke-width="1" opacity="0.30"/>
<line x1="580" y1="315" x2="577" y2="286" stroke="#ff6b9d" stroke-width="1" opacity="0.30"/>
<line x1="580" y1="315" x2="484" y2="252" stroke="#ff6b9d" stroke-width="1" opacity="0.30"/>
<line x1="372" y1="359" x2="537" y2="359" stroke="#ff6b9d" stroke-width="1" opacity="0.30"/>
<line x1="372" y1="359" x2="484" y2="252" stroke="#ff6b9d" stroke-width="1" opacity="0.30"/>
<line x1="632" y1="80" x2="693" y2="182" stroke="#ff6b9d" stroke-width="1" opacity="0.30"/>
<line x1="632" y1="80" x2="461" y2="99" stroke="#ff6b9d" stroke-width="1" opacity="0.30"/>
<line x1="693" y1="182" x2="577" y2="286" stroke="#ff6b9d" stroke-width="1" opacity="0.30"/>
<line x1="461" y1="99" x2="484" y2="252" stroke="#ff6b9d" stroke-width="1" opacity="0.30"/>
<line x1="121" y1="353" x2="176" y2="317" stroke="#ff6b9d" stroke-width="1" opacity="0.30"/>
<line x1="537" y1="359" x2="577" y2="286" stroke="#ff6b9d" stroke-width="1" opacity="0.30"/>
<line x1="537" y1="359" x2="484" y2="252" stroke="#ff6b9d" stroke-width="1" opacity="0.30"/>
<line x1="577" y1="286" x2="484" y2="252" stroke="#ff6b9d" stroke-width="1" opacity="0.30"/>
  <circle cx="159" cy="370" r="6" fill="#ff6b9d" opacity="0.9"/>
<circle cx="253" cy="192" r="4" fill="#ff6b9d" opacity="0.9"/>
<circle cx="388" cy="102" r="4" fill="#ff6b9d" opacity="0.9"/>
<circle cx="580" cy="315" r="5" fill="#ff6b9d" opacity="0.9"/>
<circle cx="372" cy="359" r="6" fill="#ff6b9d" opacity="0.9"/>
<circle cx="632" cy="80" r="5" fill="#ff6b9d" opacity="0.9"/>
<circle cx="693" cy="182" r="4" fill="#ff6b9d" opacity="0.9"/>
<circle cx="461" cy="99" r="4" fill="#ff6b9d" opacity="0.9"/>
<circle cx="121" cy="353" r="4" fill="#ff6b9d" opacity="0.9"/>
<circle cx="176" cy="317" r="6" fill="#ff6b9d" opacity="0.9"/>
<circle cx="537" cy="359" r="7" fill="#ff6b9d" opacity="0.9"/>
<circle cx="577" cy="286" r="6" fill="#ff6b9d" opacity="0.9"/>
<circle cx="484" cy="252" r="6" fill="#ff6b9d" opacity="0.9"/>
  <text x="34" y="470" font-family="ui-monospace,Menlo,Consolas,monospace" font-size="22" fill="#ffffff" opacity="0.85">&lt;/&gt; Python</text>
</svg>