<svg xmlns="http://www.w3.org/2000/svg" viewBox="0 0 800 600" preserveAspectRatio="xMidYMid slice">
  <defs>
    <linearGradient id="sky" x1="0" y1="0" x2="0" y2="1">
      <stop offset="0" stop-color="#0e1730"/><stop offset="0.55" stop-color="#292053"/><stop offset="1" stop-color="#ff9e6d"/>
    </linearGradient>
    <radialGradient id="orb" cx="0.5" cy="0.5" r="0.5">
      <stop offset="0" stop-color="#ffa97e" stop-opacity="0.95"/><stop offset="1" stop-color="#ffa97e" stop-opacity="0"/>
    </radialGradient>
  </defs>
  <rect width="800" height="600" fill="url(#sky)"/>
  <circle cx="480" cy="132" r="120" fill="url(#orb)"/>
  <circle cx="480" cy="132" r="38" fill="#ffa97e" opacity="0.9"/>
  <path d="M0,600 L0,323 L24,272 L48,328 L72,304 L96,299 L120,268 L144,298 L168,312 L192,294 L216,251 L240,268 L264,235 L288,293 L312,293 L336,290 L360,243 L384,282 L408,295 L432,237 L456,297 L480,237 L504,232 L528,302 L552,251 L576,300 L600,245 L624,318 L648,302 L672,308 L696,311 L720,279 L744,307 L768,344 L792,321 L800,600 Z" fill="#271f50" opacity="0.55"/>
  <path d="M0,600 L0,407 L24,412 L48,340 L72,390 L96,290 L120,357 L144,367 L168,279 L192,316 L216,339 L240,256 L264,267 L288,313 L312,328 L336,339 L360,292 L384,282 L408,275 L432,294 L456,311 L480,284 L504,271 L528,266 L552,365 L576,348 L600,273 L624,273 L648,362 L672,378 L696,377 L720,324 L744,407 L768,418 L792,316 L800,600 Z" fill="#1f1d48" opacity="0.85"/>
  <path d="M0,600 L0,376 L24,365 L48,355 L72,449 L96,382 L120,469 L144,343 L168,451 L192,321 L216,365 L240,372 L264,412 L288,420 L312,304 L336,389 L360,331 L384,412 L408,350 L432,318 L456,291 L480,351 L504,286 L528,304 L552,295 L576,301 L600,327 L624,357 L648,353 L672,349 L696,479 L720,485 L744,498 L768,442 L792,509 L800,600 Z" fill="#080e1d" opacity="1.0"/>
</svg>