<svg xmlns="http://www.w3.org/2000/svg" viewBox="0 0 800 600" preserveAspectRatio="xMidYMid slice">
  <defs>
    <linearGradient id="sky" x1="0" y1="0" x2="0" y2="1">
      <stop offset="0" stop-color="#0c1834"/><stop offset="0.55" stop-color="#1e1b48"/><stop offset="1" stop-color="#5eead4"/>
    </linearGradient>
    <radialGradient id="orb" cx="0.5" cy="0.5" r="0.5">
      <stop offset="0" stop-color="#71ecd9" stop-opacity="0.95"/><stop offset="1" stop-color="#71ecd9" stop-opacity="0"/>
    </radialGradient>
  </defs>
  <rect width="800" height="600" fill="url(#sky)"/>
  <circle cx="480" cy="132" r="120" fill="url(#orb)"/>
  <circle cx="480" cy="132" r="38" fill="#71ecd9" opacity="0.9"/>
  <path d="M0,600 L0,314 L24,301 L48,291 L72,310 L96,329 L120,256 L144,319 L168,307 L192,245 L216,238 L240,272 L264,303 L288,242 L312,267 L336,229 L360,274 L384,298 L408,259 L432,285 L456,277 L480,238 L504,235 L528,304 L552,306 L576,286 L600,306 L624,269 L648,296 L672,325 L696,266 L720,288 L744,278 L768,296 L792,313 L800,600 Z" fill="#1d1b47" opacity="0.55"/>
  <path d="M0,600 L0,424 L24,349 L48,354 L72,366 L96,303 L120,283 L144,318 L168,277 L192,373 L216,294 L240,325 L264,319 L288,335 L312,318 L336,350 L360,351 L384,349 L408,261 L432,320 L456,314 L480,351 L504,358 L528,317 L552,365 L576,348 L600,361 L624,295 L648,368 L672,361 L696,296 L720,327 L744,404 L768,354 L792,316 L800,600 Z" fill="#181b43" opacity="0.85"/>
  <path d="M0,600 L0,443 L24,488 L48,409 L72,359 L96,468 L120,330 L144,424 L168,336 L192,307 L216,432 L240,426 L264,405 L288,382 L312,409 L336,357 L360,277 L384,309 L408,321 L432,284 L456,281 L480,422 L504,291 L528,410 L552,343 L576,413 L600,345 L624,416 L648,438 L672,444 L696,434 L720,352 L744,361 L768,367 L792,394 L800,600 Z" fill="#070e1f" opacity="1.0"/>
</svg>