<svg xmlns="http://www.w3.org/2000/svg" viewBox="0 0 800 600" preserveAspectRatio="xMidYMid slice">
  <defs>
    <linearGradient id="sky" x1="0" y1="0" x2="0" y2="1">
      <stop offset="0" stop-color="#0e1730"/><stop offset="0.55" stop-color="#292053"/><stop offset="1" stop-color="#ff9e6d"/>
    </linearGradient>
    <radialGradient id="orb" cx="0.5" cy="0.5" r="0.5">
      <stop offset="0" stop-color="#ffa97e" stop-opacity="0.95"/><stop offset="1" stop-color="#ffa97e" stop-opacity="0"/>
    </radialGradient>
  </defs>
  <rect width="800" height="600" fill="url(#sky)"/>
  <circle cx="240" cy="156" r="120" fill="url(#orb)"/>
  <circle cx="240" cy="156" r="38" fill="#ffa97e" opacity="0.9"/>
  <path d="M0,600 L0,334 L24,340 L48,271 L72,330 L96,285 L120,304 L144,286 L168,310 L192,260 L216,298 L240,307 L264,264 L288,302 L312,299 L336,239 L360,243 L384,278 L408,249 L432,240 L456,299 L480,292 L504,301 L528,248 L552,238 L576,299 L600,279 L624,318 L648,268 L672,290 L696,278 L720,320 L744,330 L768,344 L792,346 L800,600 Z" fill="#271f50" opacity="0.55"/>
  <path d="M0,600 L0,357 L24,409 L48,318 L72,318 L96,345 L120,368 L144,379 L168,285 L192,308 L216,302 L240,296 L264,360 L288,249 L312,340 L336,253 L360,244 L384,253 L408,276 L432,279 L456,349 L480,260 L504,325 L528,253 L552,311 L576,264 L600,372 L624,377 L648,342 L672,292 L696,354 L720,369 L744,306 L768,411 L792,346 L800,600 Z" fill="#1f1d48" opacity="0.85"/>
  <path d="M0,600 L0,409 L24,485 L48,494 L72,422 L96,393 L120,354 L144,370 L168,313 L192,441 L216,385 L240,373 L264,291 L288,290 L312,306 L336,316 L360,301 L384,374 L408,318 L432,374 L456,279 L480,422 L504,302 L528,428 L552,392 L576,328 L600,438 L624,380 L648,372 L672,335 L696,427 L720,370 L744,489 L768,368 L792,511 L800,600 Z" fill="#080e1d" opacity="1.0"/>
</svg>