<svg xmlns="http://www.w3.org/2000/svg" viewBox="0 0 800 600" preserveAspectRatio="xMidYMid slice">
  <defs>
    <linearGradient id="sky" x1="0" y1="0" x2="0" y2="1">
      <stop offset="0" stop-color="#0e2038"/><stop offset="0.55" stop-color="#2c4469"/><stop offset="1" stop-color="#ffd49a"/>
    </linearGradient>
    <radialGradient id="orb" cx="0.5" cy="0.5" r="0.5">
      <stop offset="0" stop-color="#ffd9a6" stop-opacity="0.95"/><stop offset="1" stop-color="#ffd9a6" stop-opacity="0"/>
    </radialGradient>
  </defs>
  <rect width="800" height="600" fill="url(#sky)"/>
  <circle cx="656" cy="204" r="120" fill="url(#orb)"/>
  <circle cx="656" cy="204" r="38" fill="#ffd9a6" opacity="0.9"/>
  <path d="M0,600 L0,344 L24,333 L48,267 L72,264 L96,259 L120,258 L144,274 L168,303 L192,252 L216,256 L240,241 L264,236 L288,298 L312,235 L336,258 L360,260 L384,226 L408,245 L432,292 L456,267 L480,246 L504,241 L528,261 L552,288 L576,267 L600,312 L624,318 L648,303 L672,279 L696,330 L720,273 L744,338 L768,284 L792,331 L800,600 Z" fill="#294166" opacity="0.55"/>
  <path d="M0,600 L0,423 L24,414 L48,410 L72,319 L96,306 L120,283 L144,282 L168,273 L192,344 L216,295 L240,363 L264,344 L288,249 L312,246 L336,352 L360,311 L384,268 L408,324 L432,260 L456,247 L480,249 L504,320 L528,361 L552,365 L576,362 L600,302 L624,284 L648,279 L672,290 L696,377 L720,342 L744,374 L768,408 L792,423 L800,600 Z" fill="#213859" opacity="0.85"/>
  <path d="M0,600 L0,380 L24,492 L48,392 L72,413 L96,437 L120,460 L144,459 L168,326 L192,363 L216,310 L240,332 L264,295 L288,308 L312,413 L336,393 L360,391 L384,392 L408,345 L432,343 L456,301 L480,327 L504,297 L528,296 L552,371 L576,434 L600,366 L624,327 L648,457 L672,377 L696,340 L720,386 L744,377 L768,367 L792,502 L800,600 Z" fill="#081322" opacity="1.0"/>
</svg>