<svg xmlns="http://www.w3.org/2000/svg" viewBox="0 0 800 600" preserveAspectRatio="xMidYMid slice">
  <defs>
    <linearGradient id="sky" x1="0" y1="0" x2="0" y2="1">
      <stop offset="0" stop-color="#0e1730"/><stop offset="0.55" stop-color="#292053"/><stop offset="1" stop-color="#ff9e6d"/>
    </linearGradient>
    <radialGradient id="orb" cx="0.5" cy="0.5" r="0.5">
      <stop offset="0" stop-color="#ffa97e" stop-opacity="0.95"/><stop offset="1" stop-color="#ffa97e" stop-opacity="0"/>
    </radialGradient>
  </defs>
  <rect width="800" height="600" fill="url(#sky)"/>
  <circle cx="480" cy="132" r="120" fill="url(#orb)"/>
  <circle cx="480" cy="132" r="38" fill="#ffa97e" opacity="0.9"/>
  <path d="M0,600 L0,276 L24,331 L48,267 L72,309 L96,259 L120,253 L144,316 L168,317 L192,306 L216,309 L240,302 L264,246 L288,246 L312,232 L336,230 L360,228 L384,295 L408,262 L432,237 L456,288 L480,301 L504,231 L528,298 L552,241 L576,260 L600,313 L624,277 L648,254 L672,308 L696,278 L720,296 L744,313 L768,274 L792,325 L800,600 Z" fill="#271f50" opacity="0.55"/>
  <path d="M0,600 L0,423 L24,318 L48,322 L72,403 L96,296 L120,381 L144,323 L168,361 L192,313 L216,320 L240,269 L264,356 L288,313 L312,332 L336,320 L360,255 L384,260 L408,247 L432,333 L456,311 L480,247 L504,279 L528,347 L552,295 L576,327 L600,267 L624,378 L648,318 L672,349 L696,342 L720,340 L744,342 L768,316 L792,317 L800,600 Z" fill="#1f1d48" opacity="0.85"/>
  <path d="M0,600 L0,503 L24,465 L48,426 L72,388 L96,397 L120,364 L144,337 L168,327 L192,445 L216,321 L240,320 L264,426 L288,351 L312,421 L336,416 L360,302 L384,401 L408,372 L432,335 L456,360 L480,391 L504,286 L528,390 L552,415 L576,417 L600,354 L624,452 L648,323 L672,339 L696,449 L720,359 L744,441 L768,507 L792,416 L800,600 Z" fill="#080e1d" opacity="1.0"/>
</svg>