<svg xmlns="http://www.w3.org/2000/svg" viewBox="0 0 800 600" preserveAspectRatio="xMidYMid slice">
  <defs>
    <linearGradient id="sky" x1="0" y1="0" x2="0" y2="1">
      <stop offset="0" stop-color="#0c1834"/><stop offset="0.55" stop-color="#1e1b48"/><stop offset="1" stop-color="#5eead4"/>
    </linearGradient>
    <radialGradient id="orb" cx="0.5" cy="0.5" r="0.5">
      <stop offset="0" stop-color="#71ecd9" stop-opacity="0.95"/><stop offset="1" stop-color="#71ecd9" stop-opacity="0"/>
    </radialGradient>
  </defs>
  <rect width="800" height="600" fill="url(#sky)"/>
  <circle cx="592" cy="180" r="120" fill="url(#orb)"/>
  <circle cx="592" cy="180" r="38" fill="#71ecd9" opacity="0.9"/>
  <path d="M0,600 L0,330 L24,273 L48,270 L72,267 L96,293 L120,320 L144,249 L168,298 L192,242 L216,252 L240,246 L264,236 L288,249 L312,255 L336,294 L360,275 L384,278 L408,296 L432,269 L456,297 L480,255 L504,289 L528,287 L552,236 L576,240 L600,283 L624,310 L648,317 L672,273 L696,309 L720,301 L744,324 L768,273 L792,345 L800,600 Z" fill="#1d1b47" opacity="0.55"/>
  <path d="M0,600 L0,396 L24,395 L48,305 L72,364 L96,290 L120,391 L144,370 L168,379 L192,307 L216,293 L240,257 L264,359 L288,300 L312,268 L336,304 L360,344 L384,336 L408,276 L432,259 L456,353 L480,340 L504,352 L528,260 L552,351 L576,369 L600,284 L624,297 L648,343 L672,329 L696,358 L720,405 L744,412 L768,393 L792,393 L800,600 Z" fill="#181b43" opacity="0.85"/>
  <path d="M0,600 L0,465 L24,409 L48,404 L72,421 L96,454 L120,456 L144,321 L168,453 L192,324 L216,382 L240,296 L264,378 L288,404 L312,297 L336,280 L360,336 L384,383 L408,388 L432,290 L456,282 L480,377 L504,312 L528,318 L552,416 L576,306 L600,431 L624,395 L648,455 L672,461 L696,412 L720,395 L744,497 L768,393 L792,507 L800,600 Z" fill="#070e1f" opacity="1.0"/>
</svg>