<svg xmlns="http://www.w3.org/2000/svg" viewBox="0 0 800 600" preserveAspectRatio="xMidYMid slice">
  <defs>
    <linearGradient id="sky" x1="0" y1="0" x2="0" y2="1">
      <stop offset="0" stop-color="#0e2038"/><stop offset="0.55" stop-color="#2c4469"/><stop offset="1" stop-color="#ffd49a"/>
    </linearGradient>
    <radialGradient id="orb" cx="0.5" cy="0.5" r="0.5">
      <stop offset="0" stop-color="#ffd9a6" stop-opacity="0.95"/><stop offset="1" stop-color="#ffd9a6" stop-opacity="0"/>
    </radialGradient>
  </defs>
  <rect width="800" height="600" fill="url(#sky)"/>
  <circle cx="480" cy="132" r="120" fill="url(#orb)"/>
  <circle cx="480" cy="132" r="38" fill="#ffd9a6" opacity="0.9"/>
  <path d="M0,600 L0,312 L24,332 L48,313 L72,319 L96,278 L120,325 L144,251 L168,245 L192,310 L216,262 L240,235 L264,249 L288,239 L312,271 L336,292 L360,226 L384,295 L408,261 L432,249 L456,289 L480,229 L504,256 L528,237 L552,298 L576,245 L600,295 L624,295 L648,250 L672,304 L696,259 L720,279 L744,310 L768,341 L792,291 L800,600 Z" fill="#294166" opacity="0.55"/>
  <path d="M0,600 L0,318 L24,419 L48,401 L72,347 L96,338 L120,319 L144,277 L168,365 L192,292 L216,305 L240,283 L264,266 L288,294 L312,247 L336,352 L360,260 L384,316 L408,322 L432,243 L456,281 L480,247 L504,351 L528,270 L552,274 L576,295 L600,269 L624,281 L648,311 L672,288 L696,302 L720,376 L744,354 L768,314 L792,413 L800,600 Z" fill="#213859" opacity="0.85"/>
  <path d="M0,600 L0,410 L24,386 L48,492 L72,388 L96,346 L120,445 L144,453 L168,436 L192,375 L216,390 L240,299 L264,291 L288,360 L312,284 L336,280 L360,303 L384,395 L408,335 L432,333 L456,358 L480,283 L504,321 L528,427 L552,435 L576,410 L600,369 L624,441 L648,407 L672,338 L696,470 L720,349 L744,361 L768,388 L792,480 L800,600 Z" fill="#081322" opacity="1.0"/>
</svg>