<svg xmlns="http://www.w3.org/2000/svg" viewBox="0 0 800 600" preserveAspectRatio="xMidYMid slice">
  <defs>
    <linearGradient id="sky" x1="0" y1="0" x2="0" y2="1">
      <stop offset="0" stop-color="#0e2038"/><stop offset="0.55" stop-color="#2c4469"/><stop offset="1" stop-color="#ffd49a"/>
    </linearGradient>
    <radialGradient id="orb" cx="0.5" cy="0.5" r="0.5">
      <stop offset="0" stop-color="#ffd9a6" stop-opacity="0.95"/><stop offset="1" stop-color="#ffd9a6" stop-opacity="0"/>
    </radialGradient>
  </defs>
  <rect width="800" height="600" fill="url(#sky)"/>
  <circle cx="480" cy="132" r="120" fill="url(#orb)"/>
  <circle cx="480" cy="132" r="38" fill="#ffd9a6" opacity="0.9"/>
  <path d="M0,600 L0,313 L24,319 L48,314 L72,278 L96,310 L120,298 L144,253 L168,316 L192,293 L216,307 L240,277 L264,297 L288,300 L312,280 L336,230 L360,229 L384,229 L408,234 L432,227 L456,297 L480,230 L504,233 L528,302 L552,307 L576,245 L600,296 L624,314 L648,264 L672,268 L696,330 L720,270 L744,333 L768,275 L792,308 L800,600 Z" fill="#294166" opacity="0.55"/>
  <path d="M0,600 L0,410 L24,409 L48,395 L72,395 L96,396 L120,325 L144,352 L168,305 L192,354 L216,312 L240,285 L264,360 L288,332 L312,346 L336,284 L360,288 L384,253 L408,344 L432,309 L456,347 L480,269 L504,257 L528,316 L552,292 L576,273 L600,275 L624,275 L648,311 L672,314 L696,351 L720,304 L744,406 L768,326 L792,324 L800,600 Z" fill="#213859" opacity="0.85"/>
  <path d="M0,600 L0,481 L24,375 L48,480 L72,486 L96,467 L120,457 L144,361 L168,314 L192,446 L216,348 L240,350 L264,404 L288,326 L312,281 L336,383 L360,365 L384,351 L408,285 L432,299 L456,314 L480,405 L504,374 L528,290 L552,396 L576,439 L600,447 L624,428 L648,403 L672,467 L696,453 L720,470 L744,415 L768,382 L792,404 L800,600 Z" fill="#081322" opacity="1.0"/>
</svg>