<svg xmlns="http://www.w3.org/2000/svg" viewBox="0 0 800 600" preserveAspectRatio="xMidYMid slice">
  <defs>
    <linearGradient id="sky" x1="0" y1="0" x2="0" y2="1">
      <stop offset="0" stop-color="#0e2038"/><stop offset="0.55" stop-color="#2c4469"/><stop offset="1" stop-color="#ffd49a"/>
    </linearGradient>
    <radialGradient id="orb" cx="0.5" cy="0.5" r="0.5">
      <stop offset="0" stop-color="#ffd9a6" stop-opacity="0.95"/><stop offset="1" stop-color="#ffd9a6" stop-opacity="0"/>
    </radialGradient>
  </defs>
  <rect width="800" height="600" fill="url(#sky)"/>
  <circle cx="656" cy="204" r="120" fill="url(#orb)"/>
  <circle cx="656" cy="204" r="38" fill="#ffd9a6" opacity="0.9"/>
  <path d="M0,600 L0,312 L24,279 L48,271 L72,331 L96,268 L120,275 L144,253 L168,313 L192,266 L216,252 L240,304 L264,250 L288,234 L312,270 L336,260 L360,286 L384,227 L408,227 L432,297 L456,295 L480,298 L504,234 L528,241 L552,300 L576,305 L600,242 L624,260 L648,304 L672,310 L696,325 L720,263 L744,335 L768,336 L792,308 L800,600 Z" fill="#294166" opacity="0.55"/>
  <path d="M0,600 L0,423 L24,388 L48,411 L72,330 L96,290 L120,332 L144,358 L168,272 L192,266 L216,368 L240,362 L264,358 L288,263 L312,347 L336,305 L360,256 L384,322 L408,249 L432,270 L456,245 L480,252 L504,265 L528,254 L552,259 L576,357 L600,274 L624,284 L648,279 L672,385 L696,312 L720,406 L744,343 L768,366 L792,317 L800,600 Z" fill="#213859" opacity="0.85"/>
  <path d="M0,600 L0,402 L24,480 L48,474 L72,437 L96,353 L120,462 L144,459 L168,359 L192,306 L216,356 L240,416 L264,323 L288,291 L312,418 L336,415 L360,416 L384,394 L408,407 L432,277 L456,388 L480,339 L504,387 L528,291 L552,432 L576,436 L600,332 L624,332 L648,345 L672,454 L696,449 L720,484 L744,411 L768,507 L792,382 L800,600 Z" fill="#081322" opacity="1.0"/>
</svg>