<svg xmlns="http://www.w3.org/2000/svg" viewBox="0 0 800 600" preserveAspectRatio="xMidYMid slice">
  <defs>
    <linearGradient id="sky" x1="0" y1="0" x2="0" y2="1">
      <stop offset="0" stop-color="#0e2038"/><stop offset="0.55" stop-color="#2c4469"/><stop offset="1" stop-color="#ffd49a"/>
    </linearGradient>
    <radialGradient id="orb" cx="0.5" cy="0.5" r="0.5">
      <stop offset="0" stop-color="#ffd9a6" stop-opacity="0.95"/><stop offset="1" stop-color="#ffd9a6" stop-opacity="0"/>
    </radialGradient>
  </defs>
  <rect width="800" height="600" fill="url(#sky)"/>
  <circle cx="592" cy="180" r="120" fill="url(#orb)"/>
  <circle cx="592" cy="180" r="38" fill="#ffd9a6" opacity="0.9"/>
  <path d="M0,600 L0,348 L24,273 L48,269 L72,263 L96,326 L120,258 L144,257 L168,256 L192,307 L216,240 L240,276 L264,234 L288,231 L312,269 L336,292 L360,282 L384,295 L408,228 L432,290 L456,298 L480,248 L504,294 L528,255 L552,238 L576,256 L600,258 L624,249 L648,250 L672,313 L696,330 L720,284 L744,337 L768,300 L792,346 L800,600 Z" fill="#294166" opacity="0.55"/>
  <path d="M0,600 L0,324 L24,361 L48,318 L72,404 L96,295 L120,283 L144,367 L168,328 L192,369 L216,325 L240,312 L264,255 L288,257 L312,247 L336,343 L360,348 L384,322 L408,348 L432,334 L456,297 L480,264 L504,258 L528,312 L552,335 L576,281 L600,274 L624,357 L648,279 L672,357 L696,379 L720,402 L744,315 L768,419 L792,394 L800,600 Z" fill="#213859" opacity="0.85"/>
  <path d="M0,600 L0,498 L24,492 L48,394 L72,395 L96,425 L120,399 L144,449 L168,452 L192,444 L216,400 L240,357 L264,292 L288,347 L312,421 L336,299 L360,402 L384,416 L408,416 L432,354 L456,384 L480,326 L504,380 L528,430 L552,397 L576,362 L600,308 L624,428 L648,440 L672,440 L696,479 L720,425 L744,359 L768,368 L792,377 L800,600 Z" fill="#081322" opacity="1.0"/>
</svg>