<svg xmlns="http://www.w3.org/2000/svg" viewBox="0 0 800 600" preserveAspectRatio="xMidYMid slice">
  <defs>
    <linearGradient id="sky" x1="0" y1="0" x2="0" y2="1">
      <stop offset="0" stop-color="#0e1730"/><stop offset="0.55" stop-color="#292053"/><stop offset="1" stop-color="#ff9e6d"/>
    </linearGradient>
    <radialGradient id="orb" cx="0.5" cy="0.5" r="0.5">
      <stop offset="0" stop-color="#ffa97e" stop-opacity="0.95"/><stop offset="1" stop-color="#ffa97e" stop-opacity="0"/>
    </radialGradient>
  </defs>
  <rect width="800" height="600" fill="url(#sky)"/>
  <circle cx="240" cy="156" r="120" fill="url(#orb)"/>
  <circle cx="240" cy="156" r="38" fill="#ffa97e" opacity="0.9"/>
  <path d="M0,600 L0,277 L24,281 L48,286 L72,296 L96,266 L120,283 L144,256 L168,265 L192,260 L216,248 L240,282 L264,257 L288,234 L312,229 L336,228 L360,260 L384,277 L408,245 L432,227 L456,230 L480,239 L504,284 L528,257 L552,245 L576,285 L600,249 L624,248 L648,305 L672,324 L696,262 L720,333 L744,292 L768,341 L792,316 L800,600 Z" fill="#271f50" opacity="0.55"/>
  <path d="M0,600 L0,413 L24,334 L48,402 L72,386 L96,357 L120,289 L144,293 L168,297 L192,292 L216,263 L240,362 L264,295 L288,347 L312,340 L336,310 L360,346 L384,343 L408,343 L432,257 L456,341 L480,354 L504,354 L528,346 L552,334 L576,276 L600,269 L624,359 L648,316 L672,390 L696,294 L720,381 L744,311 L768,368 L792,317 L800,600 Z" fill="#1f1d48" opacity="0.85"/>
  <path d="M0,600 L0,396 L24,428 L48,388 L72,416 L96,442 L120,389 L144,346 L168,431 L192,445 L216,329 L240,309 L264,302 L288,387 L312,415 L336,418 L360,417 L384,374 L408,309 L432,305 L456,400 L480,387 L504,408 L528,419 L552,412 L576,422 L600,308 L624,426 L648,324 L672,419 L696,475 L720,382 L744,498 L768,496 L792,509 L800,600 Z" fill="#080e1d" opacity="1.0"/>
</svg>