<svg xmlns="http://www.w3.org/2000/svg" viewBox="0 0 800 600" preserveAspectRatio="xMidYMid slice">
  <defs>
    <linearGradient id="sky" x1="0" y1="0" x2="0" y2="1">
      <stop offset="0" stop-color="#0e1730"/><stop offset="0.55" stop-color="#292053"/><stop offset="1" stop-color="#ff9e6d"/>
    </linearGradient>
    <radialGradient id="orb" cx="0.5" cy="0.5" r="0.5">
      <stop offset="0" stop-color="#ffa97e" stop-opacity="0.95"/><stop offset="1" stop-color="#ffa97e" stop-opacity="0"/>
    </radialGradient>
  </defs>
  <rect width="800" height="600" fill="url(#sky)"/>
  <circle cx="240" cy="156" r="120" fill="url(#orb)"/>
  <circle cx="240" cy="156" r="38" fill="#ffa97e" opacity="0.9"/>
  <path d="M0,600 L0,313 L24,331 L48,323 L72,325 L96,319 L120,257 L144,319 L168,316 L192,266 L216,304 L240,299 L264,252 L288,290 L312,254 L336,242 L360,239 L384,234 L408,282 L432,265 L456,283 L480,233 L504,238 L528,246 L552,305 L576,308 L600,267 L624,274 L648,250 L672,320 L696,304 L720,264 L744,330 L768,296 L792,323 L800,600 Z" fill="#271f50" opacity="0.55"/>
  <path d="M0,600 L0,321 L24,354 L48,322 L72,404 L96,311 L120,305 L144,327 L168,295 L192,312 L216,362 L240,355 L264,339 L288,349 L312,294 L336,351 L360,256 L384,349 L408,320 L432,324 L456,326 L480,309 L504,261 L528,339 L552,313 L576,286 L600,311 L624,380 L648,354 L672,285 L696,295 L720,390 L744,379 L768,367 L792,339 L800,600 Z" fill="#1f1d48" opacity="0.85"/>
  <path d="M0,600 L0,468 L24,413 L48,406 L72,471 L96,365 L120,415 L144,322 L168,318 L192,320 L216,317 L240,423 L264,428 L288,418 L312,419 L336,369 L360,333 L384,395 L408,374 L432,409 L456,321 L480,422 L504,423 L528,406 L552,435 L576,376 L600,312 L624,400 L648,343 L672,415 L696,479 L720,360 L744,488 L768,499 L792,511 L800,600 Z" fill="#080e1d" opacity="1.0"/>
</svg>