<svg xmlns="http://www.w3.org/2000/svg" viewBox="0 0 800 600" preserveAspectRatio="xMidYMid slice">
  <defs>
    <linearGradient id="sky" x1="0" y1="0" x2="0" y2="1">
      <stop offset="0" stop-color="#0e2038"/><stop offset="0.55" stop-color="#2c4469"/><stop offset="1" stop-color="#ffd49a"/>
    </linearGradient>
    <radialGradient id="orb" cx="0.5" cy="0.5" r="0.5">
      <stop offset="0" stop-color="#ffd9a6" stop-opacity="0.95"/><stop offset="1" stop-color="#ffd9a6" stop-opacity="0"/>
    </radialGradient>
  </defs>
  <rect width="800" height="600" fill="url(#sky)"/>
  <circle cx="592" cy="180" r="120" fill="url(#orb)"/>
  <circle cx="592" cy="180" r="38" fill="#ffd9a6" opacity="0.9"/>
  <path d="M0,600 L0,303 L24,282 L48,320 L72,325 L96,329 L120,280 L144,269 L168,276 L192,311 L216,303 L240,240 L264,259 L288,290 L312,288 L336,271 L360,226 L384,226 L408,266 L432,229 L456,227 L480,229 L504,284 L528,260 L552,252 L576,305 L600,313 L624,317 L648,321 L672,256 L696,297 L720,334 L744,268 L768,335 L792,309 L800,600 Z" fill="#294166" opacity="0.55"/>
  <path d="M0,600 L0,383 L24,409 L48,341 L72,404 L96,314 L120,391 L144,301 L168,372 L192,272 L216,275 L240,265 L264,348 L288,266 L312,289 L336,255 L360,278 L384,349 L408,247 L432,344 L456,292 L480,258 L504,254 L528,358 L552,324 L576,266 L600,375 L624,379 L648,279 L672,311 L696,328 L720,406 L744,398 L768,410 L792,316 L800,600 Z" fill="#213859" opacity="0.85"/>
  <path d="M0,600 L0,475 L24,496 L48,480 L72,430 L96,371 L120,341 L144,348 L168,448 L192,420 L216,345 L240,431 L264,408 L288,285 L312,296 L336,331 L360,405 L384,376 L408,372 L432,277 L456,383 L480,420 L504,326 L528,343 L552,391 L576,310 L600,315 L624,324 L648,323 L672,335 L696,467 L720,488 L744,483 L768,507 L792,493 L800,600 Z" fill="#081322" opacity="1.0"/>
</svg>