<svg xmlns="http://www.w3.org/2000/svg" viewBox="0 0 800 600" preserveAspectRatio="xMidYMid slice">
  <defs>
    <linearGradient id="sky" x1="0" y1="0" x2="0" y2="1">
      <stop offset="0" stop-color="#0e2038"/><stop offset="0.55" stop-color="#2c4469"/><stop offset="1" stop-color="#ffd49a"/>
    </linearGradient>
    <radialGradient id="orb" cx="0.5" cy="0.5" r="0.5">
      <stop offset="0" stop-color="#ffd9a6" stop-opacity="0.95"/><stop offset="1" stop-color="#ffd9a6" stop-opacity="0"/>
    </radialGradient>
  </defs>
  <rect width="800" height="600" fill="url(#sky)"/>
  <circle cx="592" cy="180" r="120" fill="url(#orb)"/>
  <circle cx="592" cy="180" r="38" fill="#ffd9a6" opacity="0.9"/>
  <path d="M0,600 L0,344 L24,319 L48,267 L72,328 L96,257 L120,312 L144,258 L168,308 L192,261 L216,248 L240,242 L264,296 L288,231 L312,244 L336,232 L360,237 L384,235 L408,297 L432,226 L456,245 L480,294 L504,232 L528,297 L552,305 L576,307 L600,278 L624,246 L648,253 L672,262 L696,264 L720,335 L744,340 L768,273 L792,344 L800,600 Z" fill="#294166" opacity="0.55"/>
  <path d="M0,600 L0,395 L24,327 L48,306 L72,337 L96,394 L120,332 L144,282 L168,292 L192,315 L216,324 L240,362 L264,273 L288,356 L312,354 L336,345 L360,243 L384,330 L408,253 L432,277 L456,315 L480,250 L504,304 L528,335 L552,259 L576,326 L600,267 L624,338 L648,319 L672,369 L696,297 L720,301 L744,410 L768,391 L792,317 L800,600 Z" fill="#213859" opacity="0.85"/>
  <path d="M0,600 L0,485 L24,503 L48,356 L72,384 L96,389 L120,390 L144,452 L168,324 L192,310 L216,332 L240,401 L264,398 L288,424 L312,362 L336,403 L360,311 L384,398 L408,392 L432,303 L456,414 L480,339 L504,406 L528,352 L552,347 L576,303 L600,445 L624,394 L648,323 L672,447 L696,378 L720,387 L744,488 L768,372 L792,467 L800,600 Z" fill="#081322" opacity="1.0"/>
</svg>