<svg xmlns="http://www.w3.org/2000/svg" viewBox="0 0 800 600" preserveAspectRatio="xMidYMid slice">
  <defs>
    <linearGradient id="sky" x1="0" y1="0" x2="0" y2="1">
      <stop offset="0" stop-color="#0c1834"/><stop offset="0.55" stop-color="#1e1b48"/><stop offset="1" stop-color="#5eead4"/>
    </linearGradient>
    <radialGradient id="orb" cx="0.5" cy="0.5" r="0.5">
      <stop offset="0" stop-color="#71ecd9" stop-opacity="0.95"/><stop offset="1" stop-color="#71ecd9" stop-opacity="0"/>
    </radialGradient>
  </defs>
  <rect width="800" height="600" fill="url(#sky)"/>
  <circle cx="480" cy="132" r="120" fill="url(#orb)"/>
  <circle cx="480" cy="132" r="38" fill="#71ecd9" opacity="0.9"/>
  <path d="M0,600 L0,316 L24,277 L48,299 L72,334 L96,273 L120,267 L144,296 L168,254 L192,310 L216,308 L240,289 L264,252 L288,254 L312,256 L336,269 L360,268 L384,232 L408,230 L432,226 L456,243 L480,251 L504,299 L528,304 L552,275 L576,273 L600,245 L624,248 L648,295 L672,254 L696,269 L720,327 L744,336 L768,305 L792,335 L800,600 Z" fill="#1d1b47" opacity="0.55"/>
  <path d="M0,600 L0,399 L24,417 L48,319 L72,307 L96,352 L120,365 L144,297 L168,329 L192,265 L216,265 L240,288 L264,355 L288,354 L312,259 L336,249 L360,309 L384,323 L408,300 L432,313 L456,281 L480,354 L504,311 L528,280 L552,294 L576,268 L600,297 L624,349 L648,386 L672,311 L696,294 L720,308 L744,313 L768,329 L792,329 L800,600 Z" fill="#181b43" opacity="0.85"/>
  <path d="M0,600 L0,378 L24,462 L48,443 L72,474 L96,453 L120,420 L144,400 L168,433 L192,358 L216,383 L240,312 L264,290 L288,316 L312,312 L336,390 L360,399 L384,316 L408,393 L432,334 L456,390 L480,357 L504,295 L528,297 L552,390 L576,342 L600,308 L624,331 L648,459 L672,446 L696,354 L720,360 L744,439 L768,489 L792,377 L800,600 Z" fill="#070e1f" opacity="1.0"/>
</svg>