<svg xmlns="http://www.w3.org/2000/svg" viewBox="0 0 800 600" preserveAspectRatio="xMidYMid slice">
  <defs>
    <linearGradient id="sky" x1="0" y1="0" x2="0" y2="1">
      <stop offset="0" stop-color="#0c1834"/><stop offset="0.55" stop-color="#1e1b48"/><stop offset="1" stop-color="#5eead4"/>
    </linearGradient>
    <radialGradient id="orb" cx="0.5" cy="0.5" r="0.5">
      <stop offset="0" stop-color="#71ecd9" stop-opacity="0.95"/><stop offset="1" stop-color="#71ecd9" stop-opacity="0"/>
    </radialGradient>
  </defs>
  <rect width="800" height="600" fill="url(#sky)"/>
  <circle cx="360" cy="180" r="120" fill="url(#orb)"/>
  <circle cx="360" cy="180" r="38" fill="#71ecd9" opacity="0.9"/>
  <path d="M0,600 L0,335 L24,272 L48,283 L72,294 L96,329 L120,254 L144,317 L168,245 L192,246 L216,285 L240,295 L264,232 L288,288 L312,278 L336,250 L360,266 L384,257 L408,233 L432,231 L456,277 L480,299 L504,231 L528,302 L552,306 L576,292 L600,271 L624,315 L648,274 L672,254 L696,258 L720,266 L744,338 L768,341 L792,347 L800,600 Z" fill="#1d1b47" opacity="0.55"/>
  <path d="M0,600 L0,393 L24,324 L48,411 L72,398 L96,352 L120,354 L144,327 L168,289 L192,312 L216,262 L240,323 L264,359 L288,338 L312,249 L336,287 L360,346 L384,254 L408,247 L432,312 L456,245 L480,355 L504,252 L528,361 L552,343 L576,341 L600,334 L624,359 L648,358 L672,351 L696,398 L720,406 L744,308 L768,315 L792,403 L800,600 Z" fill="#181b43" opacity="0.85"/>
  <path d="M0,600 L0,414 L24,372 L48,356 L72,462 L96,337 L120,386 L144,342 L168,443 L192,424 L216,307 L240,328 L264,290 L288,402 L312,413 L336,330 L360,386 L384,330 L408,416 L432,373 L456,279 L480,378 L504,417 L528,347 L552,421 L576,312 L600,316 L624,320 L648,355 L672,437 L696,479 L720,447 L744,480 L768,378 L792,390 L800,600 Z" fill="#070e1f" opacity="1.0"/>
</svg>