<svg xmlns="http://www.w3.org/2000/svg" viewBox="0 0 800 600" preserveAspectRatio="xMidYMid slice">
  <defs>
    <linearGradient id="sky" x1="0" y1="0" x2="0" y2="1">
      <stop offset="0" stop-color="#0e2038"/><stop offset="0.55" stop-color="#2c4469"/><stop offset="1" stop-color="#ffd49a"/>
    </linearGradient>
    <radialGradient id="orb" cx="0.5" cy="0.5" r="0.5">
      <stop offset="0" stop-color="#ffd9a6" stop-opacity="0.95"/><stop offset="1" stop-color="#ffd9a6" stop-opacity="0"/>
    </radialGradient>
  </defs>
  <rect width="800" height="600" fill="url(#sky)"/>
  <circle cx="360" cy="180" r="120" fill="url(#orb)"/>
  <circle cx="360" cy="180" r="38" fill="#ffd9a6" opacity="0.9"/>
  <path d="M0,600 L0,305 L24,275 L48,275 L72,262 L96,259 L120,307 L144,287 L168,254 L192,248 L216,288 L240,239 L264,297 L288,292 L312,230 L336,298 L360,229 L384,231 L408,292 L432,266 L456,291 L480,283 L504,299 L528,284 L552,241 L576,310 L600,242 L624,252 L648,288 L672,287 L696,328 L720,332 L744,327 L768,334 L792,292 L800,600 Z" fill="#294166" opacity="0.55"/>
  <path d="M0,600 L0,326 L24,407 L48,411 L72,319 L96,343 L120,353 L144,294 L168,354 L192,326 L216,366 L240,325 L264,331 L288,252 L312,270 L336,301 L360,284 L384,321 L408,329 L432,250 L456,253 L480,334 L504,254 L528,323 L552,260 L576,264 L600,295 L624,354 L648,279 L672,311 L696,323 L720,406 L744,408 L768,410 L792,418 L800,600 Z" fill="#213859" opacity="0.85"/>
  <path d="M0,600 L0,508 L24,432 L48,406 L72,483 L96,477 L120,330 L144,350 L168,320 L192,446 L216,364 L240,361 L264,426 L288,421 L312,281 L336,403 L360,280 L384,283 L408,278 L432,316 L456,282 L480,288 L504,364 L528,400 L552,373 L576,301 L600,314 L624,452 L648,459 L672,439 L696,340 L720,478 L744,498 L768,500 L792,373 L800,600 Z" fill="#081322" opacity="1.0"/>
</svg>