<svg xmlns="http://www.w3.org/2000/svg" viewBox="0 0 800 600" preserveAspectRatio="xMidYMid slice">
  <defs>
    <linearGradient id="sky" x1="0" y1="0" x2="0" y2="1">
      <stop offset="0" stop-color="#0e2038"/><stop offset="0.55" stop-color="#2c4469"/><stop offset="1" stop-color="#ffd49a"/>
    </linearGradient>
    <radialGradient id="orb" cx="0.5" cy="0.5" r="0.5">
      <stop offset="0" stop-color="#ffd9a6" stop-opacity="0.95"/><stop offset="1" stop-color="#ffd9a6" stop-opacity="0"/>
    </radialGradient>
  </defs>
  <rect width="800" height="600" fill="url(#sky)"/>
  <circle cx="360" cy="180" r="120" fill="url(#orb)"/>
  <circle cx="360" cy="180" r="38" fill="#ffd9a6" opacity="0.9"/>
  <path d="M0,600 L0,320 L24,289 L48,324 L72,303 L96,259 L120,272 L144,296 L168,316 L192,312 L216,238 L240,260 L264,244 L288,297 L312,299 L336,255 L360,263 L384,252 L408,290 L432,260 L456,243 L480,242 L504,237 L528,259 L552,237 L576,307 L600,285 L624,251 L648,250 L672,265 L696,287 L720,333 L744,271 L768,273 L792,336 L800,600 Z" fill="#294166" opacity="0.55"/>
  <path d="M0,600 L0,379 L24,325 L48,402 L72,402 L96,308 L120,301 L144,278 L168,289 L192,301 L216,282 L240,283 L264,340 L288,317 L312,247 L336,263 L360,251 L384,317 L408,342 L432,343 L456,279 L480,353 L504,256 L528,256 L552,356 L576,350 L600,369 L624,363 L648,286 L672,348 L696,294 L720,402 L744,377 L768,349 L792,406 L800,600 Z" fill="#213859" opacity="0.85"/>
  <path d="M0,600 L0,377 L24,377 L48,359 L72,384 L96,452 L120,385 L144,350 L168,432 L192,308 L216,430 L240,325 L264,314 L288,325 L312,410 L336,406 L360,373 L384,332 L408,304 L432,295 L456,392 L480,418 L504,413 L528,312 L552,317 L576,419 L600,347 L624,397 L648,332 L672,351 L696,479 L720,483 L744,469 L768,426 L792,495 L800,600 Z" fill="#081322" opacity="1.0"/>
</svg>