<svg xmlns="http://www.w3.org/2000/svg" viewBox="0 0 800 600" preserveAspectRatio="xMidYMid slice">
  <defs>
    <linearGradient id="sky" x1="0" y1="0" x2="0" y2="1">
      <stop offset="0" stop-color="#0e2038"/><stop offset="0.55" stop-color="#2c4469"/><stop offset="1" stop-color="#ffd49a"/>
    </linearGradient>
    <radialGradient id="orb" cx="0.5" cy="0.5" r="0.5">
      <stop offset="0" stop-color="#ffd9a6" stop-opacity="0.95"/><stop offset="1" stop-color="#ffd9a6" stop-opacity="0"/>
    </radialGradient>
  </defs>
  <rect width="800" height="600" fill="url(#sky)"/>
  <circle cx="656" cy="204" r="120" fill="url(#orb)"/>
  <circle cx="656" cy="204" r="38" fill="#ffd9a6" opacity="0.9"/>
  <path d="M0,600 L0,276 L24,303 L48,291 L72,295 L96,299 L120,312 L144,293 L168,294 L192,242 L216,238 L240,237 L264,295 L288,235 L312,244 L336,261 L360,262 L384,251 L408,286 L432,246 L456,291 L480,282 L504,277 L528,276 L552,251 L576,258 L600,312 L624,269 L648,300 L672,298 L696,322 L720,269 L744,325 L768,344 L792,343 L800,600 Z" fill="#294166" opacity="0.55"/>
  <path d="M0,600 L0,389 L24,316 L48,395 L72,329 L96,384 L120,370 L144,324 L168,317 L192,369 L216,263 L240,276 L264,281 L288,306 L312,354 L336,351 L360,290 L384,346 L408,260 L432,325 L456,270 L480,309 L504,303 L528,348 L552,297 L576,330 L600,374 L624,305 L648,292 L672,314 L696,305 L720,303 L744,341 L768,313 L792,348 L800,600 Z" fill="#213859" opacity="0.85"/>
  <path d="M0,600 L0,484 L24,492 L48,484 L72,442 L96,459 L120,360 L144,327 L168,340 L192,334 L216,439 L240,432 L264,295 L288,308 L312,407 L336,413 L360,405 L384,319 L408,416 L432,416 L456,281 L480,421 L504,412 L528,296 L552,426 L576,423 L600,415 L624,325 L648,364 L672,382 L696,379 L720,450 L744,454 L768,369 L792,509 L800,600 Z" fill="#081322" opacity="1.0"/>
</svg>