<svg xmlns="http://www.w3.org/2000/svg" viewBox="0 0 800 600" preserveAspectRatio="xMidYMid slice">
  <defs>
    <linearGradient id="sky" x1="0" y1="0" x2="0" y2="1">
      <stop offset="0" stop-color="#0e1730"/><stop offset="0.55" stop-color="#292053"/><stop offset="1" stop-color="#ff9e6d"/>
    </linearGradient>
    <radialGradient id="orb" cx="0.5" cy="0.5" r="0.5">
      <stop offset="0" stop-color="#ffa97e" stop-opacity="0.95"/><stop offset="1" stop-color="#ffa97e" stop-opacity="0"/>
    </radialGradient>
  </defs>
  <rect width="800" height="600" fill="url(#sky)"/>
  <circle cx="656" cy="204" r="120" fill="url(#orb)"/>
  <circle cx="656" cy="204" r="38" fill="#ffa97e" opacity="0.9"/>
  <path d="M0,600 L0,295 L24,337 L48,294 L72,263 L96,278 L120,282 L144,283 L168,246 L192,311 L216,247 L240,279 L264,234 L288,237 L312,300 L336,231 L360,259 L384,298 L408,226 L432,246 L456,228 L480,237 L504,231 L528,245 L552,263 L576,239 L600,312 L624,247 L648,254 L672,299 L696,259 L720,271 L744,282 L768,344 L792,278 L800,600 Z" fill="#271f50" opacity="0.55"/>
  <path d="M0,600 L0,393 L24,404 L48,305 L72,299 L96,333 L120,304 L144,383 L168,369 L192,318 L216,261 L240,334 L264,327 L288,329 L312,247 L336,299 L360,333 L384,255 L408,313 L432,244 L456,341 L480,343 L504,259 L528,328 L552,360 L576,275 L600,323 L624,369 L648,315 L672,343 L696,344 L720,360 L744,407 L768,327 L792,424 L800,600 Z" fill="#1f1d48" opacity="0.85"/>
  <path d="M0,600 L0,376 L24,369 L48,487 L72,483 L96,408 L120,393 L144,401 L168,313 L192,371 L216,392 L240,389 L264,390 L288,324 L312,406 L336,349 L360,279 L384,282 L408,416 L432,339 L456,398 L480,371 L504,357 L528,421 L552,363 L576,380 L600,438 L624,375 L648,353 L672,334 L696,349 L720,481 L744,498 L768,413 L792,413 L800,600 Z" fill="#080e1d" opacity="1.0"/>
</svg>