<svg xmlns="http://www.w3.org/2000/svg" viewBox="0 0 800 600" preserveAspectRatio="xMidYMid slice">
  <defs>
    <linearGradient id="sky" x1="0" y1="0" x2="0" y2="1">
      <stop offset="0" stop-color="#0e2038"/><stop offset="0.55" stop-color="#2c4469"/><stop offset="1" stop-color="#ffd49a"/>
    </linearGradient>
    <radialGradient id="orb" cx="0.5" cy="0.5" r="0.5">
      <stop offset="0" stop-color="#ffd9a6" stop-opacity="0.95"/><stop offset="1" stop-color="#ffd9a6" stop-opacity="0"/>
    </radialGradient>
  </defs>
  <rect width="800" height="600" fill="url(#sky)"/>
  <circle cx="360" cy="180" r="120" fill="url(#orb)"/>
  <circle cx="360" cy="180" r="38" fill="#ffd9a6" opacity="0.9"/>
  <path d="M0,600 L0,289 L24,342 L48,304 L72,262 L96,325 L120,284 L144,249 L168,316 L192,244 L216,309 L240,236 L264,234 L288,281 L312,253 L336,234 L360,252 L384,239 L408,227 L432,250 L456,234 L480,272 L504,268 L528,294 L552,245 L576,261 L600,296 L624,250 L648,317 L672,311 L696,302 L720,265 L744,272 L768,319 L792,340 L800,600 Z" fill="#294166" opacity="0.55"/>
  <path d="M0,600 L0,399 L24,311 L48,304 L72,344 L96,372 L120,323 L144,383 L168,320 L192,370 L216,338 L240,329 L264,265 L288,331 L312,342 L336,245 L360,295 L384,340 L408,345 L432,317 L456,347 L480,352 L504,342 L528,254 L552,290 L576,275 L600,276 L624,365 L648,386 L672,293 L696,398 L720,403 L744,360 L768,342 L792,318 L800,600 Z" fill="#213859" opacity="0.85"/>
  <path d="M0,600 L0,378 L24,487 L48,355 L72,486 L96,349 L120,405 L144,440 L168,450 L192,311 L216,404 L240,328 L264,400 L288,424 L312,323 L336,327 L360,415 L384,281 L408,279 L432,338 L456,419 L480,417 L504,391 L528,403 L552,320 L576,432 L600,308 L624,454 L648,338 L672,469 L696,409 L720,486 L744,433 L768,414 L792,436 L800,600 Z" fill="#081322" opacity="1.0"/>
</svg>