<svg xmlns="http://www.w3.org/2000/svg" viewBox="0 0 800 600" preserveAspectRatio="xMidYMid slice">
  <defs>
    <linearGradient id="sky" x1="0" y1="0" x2="0" y2="1">
      <stop offset="0" stop-color="#0c1834"/><stop offset="0.55" stop-color="#1e1b48"/><stop offset="1" stop-color="#5eead4"/>
    </linearGradient>
    <radialGradient id="orb" cx="0.5" cy="0.5" r="0.5">
      <stop offset="0" stop-color="#71ecd9" stop-opacity="0.95"/><stop offset="1" stop-color="#71ecd9" stop-opacity="0"/>
    </radialGradient>
  </defs>
  <rect width="800" height="600" fill="url(#sky)"/>
  <circle cx="360" cy="180" r="120" fill="url(#orb)"/>
  <circle cx="360" cy="180" r="38" fill="#71ecd9" opacity="0.9"/>
  <path d="M0,600 L0,276 L24,308 L48,307 L72,314 L96,316 L120,266 L144,267 L168,300 L192,243 L216,308 L240,303 L264,282 L288,237 L312,295 L336,229 L360,295 L384,270 L408,274 L432,290 L456,242 L480,261 L504,270 L528,299 L552,291 L576,239 L600,314 L624,262 L648,252 L672,254 L696,330 L720,322 L744,340 L768,339 L792,295 L800,600 Z" fill="#1d1b47" opacity="0.55"/>
  <path d="M0,600 L0,426 L24,354 L48,336 L72,299 L96,334 L120,307 L144,343 L168,315 L192,279 L216,272 L240,259 L264,274 L288,334 L312,246 L336,319 L360,323 L384,293 L408,284 L432,274 L456,353 L480,347 L504,261 L528,319 L552,349 L576,281 L600,369 L624,273 L648,304 L672,287 L696,359 L720,406 L744,410 L768,316 L792,358 L800,600 Z" fill="#181b43" opacity="0.85"/>
  <path d="M0,600 L0,381 L24,399 L48,378 L72,353 L96,371 L120,400 L144,347 L168,384 L192,323 L216,438 L240,422 L264,300 L288,368 L312,305 L336,293 L360,380 L384,314 L408,405 L432,281 L456,401 L480,422 L504,337 L528,297 L552,421 L576,314 L600,311 L624,404 L648,395 L672,343 L696,422 L720,350 L744,358 L768,501 L792,432 L800,600 Z" fill="#070e1f" opacity="1.0"/>
</svg>