<svg xmlns="http://www.w3.org/2000/svg" viewBox="0 0 800 600" preserveAspectRatio="xMidYMid slice">
  <defs>
    <linearGradient id="sky" x1="0" y1="0" x2="0" y2="1">
      <stop offset="0" stop-color="#0e1730"/><stop offset="0.55" stop-color="#292053"/><stop offset="1" stop-color="#ff9e6d"/>
    </linearGradient>
    <radialGradient id="orb" cx="0.5" cy="0.5" r="0.5">
      <stop offset="0" stop-color="#ffa97e" stop-opacity="0.95"/><stop offset="1" stop-color="#ffa97e" stop-opacity="0"/>
    </radialGradient>
  </defs>
  <rect width="800" height="600" fill="url(#sky)"/>
  <circle cx="480" cy="132" r="120" fill="url(#orb)"/>
  <circle cx="480" cy="132" r="38" fill="#ffa97e" opacity="0.9"/>
  <path d="M0,600 L0,348 L24,322 L48,267 L72,277 L96,328 L120,257 L144,255 L168,317 L192,286 L216,272 L240,248 L264,304 L288,302 L312,274 L336,298 L360,292 L384,227 L408,236 L432,246 L456,299 L480,261 L504,251 L528,235 L552,238 L576,285 L600,296 L624,306 L648,322 L672,258 L696,308 L720,273 L744,281 L768,341 L792,335 L800,600 Z" fill="#271f50" opacity="0.55"/>
  <path d="M0,600 L0,329 L24,311 L48,332 L72,402 L96,374 L120,351 L144,280 L168,337 L192,273 L216,332 L240,256 L264,274 L288,264 L312,250 L336,289 L360,246 L384,289 L408,253 L432,258 L456,296 L480,300 L504,358 L528,344 L552,333 L576,369 L600,269 L624,332 L648,369 L672,389 L696,320 L720,298 L744,313 L768,401 L792,333 L800,600 Z" fill="#1f1d48" opacity="0.85"/>
  <path d="M0,600 L0,440 L24,366 L48,364 L72,397 L96,345 L120,469 L144,439 L168,374 L192,321 L216,381 L240,308 L264,422 L288,342 L312,419 L336,397 L360,386 L384,414 L408,278 L432,353 L456,412 L480,382 L504,355 L528,374 L552,332 L576,438 L600,399 L624,315 L648,463 L672,400 L696,432 L720,488 L744,366 L768,495 L792,383 L800,600 Z" fill="#080e1d" opacity="1.0"/>
</svg>