<svg xmlns="http://www.w3.org/2000/svg" viewBox="0 0 800 600" preserveAspectRatio="xMidYMid slice">
  <defs>
    <linearGradient id="sky" x1="0" y1="0" x2="0" y2="1">
      <stop offset="0" stop-color="#0e2038"/><stop offset="0.55" stop-color="#2c4469"/><stop offset="1" stop-color="#ffd49a"/>
    </linearGradient>
    <radialGradient id="orb" cx="0.5" cy="0.5" r="0.5">
      <stop offset="0" stop-color="#ffd9a6" stop-opacity="0.95"/><stop offset="1" stop-color="#ffd9a6" stop-opacity="0"/>
    </radialGradient>
  </defs>
  <rect width="800" height="600" fill="url(#sky)"/>
  <circle cx="240" cy="156" r="120" fill="url(#orb)"/>
  <circle cx="240" cy="156" r="38" fill="#ffd9a6" opacity="0.9"/>
  <path d="M0,600 L0,345 L24,271 L48,319 L72,320 L96,276 L120,297 L144,315 L168,259 L192,310 L216,302 L240,292 L264,262 L288,302 L312,249 L336,228 L360,235 L384,226 L408,293 L432,280 L456,295 L480,287 L504,231 L528,248 L552,250 L576,262 L600,294 L624,263 L648,322 L672,295 L696,288 L720,296 L744,339 L768,343 L792,285 L800,600 Z" fill="#294166" opacity="0.55"/>
  <path d="M0,600 L0,383 L24,415 L48,371 L72,297 L96,310 L120,357 L144,360 L168,377 L192,275 L216,265 L240,257 L264,255 L288,253 L312,326 L336,289 L360,336 L384,283 L408,244 L432,350 L456,353 L480,347 L504,330 L528,358 L552,277 L576,357 L600,291 L624,279 L648,318 L672,318 L696,394 L720,299 L744,313 L768,397 L792,411 L800,600 Z" fill="#213859" opacity="0.85"/>
  <path d="M0,600 L0,420 L24,366 L48,433 L72,474 L96,429 L120,391 L144,324 L168,451 L192,323 L216,301 L240,378 L264,296 L288,336 L312,299 L336,406 L360,284 L384,276 L408,284 L432,373 L456,316 L480,352 L504,387 L528,373 L552,313 L576,393 L600,373 L624,435 L648,463 L672,361 L696,474 L720,389 L744,363 L768,502 L792,402 L800,600 Z" fill="#081322" opacity="1.0"/>
</svg>