<svg xmlns="http://www.w3.org/2000/svg" viewBox="0 0 800 600" preserveAspectRatio="xMidYMid slice">
  <defs>
    <linearGradient id="sky" x1="0" y1="0" x2="0" y2="1">
      <stop offset="0" stop-color="#0e2038"/><stop offset="0.55" stop-color="#2c4469"/><stop offset="1" stop-color="#ffd49a"/>
    </linearGradient>
    <radialGradient id="orb" cx="0.5" cy="0.5" r="0.5">
      <stop offset="0" stop-color="#ffd9a6" stop-opacity="0.95"/><stop offset="1" stop-color="#ffd9a6" stop-opacity="0"/>
    </radialGradient>
  </defs>
  <rect width="800" height="600" fill="url(#sky)"/>
  <circle cx="360" cy="180" r="120" fill="url(#orb)"/>
  <circle cx="360" cy="180" r="38" fill="#ffd9a6" opacity="0.9"/>
  <path d="M0,600 L0,345 L24,275 L48,283 L72,327 L96,329 L120,325 L144,294 L168,299 L192,244 L216,238 L240,296 L264,304 L288,276 L312,299 L336,255 L360,237 L384,294 L408,246 L432,242 L456,298 L480,232 L504,282 L528,236 L552,240 L576,297 L600,312 L624,317 L648,296 L672,321 L696,307 L720,335 L744,340 L768,274 L792,345 L800,600 Z" fill="#294166" opacity="0.55"/>
  <path d="M0,600 L0,426 L24,409 L48,410 L72,404 L96,396 L120,299 L144,290 L168,337 L192,369 L216,263 L240,287 L264,253 L288,332 L312,246 L336,300 L360,245 L384,279 L408,319 L432,283 L456,346 L480,325 L504,348 L528,262 L552,270 L576,265 L600,322 L624,380 L648,354 L672,312 L696,296 L720,303 L744,307 L768,321 L792,328 L800,600 Z" fill="#213859" opacity="0.85"/>
  <path d="M0,600 L0,406 L24,395 L48,418 L72,390 L96,395 L120,345 L144,449 L168,343 L192,370 L216,434 L240,321 L264,385 L288,398 L312,401 L336,329 L360,343 L384,368 L408,415 L432,293 L456,342 L480,418 L504,286 L528,290 L552,434 L576,312 L600,441 L624,404 L648,398 L672,345 L696,340 L720,442 L744,414 L768,493 L792,433 L800,600 Z" fill="#081322" opacity="1.0"/>
</svg>