<svg xmlns="http://www.w3.org/2000/svg" viewBox="0 0 800 600" preserveAspectRatio="xMidYMid slice">
  <defs>
    <linearGradient id="sky" x1="0" y1="0" x2="0" y2="1">
      <stop offset="0" stop-color="#0e2038"/><stop offset="0.55" stop-color="#2c4469"/><stop offset="1" stop-color="#ffd49a"/>
    </linearGradient>
    <radialGradient id="orb" cx="0.5" cy="0.5" r="0.5">
      <stop offset="0" stop-color="#ffd9a6" stop-opacity="0.95"/><stop offset="1" stop-color="#ffd9a6" stop-opacity="0"/>
    </radialGradient>
  </defs>
  <rect width="800" height="600" fill="url(#sky)"/>
  <circle cx="480" cy="132" r="120" fill="url(#orb)"/>
  <circle cx="480" cy="132" r="38" fill="#ffd9a6" opacity="0.9"/>
  <path d="M0,600 L0,329 L24,343 L48,338 L72,270 L96,289 L120,269 L144,264 L168,309 L192,241 L216,270 L240,279 L264,298 L288,293 L312,300 L336,265 L360,297 L384,226 L408,271 L432,243 L456,248 L480,240 L504,276 L528,285 L552,306 L576,246 L600,242 L624,278 L648,287 L672,320 L696,281 L720,267 L744,306 L768,340 L792,287 L800,600 Z" fill="#294166" opacity="0.55"/>
  <path d="M0,600 L0,325 L24,418 L48,315 L72,365 L96,291 L120,321 L144,373 L168,310 L192,332 L216,306 L240,300 L264,342 L288,355 L312,349 L336,288 L360,274 L384,265 L408,340 L432,339 L456,351 L480,351 L504,275 L528,295 L552,356 L576,351 L600,368 L624,372 L648,317 L672,322 L696,343 L720,302 L744,347 L768,420 L792,396 L800,600 Z" fill="#213859" opacity="0.85"/>
  <path d="M0,600 L0,509 L24,468 L48,418 L72,478 L96,346 L120,463 L144,352 L168,328 L192,309 L216,419 L240,428 L264,428 L288,316 L312,392 L336,291 L360,316 L384,412 L408,352 L432,332 L456,411 L480,289 L504,373 L528,390 L552,352 L576,389 L600,349 L624,329 L648,392 L672,331 L696,358 L720,415 L744,361 L768,390 L792,465 L800,600 Z" fill="#081322" opacity="1.0"/>
</svg>