<svg xmlns="http://www.w3.org/2000/svg" viewBox="0 0 800 600" preserveAspectRatio="xMidYMid slice">
  <defs>
    <linearGradient id="sky" x1="0" y1="0" x2="0" y2="1">
      <stop offset="0" stop-color="#0e2038"/><stop offset="0.55" stop-color="#2c4469"/><stop offset="1" stop-color="#ffd49a"/>
    </linearGradient>
    <radialGradient id="orb" cx="0.5" cy="0.5" r="0.5">
      <stop offset="0" stop-color="#ffd9a6" stop-opacity="0.95"/><stop offset="1" stop-color="#ffd9a6" stop-opacity="0"/>
    </radialGradient>
  </defs>
  <rect width="800" height="600" fill="url(#sky)"/>
  <circle cx="656" cy="204" r="120" fill="url(#orb)"/>
  <circle cx="656" cy="204" r="38" fill="#ffd9a6" opacity="0.9"/>
  <path d="M0,600 L0,348 L24,318 L48,290 L72,327 L96,262 L120,315 L144,298 L168,257 L192,258 L216,305 L240,235 L264,250 L288,231 L312,294 L336,294 L360,232 L384,294 L408,231 L432,240 L456,252 L480,268 L504,267 L528,251 L552,306 L576,244 L600,257 L624,305 L648,286 L672,258 L696,292 L720,276 L744,315 L768,300 L792,293 L800,600 Z" fill="#294166" opacity="0.55"/>
  <path d="M0,600 L0,338 L24,393 L48,391 L72,350 L96,306 L120,291 L144,370 L168,290 L192,290 L216,272 L240,303 L264,351 L288,250 L312,266 L336,346 L360,288 L384,275 L408,326 L432,260 L456,351 L480,348 L504,266 L528,350 L552,339 L576,284 L600,374 L624,311 L648,384 L672,365 L696,313 L720,320 L744,404 L768,360 L792,367 L800,600 Z" fill="#213859" opacity="0.85"/>
  <path d="M0,600 L0,380 L24,458 L48,423 L72,428 L96,477 L120,461 L144,350 L168,415 L192,366 L216,420 L240,419 L264,428 L288,286 L312,288 L336,372 L360,299 L384,414 L408,364 L432,278 L456,402 L480,418 L504,375 L528,301 L552,423 L576,402 L600,309 L624,338 L648,323 L672,338 L696,341 L720,351 L744,372 L768,436 L792,461 L800,600 Z" fill="#081322" opacity="1.0"/>
</svg>