<svg xmlns="http://www.w3.org/2000/svg" viewBox="0 0 800 600" preserveAspectRatio="xMidYMid slice">
  <defs>
    <linearGradient id="sky" x1="0" y1="0" x2="0" y2="1">
      <stop offset="0" stop-color="#0c1834"/><stop offset="0.55" stop-color="#1e1b48"/><stop offset="1" stop-color="#5eead4"/>
    </linearGradient>
    <radialGradient id="orb" cx="0.5" cy="0.5" r="0.5">
      <stop offset="0" stop-color="#71ecd9" stop-opacity="0.95"/><stop offset="1" stop-color="#71ecd9" stop-opacity="0"/>
    </radialGradient>
  </defs>
  <rect width="800" height="600" fill="url(#sky)"/>
  <circle cx="240" cy="156" r="120" fill="url(#orb)"/>
  <circle cx="240" cy="156" r="38" fill="#71ecd9" opacity="0.9"/>
  <path d="M0,600 L0,344 L24,280 L48,299 L72,330 L96,271 L120,324 L144,271 L168,308 L192,303 L216,269 L240,306 L264,237 L288,234 L312,298 L336,230 L360,298 L384,262 L408,266 L432,233 L456,287 L480,235 L504,298 L528,255 L552,307 L576,269 L600,249 L624,247 L648,321 L672,276 L696,280 L720,270 L744,339 L768,328 L792,340 L800,600 Z" fill="#1d1b47" opacity="0.55"/>
  <path d="M0,600 L0,409 L24,311 L48,318 L72,319 L96,329 L120,332 L144,282 L168,349 L192,300 L216,309 L240,303 L264,326 L288,317 L312,269 L336,274 L360,347 L384,250 L408,347 L432,351 L456,319 L480,283 L504,254 L528,288 L552,259 L576,342 L600,356 L624,273 L648,312 L672,385 L696,396 L720,342 L744,410 L768,314 L792,424 L800,600 Z" fill="#181b43" opacity="0.85"/>
  <path d="M0,600 L0,374 L24,481 L48,465 L72,380 L96,476 L120,455 L144,356 L168,356 L192,345 L216,307 L240,325 L264,290 L288,375 L312,375 L336,329 L360,412 L384,336 L408,329 L432,354 L456,286 L480,385 L504,418 L528,303 L552,302 L576,385 L600,422 L624,446 L648,457 L672,417 L696,479 L720,374 L744,476 L768,495 L792,434 L800,600 Z" fill="#070e1f" opacity="1.0"/>
</svg>