<svg xmlns="http://www.w3.org/2000/svg" viewBox="0 0 800 600" preserveAspectRatio="xMidYMid slice">
  <defs>
    <linearGradient id="sky" x1="0" y1="0" x2="0" y2="1">
      <stop offset="0" stop-color="#0c1834"/><stop offset="0.55" stop-color="#1e1b48"/><stop offset="1" stop-color="#5eead4"/>
    </linearGradient>
    <radialGradient id="orb" cx="0.5" cy="0.5" r="0.5">
      <stop offset="0" stop-color="#71ecd9" stop-opacity="0.95"/><stop offset="1" stop-color="#71ecd9" stop-opacity="0"/>
    </radialGradient>
  </defs>
  <rect width="800" height="600" fill="url(#sky)"/>
  <circle cx="656" cy="204" r="120" fill="url(#orb)"/>
  <circle cx="656" cy="204" r="38" fill="#71ecd9" opacity="0.9"/>
  <path d="M0,600 L0,277 L24,320 L48,282 L72,329 L96,287 L120,300 L144,303 L168,278 L192,286 L216,238 L240,297 L264,254 L288,230 L312,241 L336,227 L360,293 L384,228 L408,298 L432,234 L456,297 L480,252 L504,244 L528,275 L552,267 L576,298 L600,268 L624,281 L648,259 L672,271 L696,312 L720,331 L744,336 L768,341 L792,301 L800,600 Z" fill="#1d1b47" opacity="0.55"/>
  <path d="M0,600 L0,396 L24,418 L48,404 L72,404 L96,356 L120,385 L144,325 L168,377 L192,372 L216,263 L240,256 L264,359 L288,307 L312,257 L336,254 L360,247 L384,275 L408,351 L432,264 L456,285 L480,247 L504,306 L528,292 L552,280 L576,262 L600,317 L624,321 L648,279 L672,360 L696,389 L720,315 L744,306 L768,397 L792,337 L800,600 Z" fill="#181b43" opacity="0.85"/>
  <path d="M0,600 L0,505 L24,490 L48,442 L72,363 L96,416 L120,409 L144,457 L168,343 L192,319 L216,347 L240,413 L264,370 L288,395 L312,399 L336,417 L360,319 L384,363 L408,308 L432,350 L456,279 L480,295 L504,298 L528,418 L552,421 L576,303 L600,435 L624,374 L648,323 L672,440 L696,349 L720,381 L744,393 L768,507 L792,491 L800,600 Z" fill="#070e1f" opacity="1.0"/>
</svg>