<svg xmlns="http://www.w3.org/2000/svg" viewBox="0 0 800 600" preserveAspectRatio="xMidYMid slice">
  <defs>
    <linearGradient id="sky" x1="0" y1="0" x2="0" y2="1">
      <stop offset="0" stop-color="#0e2038"/><stop offset="0.55" stop-color="#2c4469"/><stop offset="1" stop-color="#ffd49a"/>
    </linearGradient>
    <radialGradient id="orb" cx="0.5" cy="0.5" r="0.5">
      <stop offset="0" stop-color="#ffd9a6" stop-opacity="0.95"/><stop offset="1" stop-color="#ffd9a6" stop-opacity="0"/>
    </radialGradient>
  </defs>
  <rect width="800" height="600" fill="url(#sky)"/>
  <circle cx="656" cy="204" r="120" fill="url(#orb)"/>
  <circle cx="656" cy="204" r="38" fill="#ffd9a6" opacity="0.9"/>
  <path d="M0,600 L0,283 L24,274 L48,309 L72,323 L96,290 L120,261 L144,312 L168,316 L192,292 L216,310 L240,239 L264,300 L288,282 L312,289 L336,271 L360,229 L384,266 L408,248 L432,257 L456,299 L480,296 L504,239 L528,257 L552,298 L576,279 L600,242 L624,279 L648,284 L672,259 L696,262 L720,294 L744,291 L768,340 L792,288 L800,600 Z" fill="#294166" opacity="0.55"/>
  <path d="M0,600 L0,393 L24,386 L48,356 L72,307 L96,305 L120,285 L144,352 L168,350 L192,318 L216,368 L240,299 L264,256 L288,261 L312,354 L336,249 L360,349 L384,310 L408,343 L432,289 L456,286 L480,295 L504,351 L528,280 L552,339 L576,266 L600,375 L624,366 L648,283 L672,293 L696,345 L720,325 L744,306 L768,413 L792,424 L800,600 Z" fill="#213859" opacity="0.85"/>
  <path d="M0,600 L0,420 L24,411 L48,487 L72,368 L96,365 L120,331 L144,444 L168,426 L192,374 L216,421 L240,299 L264,362 L288,422 L312,399 L336,400 L360,323 L384,416 L408,396 L432,409 L456,311 L480,405 L504,397 L528,351 L552,414 L576,441 L600,383 L624,401 L648,446 L672,343 L696,380 L720,407 L744,496 L768,503 L792,476 L800,600 Z" fill="#081322" opacity="1.0"/>
</svg>