<svg xmlns="http://www.w3.org/2000/svg" viewBox="0 0 800 600" preserveAspectRatio="xMidYMid slice">
  <defs>
    <linearGradient id="sky" x1="0" y1="0" x2="0" y2="1">
      <stop offset="0" stop-color="#0e2038"/><stop offset="0.55" stop-color="#2c4469"/><stop offset="1" stop-color="#ffd49a"/>
    </linearGradient>
    <radialGradient id="orb" cx="0.5" cy="0.5" r="0.5">
      <stop offset="0" stop-color="#ffd9a6" stop-opacity="0.95"/><stop offset="1" stop-color="#ffd9a6" stop-opacity="0"/>
    </radialGradient>
  </defs>
  <rect width="800" height="600" fill="url(#sky)"/>
  <circle cx="480" cy="132" r="120" fill="url(#orb)"/>
  <circle cx="480" cy="132" r="38" fill="#ffd9a6" opacity="0.9"/>
  <path d="M0,600 L0,335 L24,292 L48,306 L72,282 L96,267 L120,255 L144,320 L168,245 L192,310 L216,238 L240,304 L264,290 L288,231 L312,230 L336,277 L360,271 L384,252 L408,244 L432,293 L456,298 L480,273 L504,299 L528,245 L552,307 L576,239 L600,282 L624,280 L648,258 L672,262 L696,287 L720,312 L744,270 L768,343 L792,281 L800,600 Z" fill="#294166" opacity="0.55"/>
  <path d="M0,600 L0,425 L24,405 L48,360 L72,313 L96,395 L120,381 L144,376 L168,366 L192,266 L216,263 L240,306 L264,290 L288,288 L312,325 L336,280 L360,244 L384,322 L408,311 L432,349 L456,301 L480,341 L504,312 L528,256 L552,307 L576,355 L600,372 L624,275 L648,289 L672,289 L696,309 L720,300 L744,306 L768,393 L792,320 L800,600 Z" fill="#213859" opacity="0.85"/>
  <path d="M0,600 L0,383 L24,490 L48,356 L72,482 L96,456 L120,404 L144,322 L168,368 L192,309 L216,433 L240,353 L264,354 L288,288 L312,320 L336,379 L360,310 L384,347 L408,395 L432,281 L456,286 L480,362 L504,298 L528,429 L552,323 L576,436 L600,430 L624,427 L648,358 L672,415 L696,340 L720,432 L744,366 L768,390 L792,406 L800,600 Z" fill="#081322" opacity="1.0"/>
</svg>