<svg xmlns="http://www.w3.org/2000/svg" viewBox="0 0 800 600" preserveAspectRatio="xMidYMid slice">
  <defs>
    <linearGradient id="sky" x1="0" y1="0" x2="0" y2="1">
      <stop offset="0" stop-color="#0c1834"/><stop offset="0.55" stop-color="#1e1b48"/><stop offset="1" stop-color="#5eead4"/>
    </linearGradient>
    <radialGradient id="orb" cx="0.5" cy="0.5" r="0.5">
      <stop offset="0" stop-color="#71ecd9" stop-opacity="0.95"/><stop offset="1" stop-color="#71ecd9" stop-opacity="0"/>
    </radialGradient>
  </defs>
  <rect width="800" height="600" fill="url(#sky)"/>
  <circle cx="592" cy="180" r="120" fill="url(#orb)"/>
  <circle cx="592" cy="180" r="38" fill="#71ecd9" opacity="0.9"/>
  <path d="M0,600 L0,278 L24,340 L48,334 L72,329 L96,310 L120,310 L144,249 L168,272 L192,311 L216,303 L240,306 L264,296 L288,288 L312,240 L336,241 L360,242 L384,251 L408,235 L432,228 L456,297 L480,235 L504,300 L528,300 L552,259 L576,239 L600,255 L624,316 L648,314 L672,281 L696,270 L720,267 L744,286 L768,321 L792,346 L800,600 Z" fill="#1d1b47" opacity="0.55"/>
  <path d="M0,600 L0,332 L24,394 L48,407 L72,393 L96,397 L120,330 L144,277 L168,363 L192,366 L216,362 L240,314 L264,318 L288,309 L312,353 L336,351 L360,274 L384,242 L408,347 L432,285 L456,266 L480,253 L504,319 L528,268 L552,334 L576,301 L600,354 L624,343 L648,279 L672,300 L696,307 L720,302 L744,407 L768,362 L792,411 L800,600 Z" fill="#181b43" opacity="0.85"/>
  <path d="M0,600 L0,389 L24,365 L48,378 L72,396 L96,384 L120,404 L144,430 L168,342 L192,444 L216,439 L240,361 L264,428 L288,410 L312,420 L336,339 L360,390 L384,281 L408,413 L432,367 L456,348 L480,372 L504,418 L528,377 L552,330 L576,335 L600,317 L624,404 L648,442 L672,454 L696,467 L720,428 L744,452 L768,415 L792,510 L800,600 Z" fill="#070e1f" opacity="1.0"/>
</svg>