<svg xmlns="http://www.w3.org/2000/svg" viewBox="0 0 800 600" preserveAspectRatio="xMidYMid slice">
  <defs>
    <linearGradient id="sky" x1="0" y1="0" x2="0" y2="1">
      <stop offset="0" stop-color="#0e1730"/><stop offset="0.55" stop-color="#292053"/><stop offset="1" stop-color="#ff9e6d"/>
    </linearGradient>
    <radialGradient id="orb" cx="0.5" cy="0.5" r="0.5">
      <stop offset="0" stop-color="#ffa97e" stop-opacity="0.95"/><stop offset="1" stop-color="#ffa97e" stop-opacity="0"/>
    </radialGradient>
  </defs>
  <rect width="800" height="600" fill="url(#sky)"/>
  <circle cx="360" cy="180" r="120" fill="url(#orb)"/>
  <circle cx="360" cy="180" r="38" fill="#ffa97e" opacity="0.9"/>
  <path d="M0,600 L0,293 L24,279 L48,267 L72,312 L96,263 L120,309 L144,317 L168,287 L192,300 L216,310 L240,306 L264,249 L288,298 L312,252 L336,249 L360,280 L384,290 L408,296 L432,293 L456,284 L480,296 L504,236 L528,260 L552,243 L576,244 L600,301 L624,253 L648,250 L672,323 L696,260 L720,264 L744,338 L768,287 L792,318 L800,600 Z" fill="#271f50" opacity="0.55"/>
  <path d="M0,600 L0,385 L24,312 L48,392 L72,311 L96,308 L120,371 L144,279 L168,343 L192,327 L216,292 L240,315 L264,360 L288,277 L312,271 L336,244 L360,329 L384,347 L408,350 L432,243 L456,303 L480,355 L504,354 L528,255 L552,309 L576,268 L600,273 L624,353 L648,351 L672,285 L696,304 L720,316 L744,413 L768,420 L792,411 L800,600 Z" fill="#1f1d48" opacity="0.85"/>
  <path d="M0,600 L0,500 L24,503 L48,486 L72,477 L96,391 L120,412 L144,321 L168,330 L192,426 L216,439 L240,430 L264,405 L288,316 L312,380 L336,313 L360,340 L384,339 L408,365 L432,365 L456,411 L480,422 L504,418 L528,426 L552,389 L576,422 L600,316 L624,455 L648,372 L672,449 L696,460 L720,486 L744,367 L768,496 L792,375 L800,600 Z" fill="#080e1d" opacity="1.0"/>
</svg>