<svg xmlns="http://www.w3.org/2000/svg" viewBox="0 0 800 600" preserveAspectRatio="xMidYMid slice">
  <defs>
    <linearGradient id="sky" x1="0" y1="0" x2="0" y2="1">
      <stop offset="0" stop-color="#0e2038"/><stop offset="0.55" stop-color="#2c4469"/><stop offset="1" stop-color="#ffd49a"/>
    </linearGradient>
    <radialGradient id="orb" cx="0.5" cy="0.5" r="0.5">
      <stop offset="0" stop-color="#ffd9a6" stop-opacity="0.95"/><stop offset="1" stop-color="#ffd9a6" stop-opacity="0"/>
    </radialGradient>
  </defs>
  <rect width="800" height="600" fill="url(#sky)"/>
  <circle cx="240" cy="156" r="120" fill="url(#orb)"/>
  <circle cx="240" cy="156" r="38" fill="#ffd9a6" opacity="0.9"/>
  <path d="M0,600 L0,322 L24,308 L48,326 L72,325 L96,301 L120,254 L144,315 L168,313 L192,260 L216,305 L240,297 L264,237 L288,301 L312,228 L336,227 L360,289 L384,247 L408,290 L432,293 L456,273 L480,288 L504,262 L528,284 L552,287 L576,280 L600,258 L624,250 L648,321 L672,297 L696,260 L720,306 L744,268 L768,343 L792,334 L800,600 Z" fill="#294166" opacity="0.55"/>
  <path d="M0,600 L0,361 L24,415 L48,341 L72,326 L96,397 L120,308 L144,287 L168,337 L192,275 L216,334 L240,282 L264,279 L288,306 L312,307 L336,322 L360,349 L384,243 L408,320 L432,326 L456,263 L480,317 L504,266 L528,357 L552,258 L576,262 L600,269 L624,360 L648,282 L672,310 L696,399 L720,366 L744,382 L768,374 L792,415 L800,600 Z" fill="#213859" opacity="0.85"/>
  <path d="M0,600 L0,499 L24,411 L48,437 L72,389 L96,406 L120,393 L144,331 L168,354 L192,446 L216,302 L240,303 L264,429 L288,354 L312,369 L336,418 L360,390 L384,415 L408,340 L432,294 L456,416 L480,418 L504,323 L528,402 L552,361 L576,303 L600,383 L624,323 L648,353 L672,454 L696,340 L720,349 L744,410 L768,478 L792,410 L800,600 Z" fill="#081322" opacity="1.0"/>
</svg>