<svg xmlns="http://www.w3.org/2000/svg" viewBox="0 0 800 600" preserveAspectRatio="xMidYMid slice">
  <defs>
    <linearGradient id="sky" x1="0" y1="0" x2="0" y2="1">
      <stop offset="0" stop-color="#0e1730"/><stop offset="0.55" stop-color="#292053"/><stop offset="1" stop-color="#ff9e6d"/>
    </linearGradient>
    <radialGradient id="orb" cx="0.5" cy="0.5" r="0.5">
      <stop offset="0" stop-color="#ffa97e" stop-opacity="0.95"/><stop offset="1" stop-color="#ffa97e" stop-opacity="0"/>
    </radialGradient>
  </defs>
  <rect width="800" height="600" fill="url(#sky)"/>
  <circle cx="656" cy="204" r="120" fill="url(#orb)"/>
  <circle cx="656" cy="204" r="38" fill="#ffa97e" opacity="0.9"/>
  <path d="M0,600 L0,278 L24,295 L48,338 L72,285 L96,267 L120,314 L144,254 L168,248 L192,264 L216,264 L240,294 L264,275 L288,230 L312,278 L336,232 L360,260 L384,297 L408,229 L432,297 L456,293 L480,296 L504,298 L528,253 L552,237 L576,263 L600,312 L624,309 L648,305 L672,275 L696,306 L720,269 L744,268 L768,278 L792,338 L800,600 Z" fill="#271f50" opacity="0.55"/>
  <path d="M0,600 L0,418 L24,350 L48,304 L72,331 L96,391 L120,362 L144,299 L168,290 L192,299 L216,283 L240,362 L264,356 L288,330 L312,293 L336,273 L360,319 L384,276 L408,281 L432,249 L456,246 L480,354 L504,250 L528,328 L552,299 L576,284 L600,353 L624,367 L648,282 L672,313 L696,397 L720,340 L744,410 L768,420 L792,322 L800,600 Z" fill="#1f1d48" opacity="0.85"/>
  <path d="M0,600 L0,477 L24,456 L48,495 L72,460 L96,406 L120,337 L144,445 L168,378 L192,307 L216,421 L240,415 L264,291 L288,300 L312,367 L336,414 L360,280 L384,383 L408,341 L432,353 L456,335 L480,385 L504,389 L528,343 L552,333 L576,338 L600,423 L624,329 L648,328 L672,447 L696,454 L720,488 L744,491 L768,455 L792,465 L800,600 Z" fill="#080e1d" opacity="1.0"/>
</svg>