<svg xmlns="http://www.w3.org/2000/svg" viewBox="0 0 800 600" preserveAspectRatio="xMidYMid slice">
  <defs>
    <linearGradient id="sky" x1="0" y1="0" x2="0" y2="1">
      <stop offset="0" stop-color="#0e2038"/><stop offset="0.55" stop-color="#2c4469"/><stop offset="1" stop-color="#ffd49a"/>
    </linearGradient>
    <radialGradient id="orb" cx="0.5" cy="0.5" r="0.5">
      <stop offset="0" stop-color="#ffd9a6" stop-opacity="0.95"/><stop offset="1" stop-color="#ffd9a6" stop-opacity="0"/>
    </radialGradient>
  </defs>
  <rect width="800" height="600" fill="url(#sky)"/>
  <circle cx="240" cy="156" r="120" fill="url(#orb)"/>
  <circle cx="240" cy="156" r="38" fill="#ffd9a6" opacity="0.9"/>
  <path d="M0,600 L0,284 L24,272 L48,335 L72,324 L96,313 L120,253 L144,294 L168,261 L192,250 L216,241 L240,306 L264,237 L288,298 L312,235 L336,243 L360,298 L384,244 L408,274 L432,298 L456,264 L480,238 L504,249 L528,236 L552,260 L576,241 L600,274 L624,316 L648,280 L672,320 L696,325 L720,285 L744,331 L768,341 L792,298 L800,600 Z" fill="#294166" opacity="0.55"/>
  <path d="M0,600 L0,318 L24,398 L48,368 L72,306 L96,398 L120,289 L144,277 L168,277 L192,306 L216,358 L240,283 L264,304 L288,343 L312,246 L336,345 L360,252 L384,254 L408,344 L432,330 L456,304 L480,309 L504,268 L528,361 L552,262 L576,268 L600,374 L624,330 L648,279 L672,362 L696,361 L720,368 L744,414 L768,413 L792,319 L800,600 Z" fill="#213859" opacity="0.85"/>
  <path d="M0,600 L0,488 L24,407 L48,396 L72,471 L96,443 L120,460 L144,321 L168,440 L192,316 L216,416 L240,403 L264,416 L288,305 L312,317 L336,418 L360,393 L384,277 L408,390 L432,306 L456,288 L480,355 L504,298 L528,395 L552,337 L576,440 L600,310 L624,358 L648,323 L672,368 L696,372 L720,352 L744,388 L768,367 L792,424 L800,600 Z" fill="#081322" opacity="1.0"/>
</svg>