<svg xmlns="http://www.w3.org/2000/svg" viewBox="0 0 800 600" preserveAspectRatio="xMidYMid slice">
  <defs>
    <linearGradient id="sky" x1="0" y1="0" x2="0" y2="1">
      <stop offset="0" stop-color="#0c1834"/><stop offset="0.55" stop-color="#1e1b48"/><stop offset="1" stop-color="#5eead4"/>
    </linearGradient>
    <radialGradient id="orb" cx="0.5" cy="0.5" r="0.5">
      <stop offset="0" stop-color="#71ecd9" stop-opacity="0.95"/><stop offset="1" stop-color="#71ecd9" stop-opacity="0"/>
    </radialGradient>
  </defs>
  <rect width="800" height="600" fill="url(#sky)"/>
  <circle cx="656" cy="204" r="120" fill="url(#orb)"/>
  <circle cx="656" cy="204" r="38" fill="#71ecd9" opacity="0.9"/>
  <path d="M0,600 L0,345 L24,274 L48,274 L72,286 L96,261 L120,325 L144,293 L168,309 L192,307 L216,310 L240,303 L264,301 L288,233 L312,290 L336,264 L360,298 L384,282 L408,297 L432,286 L456,265 L480,232 L504,294 L528,257 L552,271 L576,240 L600,275 L624,251 L648,256 L672,287 L696,276 L720,334 L744,305 L768,326 L792,337 L800,600 Z" fill="#1d1b47" opacity="0.55"/>
  <path d="M0,600 L0,337 L24,365 L48,317 L72,346 L96,291 L120,325 L144,338 L168,271 L192,287 L216,367 L240,348 L264,266 L288,357 L312,270 L336,325 L360,345 L384,348 L408,278 L432,243 L456,276 L480,276 L504,342 L528,347 L552,296 L576,269 L600,269 L624,306 L648,306 L672,296 L696,399 L720,382 L744,413 L768,421 L792,341 L800,600 Z" fill="#181b43" opacity="0.85"/>
  <path d="M0,600 L0,484 L24,408 L48,391 L72,475 L96,339 L120,389 L144,347 L168,396 L192,430 L216,383 L240,372 L264,414 L288,287 L312,381 L336,281 L360,413 L384,279 L408,386 L432,385 L456,419 L480,312 L504,297 L528,397 L552,427 L576,441 L600,354 L624,455 L648,409 L672,408 L696,472 L720,481 L744,404 L768,389 L792,380 L800,600 Z" fill="#070e1f" opacity="1.0"/>
</svg>