<svg xmlns="http://www.w3.org/2000/svg" viewBox="0 0 800 600" preserveAspectRatio="xMidYMid slice">
  <defs>
    <linearGradient id="sky" x1="0" y1="0" x2="0" y2="1">
      <stop offset="0" stop-color="#0e1730"/><stop offset="0.55" stop-color="#292053"/><stop offset="1" stop-color="#ff9e6d"/>
    </linearGradient>
    <radialGradient id="orb" cx="0.5" cy="0.5" r="0.5">
      <stop offset="0" stop-color="#ffa97e" stop-opacity="0.95"/><stop offset="1" stop-color="#ffa97e" stop-opacity="0"/>
    </radialGradient>
  </defs>
  <rect width="800" height="600" fill="url(#sky)"/>
  <circle cx="592" cy="180" r="120" fill="url(#orb)"/>
  <circle cx="592" cy="180" r="38" fill="#ffa97e" opacity="0.9"/>
  <path d="M0,600 L0,276 L24,302 L48,336 L72,285 L96,265 L120,254 L144,296 L168,313 L192,243 L216,244 L240,239 L264,288 L288,284 L312,298 L336,298 L360,289 L384,228 L408,229 L432,296 L456,228 L480,287 L504,272 L528,278 L552,250 L576,311 L600,242 L624,310 L648,314 L672,257 L696,330 L720,310 L744,281 L768,273 L792,279 L800,600 Z" fill="#271f50" opacity="0.55"/>
  <path d="M0,600 L0,423 L24,321 L48,401 L72,365 L96,380 L120,304 L144,283 L168,366 L192,285 L216,363 L240,364 L264,280 L288,355 L312,265 L336,339 L360,285 L384,256 L408,296 L432,316 L456,329 L480,312 L504,261 L528,258 L552,349 L576,287 L600,344 L624,342 L648,338 L672,386 L696,330 L720,375 L744,312 L768,413 L792,414 L800,600 Z" fill="#1f1d48" opacity="0.85"/>
  <path d="M0,600 L0,477 L24,366 L48,444 L72,347 L96,380 L120,465 L144,322 L168,313 L192,319 L216,430 L240,424 L264,339 L288,368 L312,362 L336,327 L360,367 L384,398 L408,383 L432,410 L456,287 L480,412 L504,420 L528,398 L552,403 L576,303 L600,332 L624,315 L648,355 L672,453 L696,387 L720,384 L744,482 L768,374 L792,469 L800,600 Z" fill="#080e1d" opacity="1.0"/>
</svg>