<svg xmlns="http://www.w3.org/2000/svg" viewBox="0 0 800 600" preserveAspectRatio="xMidYMid slice">
  <defs>
    <linearGradient id="sky" x1="0" y1="0" x2="0" y2="1">
      <stop offset="0" stop-color="#0c1834"/><stop offset="0.55" stop-color="#1e1b48"/><stop offset="1" stop-color="#5eead4"/>
    </linearGradient>
    <radialGradient id="orb" cx="0.5" cy="0.5" r="0.5">
      <stop offset="0" stop-color="#71ecd9" stop-opacity="0.95"/><stop offset="1" stop-color="#71ecd9" stop-opacity="0"/>
    </radialGradient>
  </defs>
  <rect width="800" height="600" fill="url(#sky)"/>
  <circle cx="240" cy="156" r="120" fill="url(#orb)"/>
  <circle cx="240" cy="156" r="38" fill="#71ecd9" opacity="0.9"/>
  <path d="M0,600 L0,290 L24,326 L48,276 L72,274 L96,325 L120,307 L144,293 L168,311 L192,312 L216,310 L240,235 L264,235 L288,285 L312,238 L336,229 L360,298 L384,283 L408,228 L432,232 L456,299 L480,269 L504,236 L528,304 L552,292 L576,307 L600,254 L624,257 L648,284 L672,321 L696,275 L720,295 L744,268 L768,334 L792,283 L800,600 Z" fill="#1d1b47" opacity="0.55"/>
  <path d="M0,600 L0,332 L24,324 L48,313 L72,297 L96,290 L120,333 L144,328 L168,378 L192,340 L216,360 L240,279 L264,281 L288,331 L312,351 L336,255 L360,343 L384,303 L408,348 L432,245 L456,255 L480,336 L504,340 L528,265 L552,275 L576,274 L600,271 L624,276 L648,335 L672,389 L696,298 L720,400 L744,364 L768,420 L792,424 L800,600 Z" fill="#181b43" opacity="0.85"/>
  <path d="M0,600 L0,448 L24,460 L48,357 L72,475 L96,344 L120,468 L144,416 L168,432 L192,348 L216,435 L240,428 L264,289 L288,299 L312,396 L336,282 L360,413 L384,320 L408,306 L432,296 L456,414 L480,364 L504,295 L528,305 L552,341 L576,312 L600,444 L624,315 L648,349 L672,381 L696,466 L720,466 L744,400 L768,494 L792,418 L800,600 Z" fill="#070e1f" opacity="1.0"/>
</svg>